<?xml version="1.0" standalone="no"?>
<!DOCTYPE svg PUBLIC "-//W3C//DTD SVG 1.1//EN" "http://www.w3.org/Graphics/SVG/1.1/DTD/svg11.dtd" >
<svg>
<metadata>
Created by FontForge 20090914 at Mon Oct 13 05:54:48 2014
 By www-data
Uyghur Computer Science Association. Free distributed and all rights reserved. http://www.ukij.org
</metadata>
<defs>
<font id="UKIJKufiYay" horiz-adv-x="1139" >
  <font-face 
    font-family="UKIJ Kufi Yay"
    font-weight="400"
    font-stretch="normal"
    units-per-em="2048"
    panose-1="2 11 6 4 2 2 2 2 2 4"
    ascent="1638"
    descent="-410"
    x-height="1082"
    cap-height="1409"
    bbox="-416 -784.999 2250 1846"
    underline-thickness="150"
    underline-position="-605"
    unicode-range="U+0020-U+FEFC"
  />
<missing-glyph horiz-adv-x="748" 
d="M68 0v1365h544v-1365h-544zM136 68h408v1229h-408v-1229z" />
    <glyph glyph-name="uni0675" unicode="&#x674;&#xfe8d;" horiz-adv-x="999" 
d="M211 13v1170c0.666992 5.33301 1 10.333 1 15c0 51.333 -22.667 77 -68 77c-12.667 0 -30.667 -2.66699 -54 -8l286 243v-1497h-165zM968 1295c-34.667 -9.33301 -69.332 -15.999 -103.999 -19.999c-26.667 -3.33301 -52 -5 -76 -5h-22
c-24.667 0 -44.167 -6.33301 -58.5 -19s-21.5 -32 -21.5 -58v-17c0 -6.66699 0.333008 -13.334 1 -20.001h281v-182h-467v287c15.333 80.667 45 135 89 163c45.333 28 107.666 42 186.999 42h13c72.667 0 132 16.667 178 50v-221z" />
    <glyph glyph-name="uni0676" unicode="&#x674;&#xfeed;" horiz-adv-x="1200" 
d="M432 428c0 57.333 -30 86 -90 86s-90 -28.667 -90 -86c0 -59.333 33.667 -89 101 -89c52.667 0 79 29.667 79 89zM100 9l-0.000976562 483.001c0 42.667 18.667 93.667 56 153c38.667 58.667 106.334 93 203.001 103c98 9.33301 177 51 237 125v-994
c-13.333 -195.333 -59.333 -313 -138 -353c-49.333 -25.333 -98.333 -38 -147 -38c-34 0 -68.333 6 -103 18c-61.333 18 -92 30.333 -92 37c0 3.33301 5.33301 5 16 5c40 2 99.333 22.333 178 61c72 35.333 108 112.666 108 231.999c0 8 -0.333008 16.333 -1 25v143h-317z
M1192 1259c-34.667 -9.33301 -69.332 -15.999 -103.999 -19.999c-26.667 -3.33301 -52 -5 -76 -5h-22c-24.667 0 -44.167 -6.33301 -58.5 -19s-21.5 -32 -21.5 -58v-17c0 -6.66699 0.333008 -13.334 1 -20.001h281v-182h-467v287c15.333 80.667 45 135 89 163
c45.333 28 107.666 42 186.999 42h13c72.667 0 132 16.667 178 50v-221z" />
    <glyph glyph-name="uni0677" unicode="&#x674;&#xfbd7;" horiz-adv-x="1200" 
d="M430 428c0 57.333 -30 86 -90 86s-90 -28.667 -90 -86c0 -59.333 33.667 -89 101 -89c52.667 0 79 29.667 79 89zM258 1075c88 51.333 133.334 99.001 136.001 143.001c0.666992 7.33301 1 13.666 1 18.999c0 19.333 -5 29 -15 29c-4.66699 0 -10.334 -2 -17.001 -6
c-64 14 -96 47.667 -96 101v11c6.66699 60 31 99.333 73 118c19.333 6.66699 38.666 10 57.999 10c23.333 0 45 -6 65 -18c37.333 -22.667 62.333 -68.667 75 -138c1.33301 -11.333 2 -23.333 2 -36c0 -58 -22.667 -113.667 -68 -167c-40.667 -50.667 -90.667 -76 -150 -76
c-21.333 0 -42.666 3.33301 -63.999 10zM98.001 9.00098l-0.000976562 483.001c0 42.667 18.667 93.667 56 153c38.667 58.667 106.334 93 203.001 103c98 9.33301 177 51 237 125v-994c-13.333 -195.333 -59.333 -313 -138 -353c-49.333 -25.333 -98.333 -38 -147 -38
c-34 0 -68.333 6 -103 18c-61.333 18 -92 30.333 -92 37c0 3.33301 5.33301 5 16 5c40 2 99.333 22.333 178 61c72 35.333 108 112.666 108 231.999c0 8 -0.333008 16.333 -1 25v143h-317zM1192 1312c-34 -9.33301 -68.333 -15.999 -103 -19.999
c-27.333 -3.33301 -52.666 -5 -75.999 -5h-22c-24.667 0 -44.334 -6.33301 -59.001 -19s-22 -32 -22 -58v-17c0 -6.66699 0.666992 -13.334 2 -20.001h280v-182h-466v287c14.667 80.667 44 135 88 163c46 28 108.667 42 188 42h12c72.667 0 132 16.667 178 50v-221z" />
    <glyph glyph-name="uni0678" unicode="&#x674;&#xfeef;" horiz-adv-x="1600" 
d="M1120 9l-6.00293 -77c-20 -117.333 -68 -204 -144 -260c-76.667 -54.667 -171.334 -87.334 -284.001 -98.001c-11.333 -0.666992 -23.5 -1.66699 -36.5 -3s-24.833 -2 -35.5 -2c-89.333 0 -180.666 16.333 -273.999 49c-117.333 42.667 -185.666 137.667 -204.999 285
v362c0 36.667 -12 55 -36 55c-8 0 -19.667 -2.33301 -35 -7l240 173v-515c10.667 -66 41 -116.333 91 -151s121 -52 213 -52h19c6 0 12.667 0.666992 20 2c195.333 8 293 76.333 293 205c0 5.33301 -0.333008 11.166 -1 17.499s-2 11.833 -4 16.5h-321v448
c0.666992 29.333 3.5 56.833 8.5 82.5s12.167 48.5 21.5 68.5c18 42.667 51 84.334 99 125.001c48 44 121.333 66.333 220 67h11c90 0 144 -19.667 162 -59c-82.667 -4 -150.167 -16.167 -202.5 -36.5s-90.166 -49.166 -113.499 -86.499
c-13.333 -22.667 -24.333 -49.167 -33 -79.5s-13 -61.833 -13 -94.5c0 -15.333 1.33301 -32.5 4 -51.5s5.33398 -35.833 8.00098 -50.5h334v-333zM1583 1262c-34 -9.33301 -68.333 -15.999 -103 -19.999c-27.333 -3.33301 -52.666 -5 -75.999 -5h-22
c-24.667 0 -44.334 -6.33301 -59.001 -19s-22 -32 -22 -58v-17c0 -6.66699 0.666992 -13.334 2 -20.001h280v-182h-466v287c14.667 80.667 44 135 88 163c46 28 108.667 42 188 42h12c72.667 0 132 16.667 178 50v-221z" />
    <glyph glyph-name="uniFEF5" unicode="&#xfedf;&#xfe82;" horiz-adv-x="963" arabic-form="isolated" 
d="M311 339h339.001c0 6 -0.5 12.333 -1.5 19s-1.5 12.667 -1.5 18c-32.667 6.66699 -63.834 19.167 -93.501 37.5s-55.167 42.5 -76.5 72.5c-18 -26 -41.667 -48.5 -71 -67.5s-61 -31.833 -95 -38.5v-41zM838.001 963c-1.33301 -86 -20.335 -159.497 -57.002 -220.497
s-87.667 -107.167 -153 -138.5c12 -18.667 28.167 -33.834 48.5 -45.501s44.5 -17.5 72.5 -17.5c10.667 0 21.334 0.333008 32.001 1s23.334 3 38.001 7v-540h-685v531c16 -2.66699 32.333 -4 49 -4c36 0 65.833 6 89.5 18s41.834 28.333 54.501 49
c-62.667 24 -110.334 60.667 -143.001 110c-31.333 47.333 -47 107 -47 179v359c0 38 -12.667 57 -38 57c-8 0 -19.667 -3 -35 -9l253 175v-516c0 -42 8 -76.833 24 -104.5s39 -47.834 69 -60.501c24 -10.667 47.333 -16 70 -16c17.333 0 34.5 3 51.5 9
s32.833 13.333 47.5 22c25.333 19.333 44 45.666 56 78.999c11.333 31.333 17 69.333 17 114v278c0 30.667 -14 46 -42 46c-6.66699 0 -14 -0.666992 -22 -2l250 184v-544zM440.999 1733c-12 -42 -34.8311 -72.167 -68.498 -90.5s-88.167 -27.5 -163.5 -27.5h-26
c-8 0 -16.333 -0.666992 -25 -2c-8.66699 0 -18 -1.16699 -28 -3.5s-18.667 -4.16602 -26 -5.49902c-38.667 -6 -64.667 -15.333 -78 -28c13.333 36 34.333 63 63 81c15.333 7.33301 34.666 13.666 57.999 18.999c11.333 2 23.5 3.66699 36.5 5s27.167 2 42.5 2
c40 0 80.667 4 122 12c19.333 4 36.666 9.16699 51.999 15.5s29 13.833 41 22.5z" />
    <glyph glyph-name="uniFEF6" unicode="&#xfee0;&#xfe82;" horiz-adv-x="982" arabic-form="final" 
d="M327 339h339.001c0 6 -0.5 12.333 -1.5 19s-1.5 12.667 -1.5 18c-32.667 6.66699 -63.834 19.167 -93.501 37.5s-55.167 42.5 -76.5 72.5c-18 -26 -41.667 -48.5 -71 -67.5s-61 -31.833 -95 -38.5v-41zM854.001 963c-1.33301 -86 -20.334 -159.497 -57.001 -220.497
s-87.667 -107.167 -153 -138.5c12 -18.667 28.167 -33.834 48.5 -45.501s44.5 -17.5 72.5 -17.5c10.667 0 21.334 0.333008 32.001 1s23.334 3 38.001 7v-210h157v-330h-842v531c16 -2.66699 32.333 -4 49 -4c36 0 65.833 6 89.5 18s41.834 28.333 54.501 49
c-62.667 24 -110.334 60.667 -143.001 110c-31.333 47.333 -47 107 -47 179v346c0 38.667 -12.667 58 -38 58c-8 0 -19.667 -3.33301 -35 -10l253 175v-503c0 -42 8 -76.833 24 -104.5s39 -47.834 69 -60.501c24 -10.667 47.333 -16 70 -16c17.333 0 34.5 3 51.5 9
s32.833 13.333 47.5 22c25.333 19.333 44 45.666 56 78.999c11.333 31.333 17 69.333 17 114v266c0 30 -13.667 45 -41 45c-6.66699 0 -14.334 -1 -23.001 -3l250 185v-531zM452 1733c-12 -42 -34.8311 -72.167 -68.498 -90.5s-88.167 -27.5 -163.5 -27.5h-26
c-8 0 -16.333 -0.666992 -25 -2c-8.66699 0 -18 -1.16699 -28 -3.5s-18.667 -4.16602 -26 -5.49902c-38.667 -6 -64.667 -15.333 -78 -28c13.333 36 34.333 63 63 81c15.333 7.33301 34.666 13.666 57.999 18.999c11.333 2 23.5 3.66699 36.5 5s27.167 2 42.5 2
c40 0 80.667 4 122 12c19.333 4 36.666 9.16699 51.999 15.5s29 13.833 41 22.5z" />
    <glyph glyph-name="uniFEF7" unicode="&#xfedf;&#xfe84;" horiz-adv-x="963" arabic-form="isolated" 
d="M311 339h339.001c0 6 -0.5 12.333 -1.5 19s-1.5 12.667 -1.5 18c-32.667 6.66699 -63.834 19.167 -93.501 37.5s-55.167 42.5 -76.5 72.5c-18 -26 -41.667 -48.5 -71 -67.5s-61 -31.833 -95 -38.5v-41zM838.001 963c-1.33301 -86 -20.335 -159.497 -57.002 -220.497
s-87.667 -107.167 -153 -138.5c12 -18.667 28.167 -33.834 48.5 -45.501s44.5 -17.5 72.5 -17.5c10.667 0 21.334 0.333008 32.001 1s23.334 3 38.001 7v-540h-685v531c16 -2.66699 32.333 -4 49 -4c36 0 65.833 6 89.5 18s41.834 28.333 54.501 49
c-62.667 24 -110.334 60.667 -143.001 110c-31.333 47.333 -47 107 -47 179v359c0 38 -12.667 57 -38 57c-8 0 -19.667 -3 -35 -9l253 175v-516c0 -42 8 -76.833 24 -104.5s39 -47.834 69 -60.501c24 -10.667 47.333 -16 70 -16c17.333 0 34.5 3 51.5 9
s32.833 13.333 47.5 22c25.333 19.333 44 45.666 56 78.999c11.333 31.333 17 69.333 17 114v278c0 30.667 -14 46 -42 46c-6.66699 0 -14 -0.666992 -22 -2l250 184v-544zM341.999 1718c-16.667 -4.66699 -33.668 -8.00098 -51.001 -10.001c-12.667 -1.33301 -25 -2 -37 -2
h-11c-12 0 -21.5 -3.16699 -28.5 -9.5s-10.5 -15.833 -10.5 -28.5v-8c0 -3.33301 0.333008 -6.66602 1 -9.99902h137v-89h-228v140c6.66699 40 21 66.667 43 80c22.667 14 53.334 21 92.001 21h8c34.667 0 63 8 85 24v-108z" />
    <glyph glyph-name="uniFEF8" unicode="&#xfee0;&#xfe84;" horiz-adv-x="982" arabic-form="final" 
d="M327 339h339.001c0 6 -0.5 12.333 -1.5 19s-1.5 12.667 -1.5 18c-32.667 6.66699 -63.834 19.167 -93.501 37.5s-55.167 42.5 -76.5 72.5c-18 -26 -41.667 -48.5 -71 -67.5s-61 -31.833 -95 -38.5v-41zM854.001 963c-1.33301 -86 -20.334 -159.497 -57.001 -220.497
s-87.667 -107.167 -153 -138.5c12 -18.667 28.167 -33.834 48.5 -45.501s44.5 -17.5 72.5 -17.5c10.667 0 21.334 0.333008 32.001 1s23.334 3 38.001 7v-210h157v-330h-842v531c16 -2.66699 32.333 -4 49 -4c36 0 65.833 6 89.5 18s41.834 28.333 54.501 49
c-62.667 24 -110.334 60.667 -143.001 110c-31.333 47.333 -47 107 -47 179v346c0 38.667 -12.667 58 -38 58c-8 0 -19.667 -3.33301 -35 -10l253 175v-503c0 -42 8 -76.833 24 -104.5s39 -47.834 69 -60.501c24 -10.667 47.333 -16 70 -16c17.333 0 34.5 3 51.5 9
s32.833 13.333 47.5 22c25.333 19.333 44 45.666 56 78.999c11.333 31.333 17 69.333 17 114v266c0 30 -13.667 45 -41 45c-6.66699 0 -14.334 -1 -23.001 -3l250 185v-531zM342 1718c-16.667 -4.66699 -33.668 -8.00098 -51.001 -10.001c-12.667 -1.33301 -25 -2 -37 -2
h-11c-12 0 -21.5 -3.16699 -28.5 -9.5s-10.5 -15.833 -10.5 -28.5v-8c0 -3.33301 0.333008 -6.66602 1 -9.99902h137v-89h-228v140c6.66699 40 21 66.667 43 80c22.667 14 53.334 21 92.001 21h8c34.667 0 63 8 85 24v-108z" />
    <glyph glyph-name="uniFEF9" unicode="&#xfedf;&#xfe88;" horiz-adv-x="963" arabic-form="isolated" 
d="M311 339h339.001c0 6 -0.5 12.333 -1.5 19s-1.5 12.667 -1.5 18c-32.667 6.66699 -63.834 19.167 -93.501 37.5s-55.167 42.5 -76.5 72.5c-18 -26 -41.667 -48.5 -71 -67.5s-61 -31.833 -95 -38.5v-41zM838.001 963c-1.33301 -86 -20.335 -159.497 -57.002 -220.497
s-87.667 -107.167 -153 -138.5c12 -18.667 28.167 -33.834 48.5 -45.501s44.5 -17.5 72.5 -17.5c10.667 0 21.334 0.333008 32.001 1s23.334 3 38.001 7v-540h-685v531c16 -2.66699 32.333 -4 49 -4c36 0 65.833 6 89.5 18s41.834 28.333 54.501 49
c-62.667 24 -110.334 60.667 -143.001 110c-31.333 47.333 -47 107 -47 179v359c0 38 -12.667 57 -38 57c-8 0 -19.667 -3 -35 -9l253 175v-516c0 -42 8 -76.833 24 -104.5s39 -47.834 69 -60.501c24 -10.667 47.333 -16 70 -16c17.333 0 34.5 3 51.5 9
s32.833 13.333 47.5 22c25.333 19.333 44 45.666 56 78.999c11.333 31.333 17 69.333 17 114v278c0 30.667 -14 46 -42 46c-6.66699 0 -14 -0.666992 -22 -2l250 184v-544zM341.999 -212.997c-16.667 -4.66699 -33.334 -8.00098 -50.001 -10.001
c-13.333 -1.33301 -25.666 -2 -36.999 -2h-11c-12 0 -21.667 -3.16699 -29 -9.5s-11 -15.833 -11 -28.5v-8c0 -3.33301 0.333008 -6.66602 1 -9.99902h137v-89h-228v140c7.33301 39.333 21.666 66 42.999 80c22.667 13.333 53.334 20 92.001 20h4c36 0 65.667 8.33301 89 25
v-108z" />
    <glyph glyph-name="uniFEFA" unicode="&#xfee0;&#xfe88;" horiz-adv-x="982" arabic-form="final" 
d="M327 339h339.001c0 6 -0.5 12.333 -1.5 19s-1.5 12.667 -1.5 18c-32.667 6.66699 -63.834 19.167 -93.501 37.5s-55.167 42.5 -76.5 72.5c-18 -26 -41.667 -48.5 -71 -67.5s-61 -31.833 -95 -38.5v-41zM854.001 963c-1.33301 -86 -20.334 -159.497 -57.001 -220.497
s-87.667 -107.167 -153 -138.5c12 -18.667 28.167 -33.834 48.5 -45.501s44.5 -17.5 72.5 -17.5c10.667 0 21.334 0.333008 32.001 1s23.334 3 38.001 7v-210h157v-330h-842v531c16 -2.66699 32.333 -4 49 -4c36 0 65.833 6 89.5 18s41.834 28.333 54.501 49
c-62.667 24 -110.334 60.667 -143.001 110c-31.333 47.333 -47 107 -47 179v346c0 38.667 -12.667 58 -38 58c-8 0 -19.667 -3.33301 -35 -10l253 175v-503c0 -42 8 -76.833 24 -104.5s39 -47.834 69 -60.501c24 -10.667 47.333 -16 70 -16c17.333 0 34.5 3 51.5 9
s32.833 13.333 47.5 22c25.333 19.333 44 45.666 56 78.999c11.333 31.333 17 69.333 17 114v266c0 30 -13.667 45 -41 45c-6.66699 0 -14.334 -1 -23.001 -3l250 185v-531zM342 -209.997c-16.667 -4.66699 -33.667 -8 -51 -10c-13.333 -2 -26 -3 -38 -3h-10
c-12 0 -21.5 -3 -28.5 -9s-10.5 -15.333 -10.5 -28v-9c0 -3.33301 0.333008 -6.33301 1 -9h137v-89h-228v140c6.66699 39.333 21 66 43 80c22 13.333 52.667 20 92 20h4c36 0 65.667 8.33301 89 25v-108z" />
    <glyph glyph-name="uniFEFB" unicode="&#xfedf;&#xfe8e;" horiz-adv-x="963" arabic-form="isolated" 
d="M311 339h339.001c0 6 -0.5 12.333 -1.5 19s-1.5 12.667 -1.5 18c-32.667 6.66699 -63.834 19.167 -93.501 37.5s-55.167 42.5 -76.5 72.5c-18 -26 -41.667 -48.5 -71 -67.5s-61 -31.833 -95 -38.5v-41zM838.001 963c-1.33301 -86 -20.335 -159.497 -57.002 -220.497
s-87.667 -107.167 -153 -138.5c12 -18.667 28.167 -33.834 48.5 -45.501s44.5 -17.5 72.5 -17.5c10.667 0 21.334 0.333008 32.001 1s23.334 3 38.001 7v-540h-685v531c16 -2.66699 32.333 -4 49 -4c36 0 65.833 6 89.5 18s41.834 28.333 54.501 49
c-62.667 24 -110.334 60.667 -143.001 110c-31.333 47.333 -47 107 -47 179v359c0 38 -12.667 57 -38 57c-8 0 -19.667 -3 -35 -9l253 175v-516c0 -42 8 -76.833 24 -104.5s39 -47.834 69 -60.501c24 -10.667 47.333 -16 70 -16c17.333 0 34.5 3 51.5 9
s32.833 13.333 47.5 22c25.333 19.333 44 45.666 56 78.999c11.333 31.333 17 69.333 17 114v278c0 30.667 -14 46 -42 46c-6.66699 0 -14 -0.666992 -22 -2l250 184v-544z" />
    <glyph glyph-name="uniFEFC" unicode="&#xfee0;&#xfe8e;" horiz-adv-x="982" arabic-form="final" 
d="M327 339h339.001c0 6 -0.5 12.333 -1.5 19s-1.5 12.667 -1.5 18c-32.667 6.66699 -63.834 19.167 -93.501 37.5s-55.167 42.5 -76.5 72.5c-18 -26 -41.667 -48.5 -71 -67.5s-61 -31.833 -95 -38.5v-41zM854.001 963c-1.33301 -86 -20.334 -159.497 -57.001 -220.497
s-87.667 -107.167 -153 -138.5c12 -18.667 28.167 -33.834 48.5 -45.501s44.5 -17.5 72.5 -17.5c10.667 0 21.334 0.333008 32.001 1s23.334 3 38.001 7v-210h157v-330h-842v531c16 -2.66699 32.333 -4 49 -4c36 0 65.833 6 89.5 18s41.834 28.333 54.501 49
c-62.667 24 -110.334 60.667 -143.001 110c-31.333 47.333 -47 107 -47 179v346c0 38.667 -12.667 58 -38 58c-8 0 -19.667 -3.33301 -35 -10l253 175v-503c0 -42 8 -76.833 24 -104.5s39 -47.834 69 -60.501c24 -10.667 47.333 -16 70 -16c17.333 0 34.5 3 51.5 9
s32.833 13.333 47.5 22c25.333 19.333 44 45.666 56 78.999c11.333 31.333 17 69.333 17 114v266c0 30 -13.667 45 -41 45c-6.66699 0 -14.334 -1 -23.001 -3l250 185v-531z" />
    <glyph glyph-name="uniFB56" unicode="&#x67e;" horiz-adv-x="1481" arabic-form="isolated" 
d="M908 -378c-21.333 12.667 -36.998 26.167 -46.998 40.5s-15 33.5 -15 57.5c0 22.667 5.33301 44 16 64s26 35.667 46 47c18.667 10 37.334 15 56.001 15c17.333 0 32.666 -3 45.999 -9l31 -27c10.667 -8 17.667 -17.333 21 -28c10 -15.333 15 -33.333 15 -54
c0 -14 -4.33301 -31.333 -13 -52c-14.667 -32 -36.334 -52.333 -65.001 -61c-6 -4 -17.667 -6 -35 -6c-18.667 0 -37.334 4.33301 -56.001 13zM562.002 -378c-22 12.667 -38.167 25.832 -48.5 39.499s-15.5 33.167 -15.5 58.5c0 22.667 5.33301 44 16 64
s26.667 35.667 48 47c17.333 10 36.333 15 57 15c15.333 0 30 -3 44 -9l30 -27c12 -8 19.667 -17.333 23 -28c10.667 -15.333 16 -33.333 16 -54c0 -13.333 -5.33301 -30.666 -16 -51.999c-15.333 -32 -36 -52.333 -62 -61c-8 -4 -19.667 -6 -35 -6
c-19.333 0 -38.333 4.33301 -57 13zM735.002 -641.002l-29.499 21.501c-8.33301 6.33301 -15 13 -20 20s-8.83301 15 -11.5 24s-4 20.5 -4 34.5c0 20.667 5.5 41 16.5 61s28.167 36.333 51.5 49c12.667 10 30.667 15 54 15c14.667 0 29.667 -3.66699 45 -11l31 -25
c9.33301 -6.66699 16.333 -17.334 21 -32.001c12 -13.333 18 -30.333 18 -51c0 -14 -5.33301 -32.333 -16 -55c-16.667 -32 -38.334 -52 -65.001 -60c-8 -4 -19.333 -6 -34 -6c-19.333 0 -38.333 5 -57 15zM181.003 8.99902v576c0 23.333 -9.66699 35 -29 35
c-12.667 0 -28.667 -4.33301 -48 -13l250 203v-468h823v309c0 22.667 -11.333 34 -34 34c-8 0 -16.167 -0.666992 -24.5 -2s-17.833 -4.33301 -28.5 -9l256 211v-876h-1165z" />
    <glyph glyph-name="uniFB57" unicode="&#x67e;" horiz-adv-x="1546" arabic-form="final" 
d="M833 -378c-22 12.667 -38.166 26.166 -48.499 40.499s-15.5 33.5 -15.5 57.5c0 22.667 5.16699 44 15.5 64s26.5 35.667 48.5 47c16.667 10 35.667 15 57 15c15.333 0 29.333 -3 42 -9c6.66699 -4 12.167 -8.16699 16.5 -12.5s9.83301 -9.16602 16.5 -14.499
c4 -2 8.16699 -5.66699 12.5 -11s7.16602 -11 8.49902 -17c10.667 -15.333 16 -33.333 16 -54c0 -14 -4.66699 -31.333 -14 -52c-15.333 -32 -37 -52.333 -65 -61c-6.66699 -4 -17.667 -6 -33 -6c-20.667 0 -39.667 4.33301 -57 13zM487.001 -378.001
c-23.333 12.667 -39.667 25.833 -49 39.5s-14 33.167 -14 58.5c0 22.667 5.16699 44 15.5 64s26.166 35.667 47.499 47c15.333 10 33.333 15 54 15c16 0 31.333 -3 46 -9l15 -12.5l17 -14.5c4 -2 8.16699 -5.66699 12.5 -11s7.83301 -11 10.5 -17
c8 -15.333 12 -33.333 12 -54c0 -14 -4 -31.333 -12 -52c-15.333 -32 -37.666 -52.333 -66.999 -61c-6.66699 -4 -18 -6 -34 -6c-19.333 0 -37.333 4.33301 -54 13zM660 -641.002c-12 8 -22.001 15.168 -30.001 21.501s-14.667 13 -20 20s-9.5 15 -12.5 24
s-4.5 20.5 -4.5 34.5c0 20.667 5.33301 41 16 61s28 36.333 52 49c14.667 10 32.334 15 53.001 15c17.333 0 32.666 -3.66699 45.999 -11c6 -4 11.667 -8.16699 17 -12.5l15 -12.5c4 -4 8 -8.66699 12 -14s7.66699 -11.333 11 -18c9.33301 -14.667 14 -31.667 14 -51
c0 -14 -4.66699 -32.333 -14 -55c-7.33301 -14.667 -16.833 -27.334 -28.5 -38.001s-24.5 -18 -38.5 -22c-7.33301 -4 -18.666 -6 -33.999 -6c-19.333 0 -37.333 5 -54 15zM154.999 8.99902v576c0 23.333 -9.66699 35 -29 35c-12.667 0 -28.667 -4.33301 -48 -13l250 203
v-468h823v309c0 22.667 -11.333 34 -34 34c-8 0 -16.167 -0.666992 -24.5 -2s-17.833 -4.33301 -28.5 -9l269 211v-543h223v-333h-1401z" />
    <glyph glyph-name="uniFB58" unicode="&#x67e;" horiz-adv-x="816" arabic-form="initial" 
d="M472 -378c-22 12.667 -38.1689 26.167 -48.502 40.5s-15.5 33.5 -15.5 57.5c0 22.667 5.16699 44 15.5 64s26.5 35.667 48.5 47c16.667 10 35.334 15 56.001 15c16 0 30.333 -3 43 -9l34 -27c8.66699 -8 15.334 -17.333 20.001 -28c10.667 -15.333 16 -33.333 16 -54
c0 -14 -4.33301 -31.333 -13 -52c-15.333 -32 -37.333 -52.333 -66 -61c-6.66699 -4 -18 -6 -34 -6c-19.333 0 -38 4.33301 -56 13zM125.998 -378c-23.333 12.667 -39.999 25.832 -49.999 39.499s-15 33.167 -15 58.5c0 22.667 5.5 44 16.5 64s27.167 35.667 48.5 47
c16.667 10 34.667 15 54 15c16.667 0 32 -3 46 -9l31 -27c10 -8 17.667 -17.333 23 -28c10 -15.333 15 -33.333 15 -54c0 -13.333 -5 -30.666 -15 -51.999c-15.333 -32 -37 -52.333 -65 -61c-6.66699 -4 -18.334 -6 -35.001 -6c-19.333 0 -37.333 4.33301 -54 13z
M298.999 -641.002l-31.0029 21.501c-9.33301 6.33301 -16.166 13 -20.499 20s-8 15 -11 24s-4.5 20.5 -4.5 34.5c0 20.667 5.33301 41 16 61s28.334 36.333 53.001 49c12.667 10 30 15 52 15c16.667 0 31.667 -3.66699 45 -11l34 -25
c8.66699 -6.66699 15.334 -17.334 20.001 -32.001c10.667 -13.333 16 -30.333 16 -51c0 -14 -4.33301 -32.333 -13 -55c-16.667 -32 -39 -52 -67 -60c-8 -4 -19.667 -6 -35 -6c-19.333 0 -37.333 5 -54 15zM707.996 8.99902h-720v333h572v262c0 55.333 -6 83 -18 83l166 154
v-832z" />
    <glyph glyph-name="uniFB59" unicode="&#x67e;" horiz-adv-x="821" arabic-form="medial" 
d="M220 -378c-22.667 12.667 -38.832 25.832 -48.499 39.499s-14.5 33.167 -14.5 58.5c0 22.667 5.16699 44 15.5 64s26.166 35.667 47.499 47c17.333 10 35.333 15 54 15c18 0 33.333 -3 46 -9l34 -27c8.66699 -8 16 -17.333 22 -28c9.33301 -15.333 14 -33.333 14 -54
c0 -13.333 -4.66699 -30.666 -14 -51.999c-14.667 -32 -36.667 -52.333 -66 -61c-6 -4 -18 -6 -36 -6c-17.333 0 -35.333 4.33301 -54 13zM568.002 -378.002c-22.667 12.667 -39.333 26.167 -50 40.5s-16 33.5 -16 57.5c0 22.667 5.33301 44 16 64s27.334 35.667 50.001 47
c15.333 10 34 15 56 15c14.667 0 28.667 -3 42 -9l33 -27c10 -8 17 -17.333 21 -28c10 -15.333 15 -33.333 15 -54c0 -14 -4 -31.333 -12 -52c-16 -32 -38.333 -52.333 -67 -61c-6.66699 -4 -17.334 -6 -32.001 -6c-20 0 -38.667 4.33301 -56 13zM396.003 -641.002
c-13.333 8 -23.665 15.168 -30.998 21.501s-14 13 -20 20s-10 15 -12 24s-3.66699 20.5 -5 34.5c0 20.667 5.5 41 16.5 61s28.167 36.333 51.5 49c13.333 10 30.333 15 51 15c16.667 0 32.667 -3.66699 48 -11c4.66699 -4 10 -8.16699 16 -12.5l17 -12.5
c2 -4 5.5 -8.66699 10.5 -14s8.5 -11.333 10.5 -18c8.66699 -13.333 13 -30.333 13 -51c0 -14 -4 -32.333 -12 -55c-6.66699 -14.667 -15.834 -27.334 -27.501 -38.001s-24.834 -18 -39.501 -22c-8.66699 -4 -20.667 -6 -36 -6c-17.333 0 -34.333 5 -51 15z
M-3.99609 8.99902l0.000976562 333h451v243c0 24.667 -10.667 37 -32 37c-12.667 0 -28.334 -4 -47.001 -12l252 200v-468h208v-333h-832z" />
    <glyph glyph-name="uniFB6A" unicode="&#x6a4;" horiz-adv-x="1304" arabic-form="isolated" 
d="M1015 450c0 66.667 -32.667 100 -98 100c-14 0 -27.167 -2.33301 -39.5 -7s-23.333 -11.834 -33 -21.501s-17.167 -20.667 -22.5 -33s-8 -25.166 -8 -38.499c0 -67.333 34.333 -101 103 -101c65.333 0 98 33.667 98 101zM692 1302
c18 8.66699 36.001 13.002 54.001 13.002s30 -2 36 -6c27.333 -8.66699 48.666 -28.334 63.999 -59.001c8.66699 -21.333 13 -39.333 13 -54c0 -21.333 -4.33301 -39.666 -13 -54.999c-2.66699 -6 -6 -11.5 -10 -16.5s-8 -9.16699 -12 -12.5
c-6 -4 -11.167 -8.66699 -15.5 -14s-9.83301 -10 -16.5 -14c-12.667 -6 -28 -9 -46 -9c-8.66699 0 -18.167 1.5 -28.5 4.5s-18.833 5.83301 -25.5 8.5c-20.667 12 -36.5 28.667 -47.5 50s-16.5 42.666 -16.5 63.999c0 25.333 5 44.666 15 57.999s26.333 27.333 49 42z
M1038 1302c17.333 8.66699 35.666 13.001 54.999 13.001c16.667 0 28.334 -2 35.001 -6c28 -8.66699 50 -28.334 66 -59.001c8.66699 -23.333 13 -41.333 13 -54c0 -10.667 -1.5 -20.667 -4.5 -30s-6.5 -17.666 -10.5 -24.999l-10 -15.5c-4 -6.33301 -8 -10.833 -12 -13.5
c-6.66699 -4 -12.167 -8.66699 -16.5 -14s-9.5 -10 -15.5 -14c-13.333 -6 -28.333 -9 -45 -9c-8.66699 0 -18 1.33301 -28 4s-19 5.66699 -27 9c-19.333 12 -34.833 28.667 -46.5 50s-17.5 42.666 -17.5 63.999c0 25.333 5.33301 45 16 59s26.667 27.667 48 41z
M176.001 161.003c0 51.333 -22.999 77.001 -68.999 77.001c-20.667 0 -46.334 -5 -77.001 -15l313 276v-525c8.66699 -47.333 29 -88 61 -122s76 -58.333 132 -73c27.333 -6 54.166 -10.833 80.499 -14.5s52.5 -5.5 78.5 -5.5c60 0 116.667 8.66699 170 26
c104 34 156 96.333 156 187v37h-380v463c0 45.333 7.33301 86.166 22 122.499s35.5 67.333 62.5 93s59.667 46 98 61s81.166 24.5 128.499 28.5c50.667 6 96.834 16 138.501 30s76.5 34 104.5 60v-931c-15.333 -148 -83.666 -249.333 -204.999 -304
c-93.333 -42 -192.666 -63 -297.999 -63c-14.667 0 -29.834 0.666992 -45.501 2s-31.5 2.33301 -47.5 3c-140 16 -242.333 53.333 -307 112c-66 58 -104.667 138 -116 240v235zM864.002 1604c18 8.66699 36.001 13.002 54.001 13.002s30 -2 36 -6
c27.333 -8.66699 48.666 -28.334 63.999 -59.001c8.66699 -21.333 13 -39.333 13 -54c0 -21.333 -4.33301 -39.666 -13 -54.999c-2.66699 -6 -6 -11.5 -10 -16.5s-8 -9.16699 -12 -12.5c-6 -4 -11.167 -8.66699 -15.5 -14s-9.83301 -10 -16.5 -14c-12.667 -6 -28 -9 -46 -9
c-8.66699 0 -18.167 1.5 -28.5 4.5s-18.833 5.83301 -25.5 8.5c-20.667 12 -36.5 28.667 -47.5 50s-16.5 42.666 -16.5 63.999c0 25.333 5 44.666 15 57.999s26.333 27.333 49 42z" />
    <glyph glyph-name="uniFB6B" unicode="&#x6a4;" horiz-adv-x="1329" arabic-form="final" 
d="M985 451c0 68 -32.667 102 -98 102c-14 0 -27.167 -2.83301 -39.5 -8.5s-23.333 -13.167 -33 -22.5s-17.167 -20 -22.5 -32s-8 -25 -8 -39c0 -68 34.333 -102 103 -102c65.333 0 98 34 98 102zM662 1302c18 8.66699 36.001 13.002 54.001 13.002s30 -2 36 -6
c27.333 -8.66699 48.666 -28.334 63.999 -59.001c8.66699 -21.333 13 -39.333 13 -54c0 -21.333 -4.33301 -39.666 -13 -54.999c-2.66699 -6 -6 -11.5 -10 -16.5s-8 -9.16699 -12 -12.5c-6 -4 -11.167 -8.66699 -15.5 -14s-9.83301 -10 -16.5 -14c-12.667 -6 -28 -9 -46 -9
c-8.66699 0 -18.167 1.5 -28.5 4.5s-18.833 5.83301 -25.5 8.5c-20.667 12 -36.5 28.667 -47.5 50s-16.5 42.666 -16.5 63.999c0 25.333 5 44.666 15 57.999s26.333 27.333 49 42zM1008 1302c17.333 8.66699 35.666 13.001 54.999 13.001c16.667 0 28.334 -2 35.001 -6
c28 -8.66699 50 -28.334 66 -59.001c8.66699 -23.333 13 -41.333 13 -54c0 -10.667 -1.5 -20.667 -4.5 -30s-6.5 -17.666 -10.5 -24.999l-10 -15.5c-4 -6.33301 -8 -10.833 -12 -13.5c-6.66699 -4 -12.167 -8.66699 -16.5 -14s-9.5 -10 -15.5 -14
c-13.333 -6 -28.333 -9 -45 -9c-8.66699 0 -18 1.33301 -28 4s-19 5.66699 -27 9c-19.333 12 -34.833 28.667 -46.5 50s-17.5 42.666 -17.5 63.999c0 25.333 5.33301 45 16 59s26.667 27.667 48 41zM146.001 163.003c0 50 -22.999 75 -68.999 75
c-20.667 0 -46.334 -4.66699 -77.001 -14l313 277v-524c8.66699 -48.667 29 -90 61 -124s76 -57.667 132 -71c26 -8 52.167 -13.667 78.5 -17s53.166 -5 80.499 -5c28.667 0 57.167 2.16699 85.5 6.5s56.5 11.5 84.5 21.5c104 32.667 156 94 156 184v37h-380v463
c0 46 7.33301 87.333 22 124s35.5 67.834 62.5 93.501s59.667 46.167 98 61.5s81.166 25 128.499 29c50.667 4 96.834 13.167 138.501 27.5s76.5 34.166 104.5 59.499v-525h172v-333h-172v-73c-15.333 -146.667 -83.666 -248 -204.999 -304
c-93.333 -42 -192.666 -63 -297.999 -63c-14.667 0 -29.834 0.666992 -45.501 2s-31.5 2.33301 -47.5 3c-140 16 -242.333 54 -307 114c-66 56.667 -104.667 136 -116 238v237zM833.002 1604c18 8.66699 36.001 13.002 54.001 13.002s30 -2 36 -6
c27.333 -8.66699 48.666 -28.334 63.999 -59.001c8.66699 -21.333 13 -39.333 13 -54c0 -21.333 -4.33301 -39.666 -13 -54.999c-2.66699 -6 -6 -11.5 -10 -16.5s-8 -9.16699 -12 -12.5c-6 -4 -11.167 -8.66699 -15.5 -14s-9.83301 -10 -16.5 -14c-12.667 -6 -28 -9 -46 -9
c-8.66699 0 -18.167 1.5 -28.5 4.5s-18.833 5.83301 -25.5 8.5c-20.667 12 -36.5 28.667 -47.5 50s-16.5 42.666 -16.5 63.999c0 25.333 5 44.666 15 57.999s26.333 27.333 49 42z" />
    <glyph glyph-name="uniFB6C" unicode="&#x6a4;" horiz-adv-x="698" arabic-form="initial" 
d="M420 786c0 60 -28.667 90 -86 90c-61.333 0 -92 -30 -92 -90c0 -58 34 -87 102 -87c50.667 0 76 29 76 87zM96 1551c16 8.66699 33.666 12.9971 52.999 12.9971c16 0 27.667 -2 35 -6c27.333 -9.33301 49.333 -29.666 66 -60.999c8.66699 -23.333 13 -40.333 13 -51
s-1.33301 -21 -4 -31s-5.66699 -19 -9 -27l-11.5 -14.5c-4.33301 -5.66699 -8.5 -10.5 -12.5 -14.5l-15 -12.5l-15 -12.5c-12.667 -6.66699 -28.334 -10 -47.001 -10c-7.33301 0 -16.166 1.5 -26.499 4.5s-19.166 6.16699 -26.499 9.5c-18.667 12 -34 28.5 -46 49.5
s-18 42.5 -18 64.5c0 12.667 1.16699 23.834 3.5 33.501s5.83301 17.834 10.5 24.501s11.167 13.167 19.5 19.5s18.5 13.5 30.5 21.5zM441.999 1551c17.333 8.66699 35.666 13 54.999 13c15.333 0 27 -2 35 -6c28 -9.33301 49.667 -29.666 65 -60.999
c8.66699 -21.333 13 -38.333 13 -51c0 -10.667 -1.66699 -21 -5 -31l-9 -27c-3.33301 -4 -6.83301 -8.83301 -10.5 -14.5s-7.5 -10.5 -11.5 -14.5c-6.66699 -4 -12.167 -8.16699 -16.5 -12.5s-9.5 -8.5 -15.5 -12.5c-13.333 -6.66699 -28.333 -10 -45 -10
c-8.66699 0 -18.167 1.5 -28.5 4.5s-19.166 6.16699 -26.499 9.5c-19.333 12 -34.833 28.5 -46.5 49.5s-17.5 42.5 -17.5 64.5c0 25.333 5 44.666 15 57.999s26.333 27 49 41zM87.999 497.997l0.000976562 337.001c0 59.333 22.333 111.666 67 156.999
c44.667 48.667 112 77 202 85c91.333 8.66699 167.666 42.667 228.999 102v-1170h-588v333h409v156h-319zM263 1826c18 8.66699 36.001 13.002 54.001 13.002s30 -2 36 -6c27.333 -8.66699 48.666 -28.334 63.999 -59.001c8.66699 -21.333 13 -39.333 13 -54
c0 -21.333 -4.33301 -39.666 -13 -54.999c-2.66699 -6 -6 -11.5 -10 -16.5s-8 -9.16699 -12 -12.5c-6 -4 -11.167 -8.66699 -15.5 -14s-9.83301 -10 -16.5 -14c-12.667 -6 -28 -9 -46 -9c-8.66699 0 -18.167 1.5 -28.5 4.5s-18.833 5.83301 -25.5 8.5
c-20.667 12 -36.5 28.667 -47.5 50s-16.5 42.666 -16.5 63.999c0 25.333 5 44.666 15 57.999s26.333 27.333 49 42z" />
    <glyph glyph-name="uniFB6D" unicode="&#x6a4;" horiz-adv-x="749" arabic-form="medial" 
d="M466 668c-4.66699 59.333 -36.668 89 -96.001 89c-60 0 -90 -29.667 -90 -89s33.333 -89 100 -89c52.667 0 81.334 29.667 86.001 89zM152.999 1324c16.667 9.33301 34.666 14 53.999 14c18 0 30.667 -1.66699 38 -5c27.333 -10 48.666 -30 63.999 -60
c8.66699 -22 13 -40 13 -54c0 -22 -4.33301 -40.333 -13 -55c-2.66699 -6 -6.16699 -11.833 -10.5 -17.5s-8.5 -9.5 -12.5 -11.5c-5.33301 -6 -10.5 -11.167 -15.5 -15.5s-10.5 -8.83301 -16.5 -13.5c-13.333 -6.66699 -29 -10 -47 -10
c-7.33301 0 -16.166 1.66699 -26.499 5s-19.5 7 -27.5 11c-20 11.333 -35.5 27.5 -46.5 48.5s-16.5 42.5 -16.5 64.5c0 25.333 4.83301 44.833 14.5 58.5s25.834 27.167 48.501 40.5zM500.998 1324c15.333 9.33301 33.6709 14 55.0039 14c16 0 27.667 -1.66699 35 -5
c27.333 -10 49.333 -30 66 -60c7.33301 -23.333 11 -41.333 11 -54c0 -10.667 -1.33301 -20.834 -4 -30.501s-6 -17.834 -10 -24.501c-2 -6 -5 -11.833 -9 -17.5s-8.33301 -9.5 -13 -11.5l-16 -15.5c-4.66699 -4.33301 -10.334 -8.83301 -17.001 -13.5
c-12.667 -6.66699 -27 -10 -43 -10c-9.33301 0 -18.833 1.66699 -28.5 5s-18.5 7 -26.5 11c-20.667 11.333 -36.667 27.5 -48 48.5s-17 42.5 -17 64.5c0 12.667 1.16699 23.834 3.5 33.501s6.16602 18.334 11.499 26.001s12.166 14.5 20.499 20.5s18.166 12.333 29.499 19z
M-7.99707 9v332.999h300v64c-60.667 21.333 -106.667 52.333 -138 93c-28.667 37.333 -43 83.666 -43 138.999v14c5.33301 127.333 51 214 137 260c48.667 25.333 96.667 38 144 38c20 0 41 -2.66699 63 -8s43.667 -12.666 65 -21.999
c46.667 -20.667 81.667 -52.334 105 -95.001c22 -41.333 33 -91.666 33 -150.999v-10c-0.666992 -64 -16.5 -116.667 -47.5 -158s-75.833 -73 -134.5 -95c0 -9.33301 -0.333008 -20.666 -1 -33.999s-1 -25 -1 -35h293v-333h-775zM330.003 1628
c18 8.66699 36.001 13.002 54.001 13.002s30 -2 36 -6c27.333 -8.66699 48.666 -28.334 63.999 -59.001c8.66699 -21.333 13 -39.333 13 -54c0 -21.333 -4.33301 -39.666 -13 -54.999c-2.66699 -6 -6 -11.5 -10 -16.5s-8 -9.16699 -12 -12.5
c-6 -4 -11.167 -8.66699 -15.5 -14s-9.83301 -10 -16.5 -14c-12.667 -6 -28 -9 -46 -9c-8.66699 0 -18.167 1.5 -28.5 4.5s-18.833 5.83301 -25.5 8.5c-20.667 12 -36.5 28.667 -47.5 50s-16.5 42.666 -16.5 63.999c0 25.333 5 44.666 15 57.999s26.333 27.333 49 42z" />
    <glyph glyph-name="uniFB7A" unicode="&#x686;" horiz-adv-x="1167" arabic-form="isolated" 
d="M604 -379c-22.667 13.333 -38.834 26.833 -48.501 40.5s-14.5 32.5 -14.5 56.5c0 23.333 5 44.833 15 64.5s26 35.5 48 47.5c16 10 34 15 54 15c18 0 33.333 -3 46 -9l30 -26c10.667 -8 18.334 -17.333 23.001 -28c10.667 -15.333 16 -34.333 16 -57
c0 -12 -5.33301 -28.667 -16 -50c-15.333 -32 -37 -52 -65 -60c-8 -4.66699 -19.333 -7 -34 -7c-19.333 0 -37.333 4.33301 -54 13zM952 -379c-23.333 13.333 -40.002 26.833 -50.002 40.5s-15 32.5 -15 56.5c0 23.333 5 44.833 15 64.5s26.667 35.5 50 47.5
c14 10 32 15 54 15c6.66699 0 14.334 -1 23.001 -3s15.667 -4 21 -6c4.66699 -4 10.167 -8.33301 16.5 -13s11.5 -9 15.5 -13l13 -13.5c4.66699 -5 7.33398 -9.83301 8.00098 -14.5c10 -15.333 15 -34.333 15 -57c0 -12 -3.33301 -28.667 -10 -50
c-16 -32 -38.667 -52 -68 -60c-8 -4.66699 -19.333 -7 -34 -7c-21.333 0 -39.333 4.33301 -54 13zM775.998 -642c-14.667 8.66699 -27.333 17.3311 -38 25.998c-8.66699 10.667 -15.167 20.334 -19.5 29.001s-6.5 23.667 -6.5 45c0 20 5.33301 40 16 60s27.667 37 51 51
c15.333 8.66699 32.333 13 51 13c8 0 16.5 -1 25.5 -3s16.5 -5 22.5 -9c6 -2 11.833 -5.66699 17.5 -11l14.5 -14c4 -3.33301 8.16699 -7.5 12.5 -12.5s6.83301 -10.5 7.5 -16.5c10.667 -14.667 16 -32 16 -52c0 -13.333 -4.66699 -32.333 -14 -57
c-8 -13.333 -17.333 -25.166 -28 -35.499s-22.667 -17.5 -36 -21.5c-10 -5.33301 -22.667 -8 -38 -8c-16.667 0 -34.667 5.33301 -54 16zM125.999 7.99707l-0.000976562 334.003h751v291c-35.333 -30 -72.333 -55.333 -111 -76s-79.334 -36 -122.001 -46
c-42 -10.667 -82.167 -18 -120.5 -22s-75.5 -6 -111.5 -6c-71.333 4 -132.666 21.667 -183.999 53c-51.333 32.667 -83 76 -95 130c-0.666992 9.33301 -1.66699 17.833 -3 25.5s-2 15.834 -2 24.501c0 38.667 9 81.334 27 128.001c27.333 64 77.333 98 150 102h11
c66.667 0 101.334 -37 104.001 -111v-4c0 -38.667 -11 -66.334 -33 -83.001c-18 -13.333 -43.333 -20 -76 -20c-8.66699 0 -18 0.333008 -28 1c-8.66699 -2 -15.667 -5.66699 -21 -11s-8 -11.666 -8 -18.999c0 -12.667 6.66699 -29.334 20 -50.001
c24.667 -40.667 83 -61 175 -61h32c112.667 6 222.667 70.333 330 193c108.667 123.333 186.667 195.666 234 216.999v-989h-740v-154c7.33301 -44.667 21 -86.834 41 -126.501s47 -76.834 81 -111.501c38.667 -40 58 -81 58 -123c0 -32 -11 -66.667 -33 -104
c-17.333 -26.667 -41.833 -47.5 -73.5 -62.5s-69.167 -22.5 -112.5 -22.5c-36 0 -78.333 5.33301 -127 16c112.667 37.333 169 79.666 169 126.999c0 25.333 -15 51.333 -45 78c-90 80.667 -135 212 -135 394z" />
    <glyph glyph-name="uniFB7B" unicode="&#x686;" horiz-adv-x="1205" arabic-form="final" 
d="M606 -379c-22.667 13.333 -38.834 26.833 -48.501 40.5s-14.5 32.5 -14.5 56.5c0 23.333 5 44.833 15 64.5s26 35.5 48 47.5c16 10 34 15 54 15c18 0 33.333 -3 46 -9l30 -26c10.667 -8 18.334 -17.333 23.001 -28c10.667 -15.333 16 -34.333 16 -57
c0 -12 -5.33301 -28.667 -16 -50c-15.333 -32 -37 -52 -65 -60c-8 -4.66699 -19.333 -7 -34 -7c-19.333 0 -37.333 4.33301 -54 13zM954 -379c-23.333 13.333 -40.002 26.833 -50.002 40.5s-15 32.5 -15 56.5c0 23.333 5 44.833 15 64.5s26.667 35.5 50 47.5
c14 10 32 15 54 15c6.66699 0 14.334 -1 23.001 -3s15.667 -4 21 -6c4.66699 -4 10.167 -8.33301 16.5 -13s11.5 -9 15.5 -13l13 -13.5c4.66699 -5 7.33398 -9.83301 8.00098 -14.5c10 -15.333 15 -34.333 15 -57c0 -12 -3.33301 -28.667 -10 -50
c-16 -32 -38.667 -52 -68 -60c-8 -4.66699 -19.333 -7 -34 -7c-21.333 0 -39.333 4.33301 -54 13zM777.998 -642c-14.667 8.66699 -27.333 17.3311 -38 25.998c-8.66699 10.667 -15.167 20.334 -19.5 29.001s-6.5 23.667 -6.5 45c0 20 5.33301 40 16 60s27.667 37 51 51
c15.333 8.66699 32.333 13 51 13c8 0 16.5 -1 25.5 -3s16.5 -5 22.5 -9c6 -2 11.833 -5.66699 17.5 -11l14.5 -14c4 -3.33301 8.16699 -7.5 12.5 -12.5s6.83301 -10.5 7.5 -16.5c10.667 -14.667 16 -32 16 -52c0 -13.333 -4.66699 -32.333 -14 -57
c-8 -13.333 -17.333 -25.166 -28 -35.499s-22.667 -17.5 -36 -21.5c-10 -5.33301 -22.667 -8 -38 -8c-16.667 0 -34.667 5.33301 -54 16zM127.999 7.99707l-0.000976562 334.003h751v291c-35.333 -30 -72.333 -55.333 -111 -76s-79.334 -36 -122.001 -46
c-42 -10.667 -82.167 -18 -120.5 -22s-75.5 -6 -111.5 -6c-71.333 4 -132.666 21.667 -183.999 53c-51.333 32.667 -83 76 -95 130c-0.666992 9.33301 -1.66699 17.833 -3 25.5s-2 15.834 -2 24.501c0 38.667 9 81.334 27 128.001c27.333 64 77.333 98 150 102h11
c66.667 0 101.334 -37 104.001 -111v-4c0 -38.667 -11 -66.334 -33 -83.001c-18 -13.333 -43.333 -20 -76 -20c-8.66699 0 -18 0.333008 -28 1c-8.66699 -2 -15.667 -5.66699 -21 -11s-8 -11.666 -8 -18.999c0 -12.667 6.66699 -29.334 20 -50.001
c24.667 -40.667 83 -61 175 -61h32c112.667 6 222.667 70.333 330 193c108.667 123.333 186.667 195.666 234 216.999v-656h178v-333h-918v-154c7.33301 -44.667 21 -86.834 41 -126.501s47 -76.834 81 -111.501c38.667 -40 58 -81 58 -123c0 -32 -11 -66.667 -33 -104
c-17.333 -26.667 -41.833 -47.5 -73.5 -62.5s-69.167 -22.5 -112.5 -22.5c-36 0 -78.333 5.33301 -127 16c112.667 37.333 169 79.666 169 126.999c0 25.333 -15 51.333 -45 78c-90 80.667 -135 212 -135 394z" />
    <glyph glyph-name="uniFB7C" unicode="&#x686;" horiz-adv-x="1179" arabic-form="initial" 
d="M270 -378c-24 12.667 -40.833 25.832 -50.5 39.499s-14.5 33.167 -14.5 58.5c0 22.667 5.5 44 16.5 64s27.167 35.667 48.5 47c16.667 10 34.667 15 54 15c16.667 0 32.334 -3 47.001 -9l30 -27c10 -8 17.667 -17.333 23 -28c9.33301 -15.333 14 -33.333 14 -54
c0 -13.333 -4.66699 -30.666 -14 -51.999c-15.333 -32 -37 -52.333 -65 -61c-6.66699 -4 -18.334 -6 -35.001 -6c-19.333 0 -37.333 4.33301 -54 13zM616 -378.002c-22.667 12.667 -39.168 26.167 -49.501 40.5s-15.5 33.5 -15.5 57.5c0 22.667 5.33301 44 16 64
s27 35.667 49 47c16.667 10 35.334 15 56.001 15c15.333 0 30 -3 44 -9l30 -27c10.667 -8 18 -17.333 22 -28c11.333 -15.333 17 -33.333 17 -54c0 -14 -4.33301 -31.333 -13 -52c-15.333 -32 -38 -52.333 -68 -61c-6 -4 -16.667 -6 -32 -6c-19.333 0 -38 4.33301 -56 13z
M442.999 -641.002l-30.001 21.501c-8.66699 6.33301 -15.667 13 -21 20s-9.33301 15 -12 24s-4 20.5 -4 34.5c0 20.667 5.5 41 16.5 61s28.5 36.333 52.5 49c12.667 10 30 15 52 15c15.333 0 31 -3.66699 47 -11l32 -25c8.66699 -6.66699 15.334 -17.334 20.001 -32.001
c10.667 -13.333 16 -30.333 16 -51c0 -14 -4.33301 -32.333 -13 -55c-16.667 -32 -39 -52 -67 -60c-8 -4 -19.667 -6 -35 -6c-19.333 0 -37.333 5 -54 15zM-6.00195 8.99902l0.000976562 332.999h902v291c-36 -30 -73.333 -55.333 -112 -76s-78.667 -36 -120 -46
c-42 -10.667 -82.167 -18 -120.5 -22s-75.5 -6 -111.5 -6c-72.667 4 -134.334 21.667 -185.001 53c-52 32.667 -83 76 -93 130c-2 9.33301 -3.5 17.833 -4.5 25.5s-1.5 15.834 -1.5 24.501c0 38.667 8.66699 81.334 26 128.001c27.333 64 77.333 98 150 102h11
c67.333 0 102 -37 104 -111v-12c0 -34.667 -10 -59.667 -30 -75c-18.667 -13.333 -45 -20 -79 -20c-9.33301 0 -19 0.333008 -29 1c-8 -2 -14.333 -5.66699 -19 -11s-7 -11.666 -7 -18.999c0 -12.667 6.33301 -29.334 19 -50.001c24 -40.667 81.667 -61 173 -61h33
c112 6 222.667 70.333 332 193c108.667 123.333 186.667 195.666 234 216.999v-989h-1072z" />
    <glyph glyph-name="uniFB7D" unicode="&#x686;" horiz-adv-x="1230" arabic-form="medial" 
d="M392 -378c-25.333 12.667 -42.666 25.832 -51.999 39.499s-14 33.167 -14 58.5c0 22.667 5.16699 44 15.5 64s27.166 35.667 50.499 47c14.667 10 31.667 15 51 15c18 0 33.333 -3 46 -9l33 -27c10 -8 17.667 -17.333 23 -28c8.66699 -15.333 13 -33.333 13 -54
c0 -13.333 -4.33301 -30.666 -13 -51.999c-15.333 -32 -37.333 -52.333 -66 -61c-6 -4 -18 -6 -36 -6c-17.333 0 -34.333 4.33301 -51 13zM737 -378.002c-23.333 12.667 -40.165 26.167 -50.498 40.5s-15.5 33.5 -15.5 57.5c0 22.667 5.16699 44 15.5 64
s27.166 35.667 50.499 47c15.333 10 33.666 15 54.999 15c15.333 0 30.333 -3 45 -9l31 -27c9.33301 -8 17 -17.333 23 -28c8.66699 -15.333 13 -33.333 13 -54c0 -14 -4 -31.333 -12 -52c-16 -32 -37.667 -52.333 -65 -61c-8 -4 -19.667 -6 -35 -6
c-18.667 0 -37 4.33301 -55 13zM564.001 -641.002c-12.667 8 -22.834 15.168 -30.501 21.501s-14 13 -19 20s-9 15 -12 24s-4.83301 20.5 -5.5 34.5c0 20.667 5.5 41 16.5 61s27.833 36.333 50.5 49c15.333 10 33.333 15 54 15c15.333 0 30.666 -3.66699 45.999 -11
c4.66699 -4 10 -8.16699 16 -12.5s11.333 -8.5 16 -12.5c4 -4 8 -8.66699 12 -14s7.33301 -11.333 10 -18c10.667 -13.333 16 -30.333 16 -51c0 -14 -5 -32.333 -15 -55c-7.33301 -14.667 -16.666 -27.334 -27.999 -38.001s-24.333 -18 -39 -22
c-7.33301 -4 -18.666 -6 -33.999 -6c-18.667 0 -36.667 5 -54 15zM-7.99902 341.999l902.001 -0.000976562v291c-36 -30 -73.333 -55.333 -112 -76s-78.667 -36 -120 -46c-42 -10.667 -82.167 -18 -120.5 -22s-75.5 -6 -111.5 -6c-72.667 4 -134.334 21.667 -185.001 53
c-52 32.667 -83 76 -93 130c-2 9.33301 -3.5 17.833 -4.5 25.5s-1.5 15.834 -1.5 24.501c0 38.667 8.66699 81.334 26 128.001c27.333 64 77.333 98 150 102h11c67.333 0 102 -37 104 -111v-12c0 -34.667 -10 -59.667 -30 -75c-18.667 -13.333 -45 -20 -79 -20
c-9.33301 0 -19 0.333008 -29 1c-8 -2 -14.333 -5.66699 -19 -11s-7 -11.666 -7 -18.999c0 -12.667 6.33301 -29.334 19 -50.001c24 -40.667 81.667 -61 173 -61h33c112 6 222.667 70.333 332 193c108.667 123.333 186.667 195.666 234 216.999v-656h178v-333h-1250v333z
" />
    <glyph glyph-name="uniFB8A" unicode="&#x698;" horiz-adv-x="614" arabic-form="isolated" 
d="M66 1282c15.333 9.33301 33.001 13.998 53.001 13.998c16.667 0 29 -2.66699 37 -8c26.667 -8 48 -28 64 -60c8.66699 -21.333 13 -39.333 13 -54c0 -20 -4.33301 -37.333 -13 -52c-6.66699 -13.333 -14.667 -23 -24 -29c-6.66699 -6 -12.167 -11.167 -16.5 -15.5
l-13.5 -13.5c-14.667 -6.66699 -30.334 -10 -47.001 -10c-20 0 -37.667 5 -53 15c-20.667 12 -36.5 28.5 -47.5 49.5s-16.5 41.5 -16.5 61.5c0 14.667 1 26.834 3 36.501s5.5 17.834 10.5 24.501s11.667 13.167 20 19.5s18.5 13.5 30.5 21.5zM412.001 1282
c14.667 9.33301 33 13.999 55 13.999c15.333 0 27 -2.66699 35 -8c26 -8 47.333 -28 64 -60c9.33301 -20 14 -38 14 -54c0 -20 -5 -37.333 -15 -52l-10 -18.5c-3.33301 -6.33301 -8 -9.83301 -14 -10.5c-4.66699 -6 -9.66699 -11.167 -15 -15.5s-10.333 -8.83301 -15 -13.5
c-12.667 -6.66699 -27.334 -10 -44.001 -10c-10.667 0 -20.834 1.66699 -30.501 5s-17.834 6.66602 -24.501 9.99902c-21.333 12 -37.666 28.5 -48.999 49.5s-17 41.5 -17 61.5c0 14.667 1.33301 26.834 4 36.501s6.83398 17.834 12.501 24.501s12.334 13.167 20.001 19.5
s17.5 13.5 29.5 21.5zM239.001 1548c17.333 10.667 35.001 16.002 53.001 16.002c14 0 26.333 -2.33301 37 -7c28 -8.66699 49.667 -29 65 -61c8.66699 -22.667 13 -40.334 13 -53.001c0 -21.333 -5 -39.666 -15 -54.999l-9.5 -16c-3.66699 -6 -7.5 -11 -11.5 -15l-31 -24
c-14 -6.66699 -30 -10 -48 -10c-20 0 -37.667 4.33301 -53 13c-20.667 11.333 -36.834 27.666 -48.501 48.999s-17.5 41.666 -17.5 60.999c0 14.667 1.33301 26.834 4 36.501s6.5 18.167 11.5 25.5s11.5 14.166 19.5 20.499s18.333 12.833 31 19.5zM287.002 727.999l189 134
v-520l3 -333l-3 -224c-4.66699 -105.333 -47 -182 -127 -230c-64 -38.667 -134.667 -58 -212 -58c-19.333 0 -38.666 1.66699 -57.999 5c-46 4.66699 -75.667 10 -89 16c-5.33301 2 -8 4.33301 -8 7c0 3.33301 8 6.33301 24 9c55.333 11.333 113.666 36.333 174.999 75
c28 19.333 51.167 44 69.5 74s30.5 63 36.5 99v946z" />
    <glyph glyph-name="uniFB8B" unicode="&#x698;" horiz-adv-x="707" arabic-form="final" 
d="M470 1280c17.333 9.33301 35.668 14.0049 55.001 14.0049c16 0 27.667 -2 35 -6c28 -8.66699 50 -29 66 -61c8.66699 -20.667 13 -38.667 13 -54c0 -20.667 -5 -38.667 -15 -54c-2.66699 -4.66699 -6 -10.167 -10 -16.5s-8 -10.5 -12 -12.5
c-4.66699 -4.66699 -9.66699 -9.33398 -15 -14.001s-10.333 -9.33398 -15 -14.001c-14.667 -6.66699 -30.334 -10 -47.001 -10c-7.33301 0 -16.333 1.66699 -27 5s-20 7 -28 11c-19.333 10.667 -34.833 26.667 -46.5 48s-17.5 42.333 -17.5 63c0 14 1.5 25.667 4.5 35
s6.83301 17.666 11.5 24.999s11 14.166 19 20.499s17.667 13.166 29 20.499zM124.002 1280c18 9.33301 36.6689 14.0049 56.002 14.0049c16 0 27.333 -2 34 -6c27.333 -8.66699 48.666 -29 63.999 -61c10.667 -22 16 -40 16 -54c0 -20.667 -5.33301 -38.667 -16 -54
c-4.66699 -12.667 -12.334 -22.334 -23.001 -29.001c-5.33301 -4.66699 -10.166 -9.33398 -14.499 -14.001s-9.83301 -9.33398 -16.5 -14.001c-12.667 -6.66699 -27.334 -10 -44.001 -10c-10 0 -19.833 1.16699 -29.5 3.5s-18.5 6.5 -26.5 12.5
c-20.667 10.667 -36.5 26.667 -47.5 48s-16.5 42.333 -16.5 63c0 14 1.16699 25.667 3.5 35s6 17.666 11 24.999s11.833 14.166 20.5 20.499zM297.004 1548.01c18 10 36.333 14.998 55 14.998c16 0 27.667 -2 35 -6c28 -10 50 -30.333 66 -61c10 -23.333 15 -41.333 15 -54
c0 -21.333 -5 -40 -15 -56l-12 -16c-4 -5.33301 -8 -10 -12 -14l-30 -26c-14 -6 -29.667 -9 -47 -9c-21.333 0 -38.666 4.33301 -51.999 13c-22.667 12 -39.667 28.333 -51 49s-17 40.667 -17 60c0 16 1.33301 28.833 4 38.5s6.5 17.834 11.5 24.501
s11.667 13.334 20 20.001s18.166 14 29.499 22zM290.004 728.008l189.996 134.002v-520h247v-333h-257v-237c-4.66699 -49.333 -17.667 -93 -39 -131s-50 -69 -86 -93c-29.333 -21.333 -61.666 -37 -96.999 -47s-72.666 -15 -111.999 -15h-26
c-9.33301 0 -18.666 0.666992 -27.999 2c-61.333 6 -92 12.333 -92 19c0 1.33301 4.33301 3.16602 13 5.49902s18.334 5.16602 29.001 8.49902c33.333 4.66699 66 13.5 98 26.5s60 29.833 84 50.5c49.333 36.667 74 89 74 157v15z" />
    <glyph glyph-name="uniFB8E" unicode="&#x6a9;" horiz-adv-x="2230" arabic-form="isolated" 
d="M710 604v-3h-164c-0.666992 11.333 -1 22.666 -1 33.999c0 80 12 171.667 36 275c26 120 81.667 235.333 167 346c44.667 56 98.667 102.667 162 140s134.666 65.333 213.999 84c33.333 7.33301 68.666 13.5 105.999 18.5s72.333 7.5 105 7.5c42 0 85.333 -4 130 -12
s86.334 -17.667 125.001 -29c73.333 -24 139.166 -56.167 197.499 -96.5s106.5 -89.5 144.5 -147.5c81.333 -115.333 125 -216.333 131 -303l-176 2c-12 72.667 -46 146.667 -102 222c-28 37.333 -64.5 70.5 -109.5 99.5s-94.833 53.167 -149.5 72.5
c-31.333 8.66699 -63.666 15.834 -96.999 21.501s-67 8.5 -101 8.5c-26 0 -53 -1.66699 -81 -5s-55.667 -8.33301 -83 -15c-61.333 -13.333 -117.166 -34.833 -167.499 -64.5s-92.833 -66.167 -127.5 -109.5c-70 -86.667 -114.333 -173.667 -133 -261
c-5.33301 -29.333 -10 -60.333 -14 -93h1374v-787h-1920v396c0 54 -19.333 89.667 -58 107l112 119.5l112 120.5v-410h1571v262h-1203z" />
    <glyph glyph-name="uniFB8F" unicode="&#x6a9;" horiz-adv-x="2219" arabic-form="final" 
d="M678 604v-3h-164c-0.666992 11.333 -1 22.666 -1 33.999c0 80 12 171.667 36 275c26 120 81.667 235.333 167 346c44.667 56 98.667 102.667 162 140s134.666 65.333 213.999 84c33.333 7.33301 68.666 13.5 105.999 18.5s72.333 7.5 105 7.5c42 0 85.333 -4 130 -12
s86.334 -17.667 125.001 -29c73.333 -24 139.166 -56.167 197.499 -96.5s106.5 -89.5 144.5 -147.5c81.333 -115.333 125 -216.333 131 -303l-176 2c-12 72.667 -46 146.667 -102 222c-28 37.333 -64.5 70.5 -109.5 99.5s-94.833 53.167 -149.5 72.5
c-31.333 8.66699 -63.666 15.834 -96.999 21.501s-67 8.5 -101 8.5c-26 0 -53 -1.66699 -81 -5s-55.667 -8.33301 -83 -15c-61.333 -13.333 -117.166 -34.833 -167.499 -64.5s-92.833 -66.167 -127.5 -109.5c-70 -86.667 -114.333 -173.667 -133 -261
c-5.33301 -29.333 -10 -60.333 -14 -93h1374v-454h165v-333h-2085v396c0 54 -19.333 89.667 -58 107l112 119.5l112 120.5v-410h1571v262h-1203z" />
    <glyph glyph-name="uniFB90" unicode="&#x6a9;" horiz-adv-x="1463" arabic-form="initial" 
d="M1330 9l-1354 0.00195312v333h1169v262h-960c3.33301 201.333 60.333 351.333 171 450c55.333 48 115.666 85.333 180.999 112s133 42 203 46c7.33301 0.666992 16 1 26 1h24c61.333 0 118 -5 170 -15s99.333 -26.667 142 -50
c110.667 -62.667 188.667 -139.334 234 -230.001h-210c-16 21.333 -39.5 40.666 -70.5 57.999s-64.5 32 -100.5 44c-60 12.667 -116.333 19 -169 19c-36 0 -71.667 -3.16699 -107 -9.5s-68 -15.5 -98 -27.5c-54 -22 -97 -50.167 -129 -84.5s-52.333 -74.833 -61 -121.5h939
v-787z" />
    <glyph glyph-name="uniFB91" unicode="&#x6a9;" horiz-adv-x="1517" arabic-form="medial" 
d="M1330 342l224.001 0.00195312v-333h-1578v333h1169v262h-960c3.33301 201.333 60.333 351.333 171 450c55.333 48 115.666 85.333 180.999 112s133 42 203 46c7.33301 0.666992 16 1 26 1h24c61.333 0 118 -5 170 -15s99.333 -26.667 142 -50
c110.667 -62.667 188.667 -139.334 234 -230.001h-210c-16 21.333 -39.5 40.666 -70.5 57.999s-64.5 32 -100.5 44c-60 12.667 -116.333 19 -169 19c-36 0 -71.667 -3.16699 -107 -9.5s-68 -15.5 -98 -27.5c-54 -22 -97 -50.167 -129 -84.5s-52.333 -74.833 -61 -121.5h939
v-454z" />
    <glyph glyph-name="uniFB92" unicode="&#x6af;" horiz-adv-x="2230" arabic-form="isolated" 
d="M1887 920c-12 72.667 -46 146.667 -102 222c-28 37.333 -64.5 70.5 -109.5 99.5s-94.833 53.167 -149.5 72.5c-31.333 8.66699 -63.666 15.834 -96.999 21.501s-67 8.5 -101 8.5c-26 0 -53 -1.66699 -81 -5s-55.667 -8.33301 -83 -15
c-61.333 -13.333 -117.166 -34.833 -167.499 -64.5s-92.833 -66.167 -127.5 -109.5c-70 -86.667 -114.333 -173.667 -133 -261c-15.333 -84.667 -24 -180.667 -26 -288h-164c-0.666992 11.333 -1 22.666 -1 33.999c0 80 12 171.667 36 275c26 120 81.667 235.333 167 346
c44.667 56 98.667 102.667 162 140s134.666 65.333 213.999 84c33.333 7.33301 68.666 13.5 105.999 18.5s72.333 7.5 105 7.5c42 0 85.333 -4 130 -12s86.334 -17.667 125.001 -29c73.333 -24 139.166 -56.167 197.499 -96.5s106.5 -89.5 144.5 -147.5
c81.333 -115.333 125 -216.333 131 -303zM1913 342l-0.00195312 261.999h-1063c2.66699 100 13 186.333 31 259s44 130.334 78 173.001c36 44 74 78.833 114 104.5s83.333 43.5 130 53.5c40.667 8 82.334 12 125.001 12c42 0 82.667 -4.66699 122 -14
c38.667 -10 74 -24 106 -42s60.333 -40 85 -66c25.333 -26 46 -52.833 62 -80.5s27.333 -56.167 34 -85.5h-211c-12 21.333 -30.5 40.333 -55.5 57s-53.5 28.667 -85.5 36c-25.333 6.66699 -49.666 10 -72.999 10c-43.333 0 -89.333 -11.333 -138 -34
c-70.667 -35.333 -110 -99 -118 -191h1040v-787h-1920v396c0 54 -19.333 89.667 -58 107l112 119.5l112 120.5v-410h1571z" />
    <glyph glyph-name="uniFB93" unicode="&#x6af;" horiz-adv-x="2219" arabic-form="final" 
d="M1855 920c-12 72.667 -46 146.667 -102 222c-28 37.333 -64.5 70.5 -109.5 99.5s-94.833 53.167 -149.5 72.5c-31.333 8.66699 -63.666 15.834 -96.999 21.501s-67 8.5 -101 8.5c-26 0 -53 -1.66699 -81 -5s-55.667 -8.33301 -83 -15
c-61.333 -13.333 -117.166 -34.833 -167.499 -64.5s-92.833 -66.167 -127.5 -109.5c-70 -86.667 -114.333 -173.667 -133 -261c-15.333 -84.667 -24 -180.667 -26 -288h-164c-0.666992 11.333 -1 22.666 -1 33.999c0 80 12 171.667 36 275c26 120 81.667 235.333 167 346
c44.667 56 98.667 102.667 162 140s134.666 65.333 213.999 84c33.333 7.33301 68.666 13.5 105.999 18.5s72.333 7.5 105 7.5c42 0 85.333 -4 130 -12s86.334 -17.667 125.001 -29c73.333 -24 139.166 -56.167 197.499 -96.5s106.5 -89.5 144.5 -147.5
c81.333 -115.333 125 -216.333 131 -303zM2064 342l164.998 -0.000976562v-333h-2085v396c0 54 -19.333 89.667 -58 107l112 119.5l112 120.5v-410h1571v262h-1063c2.66699 100 13 186.333 31 259s44 130.334 78 173.001c36 44 74 78.833 114 104.5s83.333 43.5 130 53.5
c40.667 8 82.334 12 125.001 12c42 0 82.667 -4.66699 122 -14c38.667 -10 74 -24 106 -42s60.333 -40 85 -66c25.333 -26 46 -52.833 62 -80.5s27.333 -56.167 34 -85.5h-211c-12 21.333 -30.5 40.333 -55.5 57s-53.5 28.667 -85.5 36
c-25.333 6.66699 -49.666 10 -72.999 10c-43.333 0 -89.333 -11.333 -138 -34c-70.667 -35.333 -110 -99 -118 -191h1040v-454z" />
    <glyph glyph-name="uniFB94" unicode="&#x6af;" horiz-adv-x="1863" arabic-form="initial" 
d="M1525 920c-12.667 72.667 -47 146.667 -103 222c-27.333 37.333 -63.5 70.5 -108.5 99.5s-94.833 53.167 -149.5 72.5c-32 8.66699 -64.833 15.834 -98.5 21.501s-66.5 8.5 -98.5 8.5c-27.333 0 -55 -1.66699 -83 -5s-55.333 -8.33301 -82 -15
c-62 -13.333 -118.167 -34.833 -168.5 -64.5s-92.833 -66.167 -127.5 -109.5c-72 -86.667 -115.333 -173.667 -130 -261c-17.333 -84.667 -27 -180.667 -29 -288h-163c-0.666992 11.333 -1 23 -1 35c0 79.333 11.667 170.666 35 273.999c26 120 82 235.333 168 346
c42.667 56 95.834 102.667 159.501 140s135.5 65.333 215.5 84c33.333 7.33301 68.666 13.5 105.999 18.5s72.333 7.5 105 7.5c42.667 0 86.167 -4 130.5 -12s86.166 -17.667 125.499 -29c72.667 -24 137.834 -56.167 195.501 -96.5s106.5 -89.5 146.5 -147.5
c80.667 -115.333 124 -216.333 130 -303zM-24 9v332.999h1574v262h-1062c2 100 12 186.333 30 259s44 130.334 78 173.001c36 44 74 78.833 114 104.5s83.333 43.5 130 53.5c42.667 8 84.334 12 125.001 12c42 0 83.667 -4.66699 125 -14c36.667 -10 71 -24 103 -42
s60.333 -40 85 -66c24 -26 44.333 -52.833 61 -80.5s27.667 -56.167 33 -85.5h-208c-12.667 21.333 -31.5 40.333 -56.5 57s-54.167 28.667 -87.5 36c-22.667 6.66699 -46.334 10 -71.001 10c-43.333 0 -89.333 -11.333 -138 -34c-72 -35.333 -111 -99 -117 -191h1039v-787
h-1757z" />
    <glyph glyph-name="uniFB95" unicode="&#x6af;" horiz-adv-x="1880" arabic-form="medial" 
d="M1525 920c-12.667 72.667 -47 146.667 -103 222c-27.333 37.333 -63.5 70.5 -108.5 99.5s-94.833 53.167 -149.5 72.5c-32 8.66699 -64.833 15.834 -98.5 21.501s-66.5 8.5 -98.5 8.5c-27.333 0 -55 -1.66699 -83 -5s-55.333 -8.33301 -82 -15
c-62 -13.333 -118.167 -34.833 -168.5 -64.5s-92.833 -66.167 -127.5 -109.5c-72 -86.667 -115.333 -173.667 -130 -261c-17.333 -84.667 -27 -180.667 -29 -288h-163c-0.666992 11.333 -1 23 -1 35c0 79.333 11.667 170.666 35 273.999c26 120 82 235.333 168 346
c42.667 56 95.834 102.667 159.501 140s135.5 65.333 215.5 84c33.333 7.33301 68.666 13.5 105.999 18.5s72.333 7.5 105 7.5c42.667 0 86.167 -4 130.5 -12s86.166 -17.667 125.499 -29c72.667 -24 137.834 -56.167 195.501 -96.5s106.5 -89.5 146.5 -147.5
c80.667 -115.333 124 -216.333 130 -303zM1733 342l163 0.999023v-334h-1920v333h1574v262h-1062c2 100 12 186.333 30 259s44 130.334 78 173.001c36 44 74 78.833 114 104.5s83.333 43.5 130 53.5c42.667 8 84.334 12 125.001 12c42 0 83.667 -4.66699 125 -14
c36.667 -10 71 -24 103 -42s60.333 -40 85 -66c24 -26 44.333 -52.833 61 -80.5s27.667 -56.167 33 -85.5h-208c-12.667 21.333 -31.5 40.333 -56.5 57s-54.167 28.667 -87.5 36c-22.667 6.66699 -46.334 10 -71.001 10c-43.333 0 -89.333 -11.333 -138 -34
c-72 -35.333 -111 -99 -117 -191h1039v-454z" />
    <glyph glyph-name="uniFBA4" unicode="&#x6c0;" horiz-adv-x="735" arabic-form="isolated" 
d="M452 428c0 57.333 -30 86 -90 86s-90 -28.667 -90 -86c0 -59.333 34 -89 102 -89c52 0 78 29.667 78 89zM118 492c0 42.667 19.333 93.667 58 153c38 58.667 106 93 204 103c96.667 9.33301 174.667 51 234 125v-864h-496v483zM603 1312
c-34 -9.33301 -68.333 -15.999 -103 -19.999c-27.333 -3.33301 -52.666 -5 -75.999 -5h-22c-24.667 0 -44.334 -6.33301 -59.001 -19s-22 -32 -22 -58v-17c0 -6.66699 0.666992 -13.334 2 -20.001h280v-182h-466v287c14.667 80.667 44 135 88 163c46 28 108.667 42 188 42
h12c72.667 0 132 16.667 178 50v-221z" />
    <glyph glyph-name="uniFBA5" unicode="&#x6c0;" horiz-adv-x="773" arabic-form="final" 
d="M444 428c0 57.333 -30 86 -90 86s-90 -28.667 -90 -86c0 -59.333 34 -89 102 -89c52 0 78 29.667 78 89zM110 492c0 42.667 19.333 93.667 58 153c38 58.667 106 93 204 103c96.667 9.33301 174.667 51 234 125v-531h183v-333h-679v483zM609 1312
c-34 -9.33301 -68.333 -15.999 -103 -19.999c-27.333 -3.33301 -52.666 -5 -75.999 -5h-22c-24.667 0 -44.334 -6.33301 -59.001 -19s-22 -32 -22 -58v-17c0 -6.66699 0.666992 -13.334 2 -20.001h280v-182h-466v287c14.667 80.667 44 135 88 163c46 28 108.667 42 188 42
h12c72.667 0 132 16.667 178 50v-221z" />
    <glyph glyph-name="uniFBAA" unicode="&#x6be;" horiz-adv-x="1263" arabic-form="isolated" 
d="M512 693c-7.33301 28 -15.165 51.999 -23.498 71.999s-15.833 35 -22.5 45c-8 10 -16.333 19.833 -25 29.5s-17.667 17.834 -27 24.501c-18.667 5.33301 -33.334 8 -44.001 8c-12.667 0 -24.667 -2 -36 -6c-12 -10.667 -21.833 -23 -29.5 -37s-11.5 -28 -11.5 -42
c0 -11.333 1.66699 -21.833 5 -31.5s10.666 -20.5 21.999 -32.5c9.33301 -7.33301 24.333 -14.5 45 -21.5s50 -10.5 88 -10.5c17.333 0 37 0.666992 59 2zM441.001 327.999c15.333 0 26.999 2.66699 34.999 8c28 8.66699 49.333 29.667 64 63
c6.66699 20.667 10 37.667 10 51c0 16 -6.33301 34.333 -19 55c-12.667 17.333 -33.667 26 -63 26c-29.333 2 -56.166 5.5 -80.499 10.5s-42.166 9.5 -53.499 13.5c-14.667 -33.333 -22 -65.333 -22 -96c0 -18 2.66699 -35.333 8 -52s11.666 -29.667 18.999 -39
c16 -15.333 32 -25.833 48 -31.5s34 -8.5 54 -8.5zM904 410.999c8.66699 26 12.999 45.667 12.999 59c0 24.667 -2.33301 46.667 -7 66c-16 40.667 -47.667 61 -95 61h-9c-24 0 -66 -7.66699 -126 -23c2 -24.667 3.16699 -46.5 3.5 -65.5s0.5 -34.167 0.5 -45.5
c0 -19.333 -0.333008 -60.666 -1 -123.999c15.333 -2 29 -3 41 -3s22 0.666992 30 2c4 0 7.66699 0.166992 11 0.5s7 0.5 11 0.5h12c4.66699 0 9.33398 1 14.001 3c17.333 1.33301 36 7.66602 56 18.999s35.333 28 46 50zM-14.001 8.99902l0.000976562 333h182
c-1.33301 10 -2.66602 20.833 -3.99902 32.5s-2 22.167 -2 31.5c0 36 5.33301 70.667 16 104s26 64.666 46 93.999c-15.333 17.333 -29 38.166 -41 62.499s-21.333 48.5 -28 72.5c-2 12 -3 25.667 -3 41c0 44.667 14.333 93.667 43 147c33.333 58 90.333 87 171 87h22
c7.33301 0 14 -1 20 -3c50 -7.33301 95.5 -36.5 136.5 -87.5s74.833 -122.167 101.5 -213.5c51.333 6.66699 126.666 52.334 225.999 137.001c98.667 84 188.667 135 270 153v-658l2 -333h-517c-6.66699 -12.667 -11.834 -25 -15.501 -37s-5.5 -23 -5.5 -33
c0 -10.667 2.66699 -21.667 8 -33c12 4 23 6.66699 33 8s20 2 30 2c38.667 0 66.667 -14 84 -42c16.667 -24.667 25 -48.667 25 -72c0 -19.333 -5 -37.666 -15 -54.999c-22.667 -43.333 -65.667 -65 -129 -65c-50.667 0 -89 18.167 -115 54.5s-39 87.833 -39 154.5
c0 36 4.33301 75.333 13 118h-515z" />
    <glyph glyph-name="uniFBAB" unicode="&#x6be;" horiz-adv-x="1323" arabic-form="final" 
d="M512 693c-7.33301 28 -15.165 51.999 -23.498 71.999s-15.833 35 -22.5 45c-8 10 -16.333 19.833 -25 29.5s-17.667 17.834 -27 24.501c-18.667 5.33301 -33.334 8 -44.001 8c-12.667 0 -24.667 -2 -36 -6c-12 -10.667 -21.833 -23 -29.5 -37s-11.5 -28 -11.5 -42
c0 -11.333 1.66699 -21.833 5 -31.5s10.666 -20.5 21.999 -32.5c9.33301 -7.33301 24.333 -14.5 45 -21.5s50 -10.5 88 -10.5c17.333 0 37 0.666992 59 2zM441.001 327.999c15.333 0 26.999 2.66699 34.999 8c28 8.66699 49.333 29.667 64 63
c6.66699 20.667 10 37.667 10 51c0 16 -6.33301 34.333 -19 55c-12.667 17.333 -33.667 26 -63 26c-29.333 2 -56.166 5.5 -80.499 10.5s-42.166 9.5 -53.499 13.5c-14.667 -33.333 -22 -65.333 -22 -96c0 -18 2.66699 -35.333 8 -52s11.666 -29.667 18.999 -39
c16 -15.333 32 -25.833 48 -31.5s34 -8.5 54 -8.5zM904 410.999c8.66699 26 12.999 45.666 12.999 58.999c0 24.667 -2.33301 46.667 -7 66c-16 40.667 -47.667 61 -95 61h-9c-24 0 -66 -7.66699 -126 -23c2 -24.667 3.16699 -46.5 3.5 -65.5s0.5 -34.167 0.5 -45.5
c0 -19.333 -0.333008 -60.666 -1 -123.999l26.5 -2c9 -0.666992 16.5 -1 22.5 -1c14.667 0 27.334 0.5 38.001 1.5s22.667 3.16699 36 6.5c18.667 3.33301 37 9.83301 55 19.5s32.333 25.5 43 47.5zM-14.001 8.99805l0.000976562 333h182
c-1.33301 10 -2.66602 20.833 -3.99902 32.5s-2 22.167 -2 31.5c0 36 5.33301 70.667 16 104s26 64.666 46 93.999c-15.333 17.333 -29 38.166 -41 62.499s-21.333 48.5 -28 72.5c-2 12 -3 25.667 -3 41c0 44.667 14.333 93.667 43 147c33.333 58 90.333 87 171 87h22
c7.33301 0 14 -1 20 -3c50 -7.33301 95.5 -36.5 136.5 -87.5s74.833 -122.167 101.5 -213.5c51.333 6.66699 126.666 52.334 225.999 137.001c98.667 84 188.667 135 270 153v-658h190v-333h-705c-6.66699 -12.667 -11.834 -25 -15.501 -37s-5.5 -23 -5.5 -33
c0 -10.667 2.66699 -21.667 8 -33c12 4 23 6.66699 33 8s20 2 30 2c38.667 0 66.667 -14 84 -42c16.667 -24.667 25 -48.667 25 -72c0 -19.333 -5 -37.666 -15 -54.999c-22.667 -43.333 -65.667 -65 -129 -65c-50.667 0 -89 18.167 -115 54.5s-39 87.833 -39 154.5
c0 36 4.33301 75.333 13 118h-515z" />
    <glyph glyph-name="uniFBAC" unicode="&#x6be;" horiz-adv-x="1263" arabic-form="initial" 
d="M512 693c-7.33301 28 -15.165 51.999 -23.498 71.999s-15.833 35 -22.5 45c-8 10 -16.333 19.833 -25 29.5s-17.667 17.834 -27 24.501c-18.667 5.33301 -33.334 8 -44.001 8c-12.667 0 -24.667 -2 -36 -6c-12 -10.667 -21.833 -23 -29.5 -37s-11.5 -28 -11.5 -42
c0 -11.333 1.66699 -21.833 5 -31.5s10.666 -20.5 21.999 -32.5c9.33301 -7.33301 24.333 -14.5 45 -21.5s50 -10.5 88 -10.5c17.333 0 37 0.666992 59 2zM441.001 327.999c15.333 0 26.999 2.66699 34.999 8c28 8.66699 49.333 29.667 64 63
c6.66699 20.667 10 37.667 10 51c0 16 -6.33301 34.333 -19 55c-12.667 17.333 -33.667 26 -63 26c-29.333 2 -56.166 5.5 -80.499 10.5s-42.166 9.5 -53.499 13.5c-14.667 -33.333 -22 -65.333 -22 -96c0 -18 2.66699 -35.333 8 -52s11.666 -29.667 18.999 -39
c16 -15.333 32 -25.833 48 -31.5s34 -8.5 54 -8.5zM904 410.999c8.66699 26 12.999 45.667 12.999 59c0 24.667 -2.33301 46.667 -7 66c-16 40.667 -47.667 61 -95 61h-9c-24 0 -66 -7.66699 -126 -23c2 -24.667 3.16699 -46.5 3.5 -65.5s0.5 -34.167 0.5 -45.5
c0 -19.333 -0.333008 -60.666 -1 -123.999c15.333 -2 29 -3 41 -3s22 0.666992 30 2c4 0 7.66699 0.166992 11 0.5s7 0.5 11 0.5h12c4.66699 0 9.33398 1 14.001 3c17.333 1.33301 36 7.66602 56 18.999s35.333 28 46 50zM-14.001 8.99902l0.000976562 333h182
c-1.33301 10 -2.66602 20.833 -3.99902 32.5s-2 22.167 -2 31.5c0 36 5.33301 70.667 16 104s26 64.666 46 93.999c-15.333 17.333 -29 38.166 -41 62.499s-21.333 48.5 -28 72.5c-2 12 -3 25.667 -3 41c0 44.667 14.333 93.667 43 147c33.333 58 90.333 87 171 87h22
c7.33301 0 14 -1 20 -3c50 -7.33301 95.5 -36.5 136.5 -87.5s74.833 -122.167 101.5 -213.5c51.333 6.66699 126.666 52.334 225.999 137.001c98.667 84 188.667 135 270 153v-658l2 -333h-517c-6.66699 -12.667 -11.834 -25 -15.501 -37s-5.5 -23 -5.5 -33
c0 -10.667 2.66699 -21.667 8 -33c12 4 23 6.66699 33 8s20 2 30 2c38.667 0 66.667 -14 84 -42c16.667 -24.667 25 -48.667 25 -72c0 -19.333 -5 -37.666 -15 -54.999c-22.667 -43.333 -65.667 -65 -129 -65c-50.667 0 -89 18.167 -115 54.5s-39 87.833 -39 154.5
c0 36 4.33301 75.333 13 118h-515z" />
    <glyph glyph-name="uniFBAD" unicode="&#x6be;" horiz-adv-x="1323" arabic-form="medial" 
d="M512 693c-7.33301 28 -15.165 51.999 -23.498 71.999s-15.833 35 -22.5 45c-8 10 -16.333 19.833 -25 29.5s-17.667 17.834 -27 24.501c-18.667 5.33301 -33.334 8 -44.001 8c-12.667 0 -24.667 -2 -36 -6c-12 -10.667 -21.833 -23 -29.5 -37s-11.5 -28 -11.5 -42
c0 -11.333 1.66699 -21.833 5 -31.5s10.666 -20.5 21.999 -32.5c9.33301 -7.33301 24.333 -14.5 45 -21.5s50 -10.5 88 -10.5c17.333 0 37 0.666992 59 2zM441.001 327.999c15.333 0 26.999 2.66699 34.999 8c28 8.66699 49.333 29.667 64 63
c6.66699 20.667 10 37.667 10 51c0 16 -6.33301 34.333 -19 55c-12.667 17.333 -33.667 26 -63 26c-29.333 2 -56.166 5.5 -80.499 10.5s-42.166 9.5 -53.499 13.5c-14.667 -33.333 -22 -65.333 -22 -96c0 -18 2.66699 -35.333 8 -52s11.666 -29.667 18.999 -39
c16 -15.333 32 -25.833 48 -31.5s34 -8.5 54 -8.5zM904 410.999c8.66699 26 12.999 45.666 12.999 58.999c0 24.667 -2.33301 46.667 -7 66c-16 40.667 -47.667 61 -95 61h-9c-24 0 -66 -7.66699 -126 -23c2 -24.667 3.16699 -46.5 3.5 -65.5s0.5 -34.167 0.5 -45.5
c0 -19.333 -0.333008 -60.666 -1 -123.999l26.5 -2c9 -0.666992 16.5 -1 22.5 -1c14.667 0 27.334 0.5 38.001 1.5s22.667 3.16699 36 6.5c18.667 3.33301 37 9.83301 55 19.5s32.333 25.5 43 47.5zM-14.001 8.99805l0.000976562 333h182
c-1.33301 10 -2.66602 20.833 -3.99902 32.5s-2 22.167 -2 31.5c0 36 5.33301 70.667 16 104s26 64.666 46 93.999c-15.333 17.333 -29 38.166 -41 62.499s-21.333 48.5 -28 72.5c-2 12 -3 25.667 -3 41c0 44.667 14.333 93.667 43 147c33.333 58 90.333 87 171 87h22
c7.33301 0 14 -1 20 -3c50 -7.33301 95.5 -36.5 136.5 -87.5s74.833 -122.167 101.5 -213.5c51.333 6.66699 126.666 52.334 225.999 137.001c98.667 84 188.667 135 270 153v-658h190v-333h-705c-6.66699 -12.667 -11.834 -25 -15.501 -37s-5.5 -23 -5.5 -33
c0 -10.667 2.66699 -21.667 8 -33c12 4 23 6.66699 33 8s20 2 30 2c38.667 0 66.667 -14 84 -42c16.667 -24.667 25 -48.667 25 -72c0 -19.333 -5 -37.666 -15 -54.999c-22.667 -43.333 -65.667 -65 -129 -65c-50.667 0 -89 18.167 -115 54.5s-39 87.833 -39 154.5
c0 36 4.33301 75.333 13 118h-515z" />
    <glyph glyph-name="uniFBD3" unicode="&#x6ad;" horiz-adv-x="1485" arabic-form="isolated" 
d="M839 1263c14 8 30.667 11.998 50 11.998c11.333 0 21 -1.66699 29 -5c24 -6.66699 43.333 -24 58 -52c6.66699 -21.333 10 -37.333 10 -48c0 -19.333 -4.33301 -35.333 -13 -48c-2 -10.667 -8.33301 -19.334 -19 -26.001l-12.5 -12.5
c-4.33301 -4.33301 -8.83301 -8.5 -13.5 -12.5c-13.333 -4.66699 -26.333 -7 -39 -7c-19.333 0 -36 4.33301 -50 13c-16.667 10.667 -30 24.834 -40 42.501s-15 35.834 -15 54.501c0 12 0.666992 22.333 2 31s4.5 16.334 9.5 23.001s11.333 12.667 19 18zM534 1263
c16 8 31.998 11.9971 47.998 11.9971c13.333 0 23.333 -1.66699 30 -5c12 -2.66699 23 -8.66699 33 -18s18.333 -20.666 25 -33.999c8 -21.333 12 -37.333 12 -48c0 -8 -1 -16.5 -3 -25.5s-5 -16.5 -9 -22.5c-6.66699 -10.667 -13.667 -19.334 -21 -26.001l-12.5 -12.5
c-4.33301 -4.33301 -9.16602 -8.5 -14.499 -12.5c-13.333 -4.66699 -26.666 -7 -39.999 -7c-9.33301 0 -18 1.16699 -26 3.5s-15.333 5.5 -22 9.5c-16.667 10.667 -30.5 24.834 -41.5 42.501s-16.5 35.834 -16.5 54.501c0 12 1.33301 22.333 4 31
s6.16699 16.334 10.5 23.001s10 12.667 17 18s15.833 11 26.5 17zM687.998 1497c14.667 8.66699 29.668 12.999 45.001 12.999s25.666 -1 30.999 -3c26 -7.33301 45.667 -25.666 59 -54.999c8.66699 -19.333 13 -35 13 -47c0 -19.333 -4.66699 -35.333 -14 -48
c-3.33301 -4.66699 -6.5 -9.66699 -9.5 -15s-6.16699 -9.33301 -9.5 -12l-29 -22c-12.667 -6 -26.334 -9 -41.001 -9c-16.667 0 -31.667 4 -45 12c-21.333 11.333 -36.333 26 -45 44s-13 36.333 -13 55c0 12.667 0.833008 23 2.5 31s4.83398 15 9.50098 21
s10.5 11.833 17.5 17.5s16.5 11.5 28.5 17.5zM969.999 769.994c-34 -10.667 -68.332 -18 -102.999 -22c-23.333 -2.66699 -46 -4 -68 -4c-10.667 0 -21 0.333008 -31 1c-23.333 -2 -42.5 -9 -57.5 -21s-22.5 -30.667 -22.5 -56c0 -4.66699 0.166992 -10.667 0.5 -18
s1.16602 -14 2.49902 -20h279v-180h-465v283c14 80.667 43 135.667 87 165c44 27.333 104.333 41 181 41h6c80 0 143.667 17.333 191 52v-221zM151 8.99414l0.000976562 399.999c0 28 -20.333 42 -61 42c-8 0 -15.833 -0.166992 -23.5 -0.5
s-15.834 -2.16602 -24.501 -5.49902l282 188v-291h824v914c0 24 -12.333 36 -37 36c-12.667 0 -29 -3.33301 -49 -10l293 209v-1482h-1204z" />
    <glyph glyph-name="uniFBD4" unicode="&#x6ad;" horiz-adv-x="1456" arabic-form="final" 
d="M817 1263c14.667 8 30.6689 11.998 48.002 11.998c11.333 0 21.666 -1.66699 30.999 -5c22.667 -6.66699 42 -24 58 -52c7.33301 -21.333 11 -37.333 11 -48c0 -19.333 -4.33301 -35.333 -13 -48c-2.66699 -10.667 -9.33398 -19.334 -20.001 -26.001l-14 -12.5
c-4.66699 -4.33301 -8.66699 -8.5 -12 -12.5c-12.667 -4.66699 -26.334 -7 -41.001 -7c-19.333 0 -35.333 4.33301 -48 13c-16.667 10.667 -30 24.834 -40 42.501s-15 35.834 -15 54.501c0 12 0.833008 22.333 2.5 31s4.83398 16.334 9.50098 23.001s10.5 12.667 17.5 18
s15.5 11 25.5 17zM512.002 1263c16 8 32.001 11.9971 48.001 11.9971c13.333 0 23.333 -1.66699 30 -5c12 -2.66699 22.833 -8.66699 32.5 -18s18.167 -20.666 25.5 -33.999c6.66699 -21.333 10 -37.333 10 -48c0 -8 -1 -16.5 -3 -25.5s-4.33301 -16.5 -7 -22.5
c-6.66699 -10.667 -13.334 -19.334 -20.001 -26.001c-6 -4 -11.167 -8.16699 -15.5 -12.5l-12.5 -12.5c-12.667 -4.66699 -26 -7 -40 -7c-9.33301 0 -18 1.16699 -26 3.5s-15.333 5.5 -22 9.5c-18 10.667 -32 24.834 -42 42.501s-15 35.834 -15 54.501
c0 12 1.16699 22.333 3.5 31s5.5 16.334 9.5 23.001s9.83301 12.667 17.5 18s16.5 11 26.5 17zM664.003 1497c14.667 8.66699 30.668 12.999 48.001 12.999c14 0 24.333 -1 31 -3c25.333 -7.33301 45 -25.666 59 -54.999c8 -19.333 12 -35 12 -47
c0 -19.333 -4.66699 -35.333 -14 -48c-2.66699 -4.66699 -5.83398 -9.66699 -9.50098 -15s-6.83398 -9.33301 -9.50098 -12l-29 -22c-12.667 -6 -26 -9 -40 -9c-17.333 0 -32.666 4 -45.999 12c-20.667 11.333 -35.834 26 -45.501 44s-14.5 36.333 -14.5 55
c0 12.667 1 23 3 31s5.66699 15 11 21s11.333 11.833 18 17.5s15.334 11.5 26.001 17.5zM948.004 769.994c-34.667 -10.667 -69.3359 -18 -104.003 -22c-23.333 -2.66699 -45.666 -4 -66.999 -4c-11.333 0 -22.333 0.333008 -33 1c-23.333 -2 -42.166 -9 -56.499 -21
s-21.5 -30.667 -21.5 -56v-18c0 -7.33301 1.33301 -14 4 -20h278v-180h-467v283c14.667 80.667 44.334 135.667 89.001 165c43.333 27.333 103.333 41 180 41h6c80.667 0 144.667 17.333 192 52v-221zM130.002 8.99414l-0.000976562 400c0 30 -22.667 45 -68 45
c-4.66699 0 -10 -0.166992 -16 -0.5s-11.333 -0.5 -16 -0.5l272 180v-291h822v914c0 24 -11.333 36 -34 36c-13.333 0 -30.666 -3.33301 -51.999 -10l271 209v-1149h173v-333h-1352z" />
    <glyph glyph-name="uniFBD5" unicode="&#x6ad;" horiz-adv-x="1437" arabic-form="initial" 
d="M907 1318c16 8 32.001 12 48.001 12c12.667 0 24 -1 34 -3c22 -8 41 -26 57 -54c7.33301 -20.667 11 -36 11 -46c0 -20.667 -5 -37.334 -15 -50.001c-1.33301 -4.66699 -4 -9.66699 -8 -15s-8 -8.66602 -12 -9.99902c-2.66699 -4 -6.66699 -8.33301 -12 -13
s-10 -8 -14 -10c-12.667 -6.66699 -26.334 -10 -41.001 -10c-7.33301 0 -15.5 1.16699 -24.5 3.5s-16.833 5.5 -23.5 9.5c-17.333 10.667 -30.833 24.667 -40.5 42s-14.5 36.666 -14.5 57.999c0 23.333 4.33301 40.333 13 51s22.667 22.334 42 35.001zM756.001 1555
c15.333 8 31.3301 12.0029 47.9971 12.0029c12.667 0 22.334 -1.33301 29.001 -4c12.667 -4 23.834 -10.833 33.501 -20.5s18.5 -20.834 26.5 -33.501c7.33301 -19.333 11 -36 11 -50c0 -8.66699 -1.33301 -16.834 -4 -24.501s-6 -14.834 -10 -21.501
c-2 -5.33301 -4.66699 -10.5 -8 -15.5s-6 -9.5 -8 -13.5l-29 -19c-12.667 -6 -26.334 -9 -41.001 -9c-8.66699 0 -17.167 1 -25.5 3s-15.166 4.33301 -20.499 7c-18.667 12 -33.667 27 -45 45s-17 36 -17 54c0 11.333 1.33301 21.5 4 30.5s6.33398 16.333 11.001 22
s10.667 11.5 18 17.5s16.333 12.667 27 20zM601.998 1318c17.333 8 33.332 11.999 47.999 11.999c13.333 0 24.333 -1 33 -3c23.333 -8 42 -26 56 -54c7.33301 -20.667 11 -36 11 -46s-1 -19.333 -3 -28s-4.66699 -16 -8 -22c-5.33301 -11.333 -12.333 -19.666 -21 -24.999
c-4 -4 -8.66699 -8.33301 -14 -13s-9.66602 -8 -12.999 -10c-12 -6.66699 -25.667 -10 -41 -10c-8 0 -16 1.16699 -24 3.5s-16 5.5 -24 9.5c-18.667 10.667 -32.834 24.667 -42.501 42s-14.5 36.666 -14.5 57.999c0 23.333 4.83301 40.333 14.5 51
s23.834 22.334 42.501 35.001zM-12.0029 9.00195v333.002h1169v122h-960c1.33301 99.333 16 187 44 263s70.333 138.667 127 188c113.333 100 241.333 153 384 159c9.33301 0.666992 18.333 1 27 1h23c60.667 0 117.334 -5.5 170.001 -16.5s100 -27.167 142 -48.5
c53.333 -31.333 99.833 -66.333 139.5 -105s71.167 -81.334 94.5 -128.001h-210c-18 23.333 -41.333 43.666 -70 60.999s-62.334 31 -101.001 41c-29.333 6.66699 -58 12 -86 16s-55.667 6 -83 6c-72.667 0 -141 -13 -205 -39c-110.667 -44 -174 -112 -190 -204h939v-649
h-1354z" />
    <glyph glyph-name="uniFBD6" unicode="&#x6ad;" horiz-adv-x="1563" arabic-form="medial" 
d="M921 1318c16 8 32.001 12 48.001 12c12 0 22.333 -1 31 -3c23.333 -8 42.666 -26 57.999 -54c8 -20.667 12 -36 12 -46c0 -20.667 -5 -37.334 -15 -50.001c-0.666992 -4.66699 -3 -9.66699 -7 -15s-8 -8.66602 -12 -9.99902c-4.66699 -4 -9.16699 -8.33301 -13.5 -13
s-9.5 -8 -15.5 -10c-11.333 -6.66699 -24 -10 -38 -10c-7.33301 0 -15.833 1.16699 -25.5 3.5s-17.167 5.5 -22.5 9.5c-19.333 10.667 -33.833 24.667 -43.5 42s-14.5 36.666 -14.5 57.999c0 23.333 4.66699 40.333 14 51s24 22.334 44 35.001zM767.001 1555
c16 8 32.002 12.0029 48.002 12.0029c12.667 0 23 -1.33301 31 -4c13.333 -4 24.666 -10.833 33.999 -20.5s17.333 -20.834 24 -33.501c8.66699 -19.333 13 -36 13 -50c0 -8.66699 -1.16699 -16.834 -3.5 -24.501s-5.5 -14.834 -9.5 -21.501
c-4 -5.33301 -7.66699 -10.5 -11 -15.5s-6 -9.5 -8 -13.5l-29 -19c-12.667 -6 -26.334 -9 -41.001 -9c-8.66699 0 -16.834 1 -24.501 3s-14.5 4.33301 -20.5 7c-19.333 12 -34.166 27 -44.499 45s-15.5 36 -15.5 54c0 11.333 1 21.5 3 30.5s5.5 16.333 10.5 22
s11.167 11.5 18.5 17.5zM616.003 1318c15.333 8 31.335 11.999 48.002 11.999c11.333 0 21.666 -1 30.999 -3c24 -8 42.333 -26 55 -54c8 -20.667 12 -36 12 -46s-1 -19.333 -3 -28s-5 -16 -9 -22c-4.66699 -11.333 -11 -19.666 -19 -24.999l-13.5 -13
c-5 -4.66699 -9.16699 -8 -12.5 -10c-12 -6.66699 -25.667 -10 -41 -10c-8 0 -16.333 1.16699 -25 3.5s-16.334 5.5 -23.001 9.5c-19.333 10.667 -33.833 24.667 -43.5 42s-14.5 36.666 -14.5 57.999c0 23.333 4.5 40.333 13.5 51s23.833 22.334 44.5 35.001zM1570 342.002
v-332.998h-1578v333h1169v122h-960c1.33301 99.333 16 187 44 263s70.333 138.667 127 188c113.333 100 241.333 153 384 159c9.33301 0.666992 18.333 1 27 1h23c60.667 0 117.334 -5.5 170.001 -16.5s100 -27.167 142 -48.5c53.333 -31.333 99.833 -66.333 139.5 -105
s71.167 -81.334 94.5 -128.001h-210c-18 23.333 -41.333 43.666 -70 60.999s-62.334 31 -101.001 41c-29.333 6.66699 -58 12 -86 16s-55.667 6 -83 6c-72.667 0 -141 -13 -205 -39c-110.667 -44 -174 -112 -190 -204h939v-316h224z" />
    <glyph glyph-name="uniFBD7" unicode="&#x6c7;" horiz-adv-x="682" arabic-form="isolated" 
d="M429 428c0 57.333 -30 86 -90 86s-90 -28.667 -90 -86c0 -59.333 33.667 -89 101 -89c52.667 0 79 29.667 79 89zM257 1075c88 51.333 133.334 99.001 136.001 143.001c0.666992 7.33301 1 13.666 1 18.999c0 19.333 -5 29 -15 29c-4.66699 0 -10.334 -2 -17.001 -6
c-64 14 -96 47.667 -96 101v11c6.66699 60 31 99.333 73 118c19.333 6.66699 38.666 10 57.999 10c23.333 0 45 -6 65 -18c37.333 -22.667 62.333 -68.667 75 -138c1.33301 -11.333 2 -23.333 2 -36c0 -58 -22.667 -113.667 -68 -167c-40.667 -50.667 -90.667 -76 -150 -76
c-21.333 0 -42.666 3.33301 -63.999 10zM97.001 9.00098l-0.000976562 483.001c0 42.667 18.667 93.667 56 153c38.667 58.667 106.334 93 203.001 103c98 9.33301 177 51 237 125v-994c-13.333 -195.333 -59.333 -313 -138 -353c-49.333 -25.333 -98.333 -38 -147 -38
c-34 0 -68.333 6 -103 18c-61.333 18 -92 30.333 -92 37c0 3.33301 5.33301 5 16 5c40 2 99.333 22.333 178 61c72 35.333 108 112.666 108 231.999c0 8 -0.333008 16.333 -1 25v143h-317z" />
    <glyph glyph-name="uniFBD8" unicode="&#x6c7;" horiz-adv-x="786" arabic-form="final" 
d="M440 428c0 57.333 -30 86 -90 86s-90 -28.667 -90 -86c0 -59.333 34 -89 102 -89c52 0 78 29.667 78 89zM257 1125c88.667 51.333 134.335 98.668 137.002 142.001c0.666992 6.66699 1 12.667 1 18c0 20 -5.33301 30 -16 30c-4.66699 0 -10.334 -2 -17.001 -6
c-64 14.667 -96 47.667 -96 99c0 4.66699 0.333008 9.66699 1 15c6 60 30.333 98.667 73 116c19.333 8 38.666 12 57.999 12c21.333 0 42.333 -5.66699 63 -17c36.667 -22 61.667 -68.333 75 -139c2.66699 -12.667 4 -25.334 4 -38.001c0 -56 -22.333 -111.667 -67 -167
c-41.333 -49.333 -91.333 -74 -150 -74c-21.333 0 -43.333 3 -66 9zM106.001 9.00195l0.000976562 483c0 42.667 19.333 93.667 58 153c38 58.667 106 93 204 103c96.667 9.33301 174.667 51 234 125v-531h198v-333h-198v-130c0 -80 -9.5 -146.833 -28.5 -200.5
s-46.833 -96.167 -83.5 -127.5c-25.333 -19.333 -54.5 -35 -87.5 -47s-65.833 -18 -98.5 -18c-24.667 0 -50.334 3.33301 -77.001 10c-61.333 12.667 -92 22.667 -92 30c0 4 12 8 36 12c65.333 6.66699 125 30 179 70c50 38 75 113 75 225v33l-2 143h-317z" />
    <glyph glyph-name="uniFBD9" unicode="&#x6c6;" horiz-adv-x="685" arabic-form="isolated" 
d="M438 428c0 57.333 -30 86 -90 86s-90 -28.667 -90 -86c0 -59.333 33 -89 99 -89c54 0 81 29.667 81 89zM308 1381l0.000976562 -168.001c2.66699 -28 16 -46.333 40 -55c12 -5.33301 23.333 -8 34 -8s21.334 1.66699 32.001 5c9.33301 4 17 10.667 23 20
s10.333 20.666 13 33.999c0 14.667 -0.5 28.334 -1.5 41.001s-1.5 26 -1.5 40c-0.666992 24.667 -15.667 37 -45 37l159 92v-235c-6 -79.333 -42.333 -128.666 -109 -147.999c-28.667 -8.66699 -56.334 -13 -83.001 -13c-15.333 0 -31.333 1.66699 -48 5
s-32.334 9 -47.001 17c-50.667 25.333 -78.667 73.333 -84 144v67c0 22.667 -11.333 34.667 -34 36zM104.001 8.99902v483c0 42.667 19.333 93.667 58 153c38 58.667 106 93 204 103c96.667 9.33301 174.667 51 234 125v-994c-12 -195.333 -57.667 -313 -137 -353
c-48.667 -25.333 -97 -38 -145 -38c-35.333 0 -70.333 6 -105 18c-61.333 17.333 -92 29.333 -92 36c0 4 6 6 18 6c39.333 2 97.333 22.333 174 61c73.333 36 110 114.333 110 235v22l-2 143h-317z" />
    <glyph glyph-name="uniFBDA" unicode="&#x6c6;" horiz-adv-x="782" arabic-form="final" 
d="M432 428c0 57.333 -30 86 -90 86s-90 -28.667 -90 -86c0 -59.333 34 -89 102 -89c52 0 78 29.667 78 89zM302 1430l0.000976562 -167.001c2.66699 -28 16 -46.333 40 -55c12 -5.33301 23.333 -8 34 -8s21.334 2 32.001 6c9.33301 4 17 10.667 23 20s10.333 21 13 35
c0 12.667 -0.5 25.834 -1.5 39.501s-1.5 27.5 -1.5 41.5c-0.666992 22.667 -15.667 34 -45 34l159 92v-234c-6 -78 -42.333 -127 -109 -147c-28.667 -8 -56.334 -12 -83.001 -12c-15.333 0 -31.333 1.5 -48 4.5s-31.334 8.5 -44.001 16.5c-52.667 24 -81.667 71.333 -87 142
v67c0 23.333 -11.333 36.333 -34 39zM98.001 8.99902l0.000976562 483c0 42.667 19.333 93.667 58 153c38 58.667 106 93 204 103c96.667 9.33301 174.667 51 234 125v-531h198v-333h-198v-130c0 -80 -9.5 -146.833 -28.5 -200.5s-46.833 -96.167 -83.5 -127.5
c-25.333 -19.333 -54.5 -35 -87.5 -47s-65.833 -18 -98.5 -18c-24.667 0 -50.334 3.33301 -77.001 10c-61.333 12.667 -92 22.667 -92 30c0 4 12 8 36 12c65.333 6.66699 125 30 179 70c50 38 75 113 75 225v33l-2 143h-317z" />
    <glyph glyph-name="uniFBDB" unicode="&#x6c8;" horiz-adv-x="682" arabic-form="isolated" 
d="M434 428c0 57.333 -30 86 -90 86s-90 -28.667 -90 -86c0 -59.333 33 -89 99 -89c54 0 81 29.667 81 89zM311 1273c-8 32 -27.999 48 -59.999 48c-4.66699 0 -10.834 -0.5 -18.501 -1.5s-15.5 -2.83301 -23.5 -5.5l233 182v-494h-131v271zM100.001 9v483
c0 42.667 19.333 93.667 58 153c38 58.667 106 93 204 103c96.667 9.33301 174.667 51 234 125v-994c-12 -195.333 -57.667 -313 -137 -353c-48.667 -25.333 -97 -38 -145 -38c-35.333 0 -70.333 6 -105 18c-61.333 17.333 -92 29.333 -92 36c0 4 6 6 18 6
c39.333 2 97.333 22.333 174 61c73.333 36 110 114.333 110 235v22l-2 143h-317z" />
    <glyph glyph-name="uniFBDC" unicode="&#x6c8;" horiz-adv-x="783" arabic-form="final" 
d="M432 428c0 57.333 -30 86 -90 86s-90 -28.667 -90 -86c0 -59.333 34 -89 102 -89c52 0 78 29.667 78 89zM309 1273c-8 32 -27.999 48 -59.999 48c-4.66699 0 -10.834 -0.5 -18.501 -1.5s-15.5 -2.83301 -23.5 -5.5l233 182v-494h-131v271zM98.001 9l0.000976562 483
c0 42.667 19.333 93.667 58 153c38 58.667 106 93 204 103c96.667 9.33301 174.667 51 234 125v-531h198v-333h-198v-130c0 -80 -9.5 -146.833 -28.5 -200.5s-46.833 -96.167 -83.5 -127.5c-25.333 -19.333 -54.5 -35 -87.5 -47s-65.833 -18 -98.5 -18
c-24.667 0 -50.334 3.33301 -77.001 10c-61.333 12.667 -92 22.667 -92 30c0 4 12 8 36 12c65.333 6.66699 125 30 179 70c50 38 75 113 75 225v33l-2 143h-317z" />
    <glyph glyph-name="uniFBDD" unicode="&#x677;" horiz-adv-x="1200" arabic-form="isolated" 
d="M430 428c0 57.333 -30 86 -90 86s-90 -28.667 -90 -86c0 -59.333 33.667 -89 101 -89c52.667 0 79 29.667 79 89zM258 1075c88 51.333 133.334 99.001 136.001 143.001c0.666992 7.33301 1 13.666 1 18.999c0 19.333 -5 29 -15 29c-4.66699 0 -10.334 -2 -17.001 -6
c-64 14 -96 47.667 -96 101v11c6.66699 60 31 99.333 73 118c19.333 6.66699 38.666 10 57.999 10c23.333 0 45 -6 65 -18c37.333 -22.667 62.333 -68.667 75 -138c1.33301 -11.333 2 -23.333 2 -36c0 -58 -22.667 -113.667 -68 -167c-40.667 -50.667 -90.667 -76 -150 -76
c-21.333 0 -42.666 3.33301 -63.999 10zM98.001 9.00098l-0.000976562 483.001c0 42.667 18.667 93.667 56 153c38.667 58.667 106.334 93 203.001 103c98 9.33301 177 51 237 125v-994c-13.333 -195.333 -59.333 -313 -138 -353c-49.333 -25.333 -98.333 -38 -147 -38
c-34 0 -68.333 6 -103 18c-61.333 18 -92 30.333 -92 37c0 3.33301 5.33301 5 16 5c40 2 99.333 22.333 178 61c72 35.333 108 112.666 108 231.999c0 8 -0.333008 16.333 -1 25v143h-317zM1192 1312c-34 -9.33301 -68.333 -15.999 -103 -19.999
c-27.333 -3.33301 -52.666 -5 -75.999 -5h-22c-24.667 0 -44.334 -6.33301 -59.001 -19s-22 -32 -22 -58v-17c0 -6.66699 0.666992 -13.334 2 -20.001h280v-182h-466v287c14.667 80.667 44 135 88 163c46 28 108.667 42 188 42h12c72.667 0 132 16.667 178 50v-221z" />
    <glyph glyph-name="uniFBDE" unicode="&#x6cb;" horiz-adv-x="696" arabic-form="isolated" 
d="M453 428c0 57.333 -30 86 -90 86c-60.667 0 -91 -28.667 -91 -86c0 -59.333 33.667 -89 101 -89c53.333 0 80 29.667 80 89zM454 1218c18.667 8.66699 37.6689 12.9971 57.002 12.9971c15.333 0 27 -2 35 -6c28 -8.66699 49.333 -29 64 -61
c9.33301 -21.333 14 -38.666 14 -51.999c0 -10.667 -1.66699 -21.167 -5 -31.5s-7 -19.166 -11 -26.499c-2.66699 -4 -5.66699 -9 -9 -15s-7 -10.333 -11 -13c-6 -4 -11.333 -8.33301 -16 -13s-10 -9 -16 -13c-13.333 -6 -28.333 -9 -45 -9c-8 0 -17.833 1.5 -29.5 4.5
s-20.834 5.83301 -27.501 8.5c-20 12.667 -35.333 29.167 -46 49.5s-16 41.5 -16 63.5c0 12.667 1.16699 23.834 3.5 33.501s6.16602 18.5 11.499 26.5s11.833 14.833 19.5 20.5zM109.002 1218c18 8.66699 36.6689 12.9971 56.002 12.9971c15.333 0 27 -2 35 -6
c25.333 -8.66699 46 -29 62 -61c10.667 -23.333 16 -40.666 16 -51.999c0 -10.667 -1.66699 -21.167 -5 -31.5s-7 -19.166 -11 -26.499c-2 -4 -4.83301 -9 -8.5 -15s-8.16699 -10.333 -13.5 -13c-5.33301 -4 -10.5 -8.33301 -15.5 -13l-14.5 -13
c-13.333 -6 -28.333 -9 -45 -9c-10 0 -19.833 1.16699 -29.5 3.5s-18.5 5.5 -26.5 9.5c-20 12.667 -35.833 29.167 -47.5 49.5s-17.5 41.5 -17.5 63.5c0 12.667 1.16699 23.834 3.5 33.501s6.16602 18.5 11.499 26.5s12.166 14.833 20.499 20.5zM282.004 1483.99
c18 10.667 36.6699 16 56.0029 16c15.333 0 27 -3 35 -9c26 -7.33301 47.667 -27 65 -59c10 -22.667 15 -41.334 15 -56.001c0 -9.33301 -1.5 -18.666 -4.5 -27.999s-7.5 -17.333 -13.5 -24c-2 -6 -4.83301 -11.833 -8.5 -17.5s-7.5 -10.5 -11.5 -14.5l-31 -25
c-14 -6.66699 -29.333 -10 -46 -10c-12 0 -22.333 1.5 -31 4.5s-16.334 6.83301 -23.001 11.5c-21.333 11.333 -37.833 27.5 -49.5 48.5s-17.5 41.167 -17.5 60.5c0 15.333 1.16699 27.5 3.5 36.5s6.16602 17 11.499 24s12.166 13.5 20.499 19.5zM118.007 8.99414
l-0.000976562 482.999c0 42.667 19.333 93.667 58 153c38.667 58.667 106.667 93 204 103c97.333 9.33301 175.333 51 234 125v-994c-11.333 -195.333 -56.666 -313 -135.999 -353c-48.667 -25.333 -98 -38 -148 -38c-33.333 0 -68 6 -104 18c-60 18 -90 30.333 -90 37
c0 2.66699 5.66699 4.33398 17 5.00098c40 2 98.333 22.333 175 61c73.333 36 110 115.333 110 238v19l-3 143h-317z" />
    <glyph glyph-name="uniFBDF" unicode="&#x6cb;" horiz-adv-x="784" arabic-form="final" 
d="M435 428c0 57.333 -29.333 86 -88 86c-60.667 0 -91 -28.667 -91 -86c0 -59.333 34 -89 102 -89c51.333 0 77 29.667 77 89zM486 1279c16 8.66699 35.0039 13 57.0039 13c15.333 0 27 -2 35 -6c28 -8.66699 49.333 -29 64 -61c8 -22 12 -39.333 12 -52
c0 -20.667 -4.66699 -39.334 -14 -56.001c-6.66699 -12.667 -13.334 -22.667 -20.001 -30c-6 -4 -11.833 -8.16699 -17.5 -12.5s-10.834 -8.5 -15.501 -12.5c-12.667 -8 -27.334 -12 -44.001 -12c-10.667 0 -20.834 1.5 -30.501 4.5s-18.5 7.5 -26.5 13.5
c-20 10.667 -35.333 26 -46 46s-16 41.667 -16 65c0 12.667 0.833008 23.834 2.5 33.501s5 18 10 25s11.833 13.667 20.5 20zM141.004 1279c16 8.66699 34.0029 13.001 54.0029 13.001c15.333 0 27 -2 35 -6c28 -7.33301 49.333 -27.666 64 -60.999
c10 -20.667 15 -38 15 -52c0 -20.667 -5 -39.334 -15 -56.001c-2 -4.66699 -4.83301 -9.83398 -8.5 -15.501s-8.16699 -10.5 -13.5 -14.5s-10.5 -8.16699 -15.5 -12.5s-10.833 -8.5 -17.5 -12.5c-12.667 -8 -27.334 -12 -44.001 -12c-20 0 -38 6 -54 18
c-20 10.667 -35.833 26 -47.5 46s-17.5 41.667 -17.5 65c0 14 1.16699 25.5 3.5 34.5s6.16602 17 11.499 24s12.166 13.667 20.499 20zM314.007 1545c18 8.66699 36.0029 12.999 54.0029 12.999c14.667 0 27 -1.33301 37 -4c26 -8 47.667 -28 65 -60
c8.66699 -21.333 13 -40 13 -56c0 -10 -1.16699 -19.667 -3.5 -29s-6.5 -17.666 -12.5 -24.999c-2 -5.33301 -4.83301 -10.333 -8.5 -15s-7.5 -9 -11.5 -13l-33 -28c-14 -6.66699 -29.333 -10 -46 -10c-20 0 -38 5 -54 15c-22 12.667 -38.333 29.167 -49 49.5
s-16 40.5 -16 60.5c0 14.667 1.16699 27.167 3.5 37.5s6.16602 18.833 11.499 25.5s12.166 13 20.499 19s18.166 12.667 29.499 20zM102.01 9v483c0 42.667 19.333 93.667 58 153c37.333 58.667 105.333 93 204 103c97.333 9.33301 176 51 236 125v-531h196v-333h-196v-130
c0 -80 -9.5 -146.833 -28.5 -200.5s-47.5 -96.167 -85.5 -127.5c-26 -19.333 -55 -35 -87 -47s-65 -18 -99 -18c-22.667 0 -48 3.33301 -76 10c-62 12.667 -93 22.667 -93 30c0 4 12.333 8 37 12c65.333 6.66699 125 30 179 70c51.333 38 77 113 77 225
c0 4.66699 -0.333008 10 -1 16s-1 11.667 -1 17v143h-320z" />
    <glyph glyph-name="uniFBE0" unicode="&#x6c5;" horiz-adv-x="701" arabic-form="isolated" 
d="M433 -190h-205c2.66699 -96.667 38 -145 106 -145h3c58 0.666992 90 49 96 145zM448 428c0 57.333 -30.333 86 -91 86c-60 0 -90 -28.667 -90 -86c0 -59.333 33.333 -89 100 -89c54 0 81 29.667 81 89zM433 -128l-3 137h-316v483c0 42.667 19 93.667 57 153
c38.667 58.667 106.667 93 204 103c96.667 9.33301 174.667 51 234 125v-994c-11.333 -195.333 -57 -313 -137 -353c-48 -25.333 -96.333 -38 -145 -38c-34 0 -68.667 6 -104 18c-83.333 24 -137 94.667 -161 212l2 154h369z" />
    <glyph glyph-name="uniFBE1" unicode="&#x6c5;" horiz-adv-x="805" arabic-form="final" 
d="M431 -190h-205c2.66699 -96.667 38 -145 106 -145h3c58 0.666992 90 49 96 145zM446 428c0 57.333 -30.333 86 -91 86c-60 0 -90 -28.667 -90 -86c0 -59.333 33.333 -89 100 -89c54 0 81 29.667 81 89zM607 342h209v-333h-209v-130c-11.333 -195.333 -57 -313 -137 -353
c-48 -25.333 -96.333 -38 -145 -38c-34 0 -68.667 6 -104 18c-83.333 24 -137 94.667 -161 212l2 154h369l-3 137h-316v483c0 42.667 19 93.667 57 153c38.667 58.667 106.667 93 204 103c96.667 9.33301 174.667 51 234 125v-531z" />
    <glyph glyph-name="uniFBE2" unicode="&#x6c9;" horiz-adv-x="682" arabic-form="isolated" 
d="M433 428c0 57.333 -30 86 -90 86s-90 -28.667 -90 -86c0 -59.333 33.667 -89 101 -89c52.667 0 79 29.667 79 89zM151 1150c24 2.66699 36.001 15.332 36.001 37.999v68c6 70.667 33.667 118.667 83 144c15.333 6.66699 31 11.5 47 14.5s32.333 4.5 49 4.5
c27.333 0 54.333 -4 81 -12c66 -19.333 102.333 -69.333 109 -150v-234l-159 93c29.333 0 44.666 12 45.999 36c0 14 0.333008 27.5 1 40.5s1 26.167 1 39.5c-1.33301 14.667 -5.16602 26.334 -11.499 35.001s-14.833 15 -25.5 19c-8.66699 4 -18.334 6 -29.001 6
s-22.667 -2 -36 -6c-22.667 -8.66699 -36 -28 -40 -58v-166zM101.001 8.99805l-0.000976562 483.001c0 42.667 18.667 93.667 56 153c38.667 58.667 106.334 93 203.001 103c98 9.33301 177 51 237 125v-994c-13.333 -195.333 -59.333 -313 -138 -353
c-49.333 -25.333 -98.333 -38 -147 -38c-34 0 -68.333 6 -103 18c-61.333 18 -92 30.333 -92 37c0 3.33301 5.33301 5 16 5c40 2 99.333 22.333 178 61c72 35.333 108 112.666 108 231.999c0 8 -0.333008 16.333 -1 25v143h-317z" />
    <glyph glyph-name="uniFBE3" unicode="&#x6c9;" horiz-adv-x="782" arabic-form="final" 
d="M432 428c0 57.333 -30 86 -90 86s-90 -28.667 -90 -86c0 -59.333 34 -89 102 -89c52 0 78 29.667 78 89zM98 9l0.000976562 483c0 42.667 19.333 93.667 58 153c38 58.667 106 93 204 103c96.667 9.33301 174.667 51 234 125v-531h198v-333h-198v-130
c0 -80 -9.5 -146.833 -28.5 -200.5s-46.833 -96.167 -83.5 -127.5c-25.333 -19.333 -54.5 -35 -87.5 -47s-65.833 -18 -98.5 -18c-24.667 0 -50.334 3.33301 -77.001 10c-61.333 12.667 -92 22.667 -92 30c0 4 12 8 36 12c65.333 6.66699 125 30 179 70c50 38 75 113 75 225
v33l-2 143h-317zM146.001 1150c24 2.66699 36.002 15.999 36.002 39.999v66c5.33301 70.667 33 118.667 83 144c15.333 6.66699 31 11.5 47 14.5s32.333 4.5 49 4.5c27.333 0 54 -4 80 -12c67.333 -19.333 104.333 -69.333 111 -150v-234l-160 93
c29.333 0 44.666 12 45.999 36c0 14 0.333008 27.5 1 40.5s1 26.167 1 39.5c-1.33301 14.667 -5.33301 26.334 -12 35.001s-15 15 -25 19c-8.66699 4 -18.334 6 -29.001 6c-11.333 0 -23.333 -2 -36 -6c-23.333 -8.66699 -37 -28 -41 -58v-166z" />
    <glyph glyph-name="uniFBE4" unicode="&#x6d0;" horiz-adv-x="1213" arabic-form="isolated" 
d="M1116 9l-6.00195 -76.9971c-20 -117.333 -68 -204 -144 -260c-76.667 -54.667 -171.334 -87.334 -284.001 -98.001c-11.333 -0.666992 -23.5 -1.66699 -36.5 -3s-24.833 -2 -35.5 -2c-89.333 0 -180.666 16.333 -273.999 49
c-117.333 42.667 -185.666 137.667 -204.999 285v362c0 36.667 -12 55 -36 55c-8 0 -19.667 -2.33301 -35 -7l240 173v-515c10.667 -66 41 -116.333 91 -151s121 -52 213 -52h19c6 0 12.667 0.666992 20 2c195.333 8 293 76.333 293 205
c0 5.33301 -0.333008 11.166 -1 17.499s-2 11.833 -4 16.5h-321v371c2 61.333 12 111.666 30 150.999c18 42.667 51 85 99 127c48 42.667 121.333 65.334 220 68.001h3c94.667 0 151.334 -20.667 170.001 -62c-166 -6 -271.333 -46.333 -316 -121
c-30.667 -51.333 -46 -98.333 -46 -141c0 -10.667 1 -20.834 3 -30.501s5 -19.5 9 -29.5h334v-333zM555.998 -704.997c0 18 3.83398 34.3311 11.501 48.998s19.167 25.334 34.5 32.001c12.667 7.33301 25.667 11 39 11c12 0 23.333 -2.66699 34 -8l23 -19
c4 -2 7.16699 -5.16699 9.5 -9.5s4.5 -7.83301 6.5 -10.5c7.33301 -10 11 -23.333 11 -40c0 -10.667 -3.66699 -23.667 -11 -39c-10.667 -22.667 -25.334 -36.334 -44.001 -41.001c-7.33301 -3.33301 -17 -5 -29 -5c-13.333 0 -26.333 3.33301 -39 10
c-18 10.667 -30.167 20.834 -36.5 30.501s-9.5 22.834 -9.5 39.501zM601.999 -600.999c-18 10.667 -30.165 20.3311 -36.498 28.998s-9.5 22.334 -9.5 41.001c0 18 3.83301 34 11.5 48s19.167 25.333 34.5 34c12.667 6 25.667 9 39 9c12 0 23.333 -2.33301 34 -7l23 -18
c7.33301 -5.33301 12.666 -12.666 15.999 -21.999c7.33301 -8 11 -21.667 11 -41c0 -7.33301 -3.66699 -18.333 -11 -33c-3.33301 -12 -9.33301 -21.833 -18 -29.5s-17.334 -12.5 -26.001 -14.5c-7.33301 -4 -17 -6 -29 -6c-13.333 0 -26.333 3.33301 -39 10z" />
    <glyph glyph-name="uniFBE5" unicode="&#x6d0;" horiz-adv-x="1200" arabic-form="final" 
d="M1216 9l-292.001 0.000976562v373c-4.66699 41.333 -15 72.333 -31 93c-14 17.333 -32.667 26 -56 26h-9c-52 -4 -78 -40.333 -78 -109v-530c-10 -57.333 -31.5 -105.333 -64.5 -144s-73.833 -66.667 -122.5 -84c-25.333 -8.66699 -51.5 -15.167 -78.5 -19.5
s-52.5 -6.5 -76.5 -6.5c-22.667 0 -47.334 2.16699 -74.001 6.5s-51 10.833 -73 19.5c-48 17.333 -85.667 44.333 -113 81s-43.666 81.667 -48.999 135v412c0 38 -12 57 -36 57c-8 0 -19.667 -3 -35 -9l240 176v-578c4.66699 -74 53 -111 145 -111h12
c98 0.666992 149 37.667 153 111v459c0 113.333 33.333 200 100 260c45.333 38.667 95 58 149 58c28.667 0 60.667 -5.66699 96 -17c92.667 -34.667 146.334 -106.334 161.001 -215.001v-111h132v-333zM361.999 -682.999c0 18.667 3.99902 34.999 11.999 48.999
s20 25.333 36 34c12.667 8 26.334 12 41.001 12c12.667 0 24.667 -2.66699 36 -8l24 -20c3.33301 -1.33301 6.5 -4.16602 9.5 -8.49902s4.83301 -8.83301 5.5 -13.5c7.33301 -10 11 -23 11 -39c0 -10 -3.66699 -23 -11 -39c-10 -24.667 -26 -39 -48 -43
c-5.33301 -6.66699 -14.333 -10 -27 -10c-14.667 0 -28.334 4.66699 -41.001 14c-17.333 11.333 -29.666 21.833 -36.999 31.5s-11 23.167 -11 40.5zM409.998 -577c-17.333 12.667 -29.666 23.498 -36.999 32.498s-11 22.833 -11 41.5s4 35.334 12 50.001
s20 25.334 36 32.001c12.667 6 26.334 9 41.001 9c12.667 0 24.667 -1.33301 36 -4l24 -20c7.33301 -5.33301 12.333 -12.666 15 -21.999c7.33301 -8.66699 11 -21.667 11 -39c0 -10 -3.66699 -23 -11 -39c-4 -11.333 -10.333 -21.333 -19 -30
s-18.334 -13.334 -29.001 -14.001c-5.33301 -3.33301 -14.333 -5 -27 -5c-14.667 0 -28.334 2.66699 -41.001 8z" />
    <glyph glyph-name="uniFBE6" unicode="&#x6d0;" horiz-adv-x="587" arabic-form="initial" 
d="M143 -539c0 20.667 5.16895 39.834 15.502 57.501s26.166 31.5 47.499 41.5c6 4.66699 13.5 8.16699 22.5 10.5s17.5 3.5 25.5 3.5c13.333 0 27.333 -3.33301 42 -10l28 -22c4 -2.66699 7.66699 -6.66699 11 -12l9 -14c4 -6 7.16699 -13.5 9.5 -22.5s3.5 -18.5 3.5 -28.5
c0 -11.333 -4.33301 -26.666 -13 -45.999c-14.667 -28 -34 -45 -58 -51c-8 -4 -18.667 -6 -32 -6c-18.667 0 -34.667 3.33301 -48 10c-22.667 13.333 -38.834 26.166 -48.501 38.499s-14.5 29.166 -14.5 50.499zM143.002 -222c0 20 5.16895 38.999 15.502 56.999
s26.166 31.333 47.499 40c6 4 13.5 7.66699 22.5 11s17.5 5 25.5 5c13.333 0 27.333 -3.33301 42 -10l28 -23c4 -4 7.66699 -8.16699 11 -12.5s6.33301 -9.16602 9 -14.499c4 -6.66699 7.16699 -14 9.5 -22s3.5 -17 3.5 -27c0 -12 -4.33301 -27.667 -13 -47
c-14.667 -27.333 -34 -44.333 -58 -51c-8 -4 -18.667 -6 -32 -6c-18.667 0 -34.667 3.66699 -48 11c-22.667 12 -38.834 24.167 -48.501 36.5s-14.5 29.833 -14.5 52.5zM-7.99609 8.99902l-0.000976562 333h348v309c0 26.667 -13.667 40 -41 40
c-11.333 0 -21.666 -1.33301 -30.999 -4l240 198v-876h-516z" />
    <glyph glyph-name="uniFBE7" unicode="&#x6d0;" horiz-adv-x="542" arabic-form="medial" 
d="M159 -545c0 20 5.16797 38.998 15.501 56.998s25.166 31.333 44.499 40c13.333 10.667 29.666 16 48.999 16c12.667 0 26.667 -3.33301 42 -10l29 -22c4 -4 7.5 -8 10.5 -12s5.83301 -8.66699 8.5 -14c4 -6 7.33301 -13.5 10 -22.5s4 -18.167 4 -27.5
c0 -11.333 -4.66699 -26.666 -14 -45.999c-6.66699 -14 -15 -25.5 -25 -34.5s-21 -15.5 -33 -19.5c-6 -4.66699 -16.667 -7 -32 -7c-7.33301 0 -15.5 1.66699 -24.5 5s-17.167 7 -24.5 11c-19.333 9.33301 -34.166 20.833 -44.499 34.5s-15.5 30.834 -15.5 51.501z
M159.001 -230.002c0 20.667 5.16797 39.5029 15.501 56.5029s25.166 30.833 44.499 41.5c13.333 8.66699 29.666 13 48.999 13c12.667 0 26.667 -2.33301 42 -7l29 -24c4 -3.33301 7.5 -7.33301 10.5 -12s5.83301 -9.33398 8.5 -14.001
c4 -6.66699 7.33301 -13.834 10 -21.501s4 -16.5 4 -26.5c0 -11.333 -4.66699 -27.333 -14 -48c-13.333 -26 -32.666 -43 -57.999 -51c-6.66699 -4 -17.334 -6 -32.001 -6c-7.33301 0 -15.5 1.5 -24.5 4.5s-17.167 6.5 -24.5 10.5
c-19.333 9.33301 -34.166 20.166 -44.499 32.499s-15.5 29.5 -15.5 51.5zM-13.998 9.00098v333h223v246c0 24 -11 36 -33 36c-11.333 0 -26 -3.66699 -44 -11l250 199v-470h170v-333h-566z" />
    <glyph glyph-name="uniFBE8" unicode="&#x649;" horiz-adv-x="587" arabic-form="initial" 
d="M-16 9l-0.000976562 333h348v309c0 26.667 -13.667 40 -41 40c-11.333 0 -21.666 -1.33301 -30.999 -4l240 198v-876h-516z" />
    <glyph glyph-name="uniFBE9" unicode="&#x649;" horiz-adv-x="590" arabic-form="medial" 
d="M-4 9v333h223v246c0 24 -11 36 -33 36c-11.333 0 -26 -3.66699 -44 -11l250 199v-470h209v-333h-605z" />
    <glyph glyph-name="uniFBFC" unicode="&#x6cc;" horiz-adv-x="1215" arabic-form="isolated" 
d="M1116 9l-6.00293 -77c-20 -117.333 -68 -204 -144 -260c-76.667 -54.667 -171.334 -87.334 -284.001 -98.001c-11.333 -0.666992 -23.5 -1.66699 -36.5 -3s-24.833 -2 -35.5 -2c-89.333 0 -180.666 16.333 -273.999 49c-117.333 42.667 -185.666 137.667 -204.999 285
v362c0 36.667 -12 55 -36 55c-8 0 -19.667 -2.33301 -35 -7l240 173v-515c10.667 -66 41 -116.333 91 -151s121 -52 213 -52h19c6 0 12.667 0.666992 20 2c195.333 8 293 76.333 293 205c0 5.33301 -0.333008 11.166 -1 17.499s-2 11.833 -4 16.5h-321v448
c0.666992 29.333 3.5 56.833 8.5 82.5s12.167 48.5 21.5 68.5c18 42.667 51 84.334 99 125.001c48 44 121.333 66.333 220 67h11c90 0 144 -19.667 162 -59c-82.667 -4 -150.167 -16.167 -202.5 -36.5s-90.166 -49.166 -113.499 -86.499
c-13.333 -22.667 -24.333 -49.167 -33 -79.5s-13 -61.833 -13 -94.5c0 -15.333 1.33301 -32.5 4 -51.5s5.33398 -35.833 8.00098 -50.5h334v-333z" />
    <glyph glyph-name="uniFBFD" unicode="&#x6cc;" horiz-adv-x="1234" arabic-form="final" 
d="M1254 9l-330.001 -0.000976562v489c-4.66699 38.667 -15 68.334 -31 89.001c-14 18 -32.667 27 -56 27h-9c-52 -4 -78 -40 -78 -108v-644c-10 -57.333 -31.5 -105.333 -64.5 -144s-73.833 -66.667 -122.5 -84c-25.333 -8.66699 -51.5 -15.167 -78.5 -19.5
s-52.5 -6.5 -76.5 -6.5c-22.667 0 -47.334 2.16699 -74.001 6.5s-51 10.833 -73 19.5c-48 17.333 -85.667 44.333 -113 81s-43.666 81.667 -48.999 135v412c0 38 -12 57 -36 57c-8 0 -19.667 -3 -35 -9l240 176v-578c4.66699 -74 53 -111 145 -111h12
c98 0.666992 149 37.667 153 111v572c0 114 33.333 200.333 100 259c45.333 38 95 57 149 57c28.667 0 60.667 -5.33301 96 -16c92.667 -34 146.334 -105.333 161.001 -214v-224h170v-333z" />
    <glyph glyph-name="uniFBFE" unicode="&#x6cc;" horiz-adv-x="743" arabic-form="initial" 
d="M114 -218c17.333 10 35.667 15.0029 55 15.0029c15.333 0 26 -2 32 -6c28 -8.66699 50 -29 66 -61c8.66699 -20.667 13 -38 13 -52c0 -21.333 -4.33301 -40.333 -13 -57c-3.33301 -4 -6.66602 -8.83301 -9.99902 -14.5s-8 -10.5 -14 -14.5l-15 -12.5
c-5.33301 -4.33301 -11 -8.5 -17 -12.5c-12.667 -6.66699 -26.667 -10 -42 -10c-8.66699 0 -18.334 1.66699 -29.001 5l-26 8c-21.333 13.333 -37.5 30.166 -48.5 50.499s-16.5 41.5 -16.5 63.5c0 25.333 5 44.666 15 57.999s26.667 26.666 50 39.999zM459.001 -217.997
c18 10 36.334 15 55.001 15c15.333 0 27 -2 35 -6c28 -10 49.667 -30.333 65 -61c8 -21.333 12 -38.666 12 -51.999c0 -10 -1.33301 -20.167 -4 -30.5s-5.66699 -19.166 -9 -26.499c-3.33301 -4 -6.83301 -8.83301 -10.5 -14.5s-7.5 -10.5 -11.5 -14.5
c-4.66699 -4 -10 -8.16699 -16 -12.5s-11.333 -8.5 -16 -12.5c-14.667 -6.66699 -29.667 -10 -45 -10c-10 0 -19.833 1.16699 -29.5 3.5s-18.167 5.5 -25.5 9.5c-20.667 13.333 -36.334 30.166 -47.001 50.499s-16 41.5 -16 63.5c0 13.333 1 24.5 3 33.5
s5.33301 17.167 10 24.5s11.167 14.166 19.5 20.499s18.5 12.833 30.5 19.5zM-3.99805 9.00293v333h499v309c0 26.667 -13.667 40 -41 40c-9.33301 0 -19.333 -1.33301 -30 -4l242 198v-876h-670z" />
    <glyph glyph-name="uniFBFF" unicode="&#x6cc;" horiz-adv-x="721" arabic-form="medial" 
d="M175 -218c16.667 10 34.667 15 54 15c16 0 27 -2 33 -6c27.333 -8.66699 49.333 -29 66 -61c10.667 -23.333 16 -40.666 16 -51.999c0 -10 -1.66699 -20.167 -5 -30.5s-7 -19.166 -11 -26.499c-2 -4 -5 -8.83301 -9 -14.5s-8.33301 -10.5 -13 -14.5
c-6 -4 -11.5 -8.16699 -16.5 -12.5s-10.167 -8.5 -15.5 -12.5c-14 -6.66699 -29 -10 -45 -10c-8 0 -17.167 1.66699 -27.5 5s-19.166 6 -26.499 8c-20.667 13.333 -36.834 30.166 -48.501 50.499s-17.5 41.5 -17.5 63.5c0 13.333 1.33301 24.5 4 33.5
s6.66699 17.167 12 24.5s12 14.166 20 20.499s18 12.833 30 19.5zM520 -218c18 10 36.668 15.002 56.001 15.002c16.667 0 28 -2 34 -6c28 -8.66699 49.667 -29 65 -61c10 -20.667 15 -38 15 -52c0 -10 -1.66699 -20.167 -5 -30.5s-7 -19.166 -11 -26.499l-10 -14.5
c-4 -5.66699 -8 -10.5 -12 -14.5c-6 -4 -11.167 -8.16699 -15.5 -12.5s-9.83301 -8.5 -16.5 -12.5c-12.667 -6.66699 -27.334 -10 -44.001 -10c-9.33301 0 -19.166 1.66699 -29.499 5s-19.166 6 -26.499 8c-20.667 13.333 -36.334 30.166 -47.001 50.499s-16 41.5 -16 63.5
c0 25.333 5.16699 44.666 15.5 57.999s26.166 26.666 47.499 39.999zM-3.99902 9.00195v333h348v246c0 24 -10.333 36 -31 36c-11.333 0 -26.333 -3.66699 -45 -11l250 199v-470h210v-333h-732z" />
    <glyph glyph-name="uniFC5E" unicode="&#xfc5e;" horiz-adv-x="0" arabic-form="isolated" 
d="M503 1632c0 -26.667 -4.16602 -51.666 -12.499 -74.999s-20.166 -47 -35.499 -71c10.667 -7.33301 19 -15.333 25 -24s9 -17.334 9 -26.001c0 -34 -2.33301 -66 -7 -96l-93 73c-33.333 -38.667 -70.666 -68.667 -111.999 -90c-50.667 -26 -107.334 -39 -170.001 -39
c28.667 47.333 44.334 74 47.001 80c8.66699 19.333 13 38 13 56c0 16.667 -3.66699 31.834 -11 45.501s-17.333 20.5 -30 20.5c-14.667 0 -28.667 -9 -42 -27c-4.66699 -7.33301 -14.334 -23.333 -29.001 -48c5.33301 50 12 86.333 20 109c14 39.333 37.333 59 70 59
c24.667 0 44 -11.833 58 -35.5s21 -50.5 21 -80.5c0 -16 -1.66699 -31.333 -5 -46c-4.66699 -20.667 -8.33398 -36.334 -11.001 -47.001c49.333 14 96.666 38 141.999 72c-12 11.333 -23.667 23.333 -35 36c-18.667 20.667 -28 42.334 -28 65.001c0 34 13.667 67.667 41 101
c31.333 38 66 57 104 57c20 0 36.833 -6.83301 50.5 -20.5s20.5 -29.834 20.5 -48.501zM425.001 1568c0 16.667 -4.16699 31.668 -12.5 45.001s-19.833 20 -34.5 20c-15.333 0 -23 -9.66699 -23 -29c0 -13.333 6.33301 -27 19 -41c3.33301 -4.66699 16 -16.334 38 -35.001
c8.66699 12.667 13 26 13 40zM450.001 1201c0 -54.667 -8.99902 -99.332 -26.999 -133.999c-21.333 -38.667 -50.333 -58 -87 -58c-12.667 0 -24.5 2.16699 -35.5 6.5s-23.167 11.5 -36.5 21.5c-15.333 -26 -29.333 -45.667 -42 -59
c-23.333 -22.667 -47.666 -34 -72.999 -34c-30 0 -52.5 10.167 -67.5 30.5s-22.5 48.5 -22.5 84.5c0 18.667 2.5 37 7.5 55s12.167 38.333 21.5 61l23 10c0 -5.33301 -0.833008 -14.5 -2.5 -27.5s-2.5 -23.833 -2.5 -32.5c0 -15.333 3.33301 -29.5 10 -42.5
s16.334 -19.5 29.001 -19.5c30.667 0 55.667 20.333 75 61c8 18.667 18.667 55 32 109l23 6c5.33301 -35.333 9.66602 -57 12.999 -65c9.33301 -22 23.666 -33 42.999 -33c28 0 49.667 18 65 54c13.333 28.667 20 58.667 20 90l22 6
c3.33301 -14 6.16602 -29.333 8.49902 -46s3.5 -31.334 3.5 -44.001z" />
    <glyph glyph-name="uniFC5F" unicode="&#xfc5f;" horiz-adv-x="0" arabic-form="isolated" 
d="M469 1670c0 -54.667 -8.99902 -99.332 -26.999 -133.999c-21.333 -38.667 -50.333 -58 -87 -58c-12.667 0 -24.5 2.16699 -35.5 6.5s-23.167 11.5 -36.5 21.5c-15.333 -26 -29.333 -45.667 -42 -59c-23.333 -22.667 -47.666 -34 -72.999 -34
c-30 0 -52.5 10.167 -67.5 30.5s-22.5 48.5 -22.5 84.5c0 18.667 2.5 37 7.5 55s12.167 38.333 21.5 61l23 10c0 -5.33301 -0.833008 -14.5 -2.5 -27.5s-2.5 -23.833 -2.5 -32.5c0 -15.333 3.33301 -29.5 10 -42.5s16.334 -19.5 29.001 -19.5c30.667 0 55.667 20.333 75 61
c8 18.667 18.667 55 32 109l23 6c5.33301 -35.333 9.66602 -57 12.999 -65c9.33301 -22 23.666 -33 42.999 -33c28 0 49.667 18 65 54c13.333 28.667 20 58.667 20 90l22 6c3.33301 -14 6.16602 -29.333 8.49902 -46s3.5 -31.334 3.5 -44.001zM471.001 1440
c0 -33.333 -18 -65.334 -54 -96.001l-314 -126c0 30.667 15.667 60.334 47 89.001zM471.001 1279c0 -34.667 -4.66699 -56.168 -14 -64.501l-39 -33.5l-315 -127c0 30.667 15.667 60.334 47 89.001z" />
    <glyph glyph-name="uniFC60" unicode="&#xfc60;" horiz-adv-x="0" arabic-form="isolated" 
d="M471 1697c0 -33.333 -18.333 -66.333 -55 -99l-313 -124c0 31.333 15.667 61.333 47 90zM476 1413c0 -54.667 -8.99902 -99.332 -26.999 -133.999c-21.333 -38.667 -50.333 -58 -87 -58c-12.667 0 -24.5 2.16699 -35.5 6.5s-23.167 11.5 -36.5 21.5
c-15.333 -26 -29.333 -45.667 -42 -59c-23.333 -22.667 -47.666 -34 -72.999 -34c-30 0 -52.5 10.167 -67.5 30.5s-22.5 48.5 -22.5 84.5c0 18.667 2.5 37 7.5 55s12.167 38.333 21.5 61l23 10c0 -5.33301 -0.833008 -14.5 -2.5 -27.5s-2.5 -23.833 -2.5 -32.5
c0 -15.333 3.33301 -29.5 10 -42.5s16.334 -19.5 29.001 -19.5c30.667 0 55.667 20.333 75 61c8 18.667 18.667 55 32 109l23 6c5.33301 -35.333 9.66602 -57 12.999 -65c9.33301 -22 23.666 -33 42.999 -33c28 0 49.667 18 65 54c13.333 28.667 20 58.667 20 90l22 6
c3.33301 -14 6.16602 -29.333 8.49902 -46s3.5 -31.334 3.5 -44.001z" />
    <glyph glyph-name="uniFC61" unicode="&#xfc61;" horiz-adv-x="0" arabic-form="isolated" 
d="M429 1554c0 -12 -1.16699 -24.667 -3.5 -38s-4.5 -26.333 -6.5 -39l-89 54l-73 -79c-54 -51.333 -99 -77 -135 -77h-78c38 17.333 82.333 46.333 133 87c46.667 36.667 81.667 69 105 97c-22 14 -39 28.333 -51 43c-14 19.333 -21 40 -21 62c0 47.333 13.833 89 41.5 125
s57.834 54 90.501 54c18 0 34.5 -9.83301 49.5 -29.5s22.5 -44.167 22.5 -73.5c0 -13.333 -1.83301 -27.333 -5.5 -42s-12.834 -42 -27.501 -82c12 -10 24 -19.333 36 -28c8 -8 12 -19.333 12 -34zM348 1676c0 19.333 -6.83203 37.167 -20.499 53.5
s-26.834 24.5 -39.501 24.5c-7.33301 0 -13 -2.5 -17 -7.5s-6 -9.83301 -6 -14.5c0 -16 9 -32.667 27 -50l47 -37c6 14.667 9 25 9 31zM440.001 1324c0 -54.667 -8.99902 -99.332 -26.999 -133.999c-21.333 -38.667 -50.333 -58 -87 -58c-12.667 0 -24.5 2.16699 -35.5 6.5
s-23.167 11.5 -36.5 21.5c-15.333 -26 -29.333 -45.667 -42 -59c-23.333 -22.667 -47.666 -34 -72.999 -34c-30 0 -52.5 10.167 -67.5 30.5s-22.5 48.5 -22.5 84.5c0 18.667 2.5 37 7.5 55s12.167 38.333 21.5 61l23 10c0 -5.33301 -0.833008 -14.5 -2.5 -27.5
s-2.5 -23.833 -2.5 -32.5c0 -15.333 3.33301 -29.5 10 -42.5s16.334 -19.5 29.001 -19.5c30.667 0 55.667 20.333 75 61c8 18.667 18.667 55 32 109l23 6c5.33301 -35.333 9.66602 -57 12.999 -65c9.33301 -22 23.666 -33 42.999 -33c28 0 49.667 18 65 54
c13.333 28.667 20 58.667 20 90l22 6c3.33301 -14 6.16602 -29.333 8.49902 -46s3.5 -31.334 3.5 -44.001z" />
    <glyph glyph-name="uniFC62" unicode="&#xfc62;" horiz-adv-x="0" arabic-form="isolated" 
d="M441 1664c0 -54.667 -8.99902 -99.332 -26.999 -133.999c-21.333 -38.667 -50.333 -58 -87 -58c-12.667 0 -24.5 2.16699 -35.5 6.5s-23.167 11.5 -36.5 21.5c-15.333 -26 -29.333 -45.667 -42 -59c-23.333 -22.667 -47.666 -34 -72.999 -34
c-30 0 -52.5 10.167 -67.5 30.5s-22.5 48.5 -22.5 84.5c0 18.667 2.5 37 7.5 55s12.167 38.333 21.5 61l23 10c0 -5.33301 -0.833008 -14.5 -2.5 -27.5s-2.5 -23.833 -2.5 -32.5c0 -15.333 3.33301 -29.5 10 -42.5s16.334 -19.5 29.001 -19.5c30.667 0 55.667 20.333 75 61
c8 18.667 18.667 55 32 109l23 6c5.33301 -35.333 9.66602 -57 12.999 -65c9.33301 -22 23.666 -33 42.999 -33c28 0 49.667 18 65 54c13.333 28.667 20 58.667 20 90l22 6c3.33301 -14 6.16602 -29.333 8.49902 -46s3.5 -31.334 3.5 -44.001zM440.001 1408
c0 -33.333 -18.333 -66.333 -55 -99l-313 -124c0 31.333 15.667 61.333 47 90z" />
    <glyph glyph-name="$FDF2" unicode="&#xfdf2;" horiz-adv-x="2161" arabic-form="isolated" 
d="M444 428c0 57.333 -30 86 -90 86s-90 -28.667 -90 -86c0 -59.333 34 -89 102 -89c52 0 78 29.667 78 89zM1929 13v1170c0.666992 5.33301 1 10.333 1 15c0 51.333 -22.667 77 -68 77c-12.667 0 -30.667 -2.66699 -54 -8l286 243v-1497h-165zM1012 1839
c10 -35.333 15 -79 15 -131c0 -88 -19.667 -132 -59 -132v8c0 60 -7.66699 118 -23 174zM1162 1584c0 -133.333 -33.999 -200 -101.999 -200c-24.667 0 -44.334 9.33301 -59.001 28c-18.667 -56.667 -50.667 -85 -96 -85c-50.667 0 -76 30 -76 90c0 22 4 49.667 12 83l64 11
c-8 -24.667 -12 -44.667 -12 -60c0 -20.667 7.33301 -31 22 -31c28.667 0 46.334 37.667 53.001 113l70 21l-3 -47c0.666992 -20.667 9 -31 25 -31c17.333 0 28.666 7.33301 33.999 22c2 8.66699 3.33301 31 4 67zM110.001 9v483c0 42.667 19.333 93.667 58 153
c38 58.667 106 93 204 103c96.667 9.33301 174.667 51 234 125v-531h342v661c-4.66699 58 -30.667 87 -78 87c-14.667 0 -29.667 -2 -45 -6l286 245v-987h403v813c-4 30 -12.5 52.667 -25.5 68s-29.833 23 -50.5 23c-7.33301 0 -14.5 -0.333008 -21.5 -1
s-15.167 -3 -24.5 -7l285 244v-1473h-1567z" />
    <glyph glyph-name="uniFE80" unicode="&#x621;" horiz-adv-x="670" arabic-form="isolated" 
d="M543 345c-34.667 -9.33301 -69.332 -15.999 -103.999 -19.999c-26.667 -3.33301 -52 -5 -76 -5h-22c-24.667 0 -44.167 -6.33301 -58.5 -19s-21.5 -32 -21.5 -58v-17c0 -6.66699 0.333008 -13.334 1 -20.001h281v-182h-467v286c15.333 81.333 45 136 89 164
c45.333 28 107.666 42 186.999 42h13c72.667 0 132 16.667 178 50v-221z" />
    <glyph glyph-name="uniFE81" unicode="&#x622;" horiz-adv-x="438" arabic-form="isolated" 
d="M181 13v1170c0.666992 5.33301 1 10.333 1 15c0 51.333 -22.667 77 -68 77c-12.667 0 -30.667 -2.66699 -54 -8l286 243v-1497h-165zM438 1726c-12 -42 -34.8311 -72.167 -68.498 -90.5s-88.167 -27.5 -163.5 -27.5h-26c-8 0 -16.333 -0.666992 -25 -2
c-8.66699 0 -18 -1.16699 -28 -3.5s-18.667 -4.16602 -26 -5.49902c-38.667 -6 -64.667 -15.333 -78 -28c13.333 36 34.333 63 63 81c15.333 7.33301 34.666 13.666 57.999 18.999c11.333 2 23.5 3.66699 36.5 5s27.167 2 42.5 2c40 0 80.667 4 122 12
c19.333 4 36.666 9.16699 51.999 15.5s29 13.833 41 22.5z" />
    <glyph glyph-name="uniFE82" unicode="&#x622;" horiz-adv-x="551" arabic-form="final" 
d="M165 1179c-6 60.667 -31 91 -75 91c-14 0 -29.333 -3 -46 -9l286 246v-1165h238v-333h-403v1170zM421 1735c-12 -42 -34.8311 -72.167 -68.498 -90.5s-88.167 -27.5 -163.5 -27.5h-26c-8 0 -16.333 -0.666992 -25 -2c-8.66699 0 -18 -1.16699 -28 -3.5
s-18.667 -4.16602 -26 -5.49902c-38.667 -6 -64.667 -15.333 -78 -28c13.333 36 34.333 63 63 81c15.333 7.33301 34.666 13.666 57.999 18.999c11.333 2 23.5 3.66699 36.5 5s27.167 2 42.5 2c40 0 80.667 4 122 12c19.333 4 36.666 9.16699 51.999 15.5s29 13.833 41 22.5
z" />
    <glyph glyph-name="uniFE83" unicode="&#x623;" horiz-adv-x="438" arabic-form="isolated" 
d="M181 13v1170c0.666992 5.33301 1 10.333 1 15c0 51.333 -22.667 77 -68 77c-12.667 0 -30.667 -2.66699 -54 -8l286 243v-1497h-165zM342 1718c-16.667 -4.66699 -33.668 -8.00098 -51.001 -10.001c-12.667 -1.33301 -25 -2 -37 -2h-11c-12 0 -21.5 -3.16699 -28.5 -9.5
s-10.5 -15.833 -10.5 -28.5v-8c0 -3.33301 0.333008 -6.66602 1 -9.99902h137v-89h-228v140c6.66699 40 21 66.667 43 80c22.667 14 53.334 21 92.001 21h8c34.667 0 63 8 85 24v-108z" />
    <glyph glyph-name="uniFE84" unicode="&#x623;" horiz-adv-x="551" arabic-form="final" 
d="M165 1179c-6 60.667 -31 91 -75 91c-14 0 -29.333 -3 -46 -9l286 246v-1165h238v-333h-403v1170zM342 1718c-16.667 -4.66699 -33.668 -8.00098 -51.001 -10.001c-12.667 -1.33301 -25 -2 -37 -2h-11c-12 0 -21.5 -3.16699 -28.5 -9.5s-10.5 -15.833 -10.5 -28.5v-8
c0 -3.33301 0.333008 -6.66602 1 -9.99902h137v-89h-228v140c6.66699 40 21 66.667 43 80c22.667 14 53.334 21 92.001 21h8c34.667 0 63 8 85 24v-108z" />
    <glyph glyph-name="uniFE85" unicode="&#x624;" horiz-adv-x="751" arabic-form="isolated" 
d="M455 428c0 57.333 -30 86 -90 86s-90 -28.667 -90 -86c0 -59.333 33.667 -89 101 -89c52.667 0 79 29.667 79 89zM123 9l-0.000976562 483.001c0 42.667 18.667 93.667 56 153c38.667 58.667 106.334 93 203.001 103c98 9.33301 177 51 237 125v-994
c-13.333 -195.333 -59.333 -313 -138 -353c-49.333 -25.333 -98.333 -38 -147 -38c-34 0 -68.333 6 -103 18c-61.333 18 -92 30.333 -92 37c0 3.33301 5.33301 5 16 5c40 2 99.333 22.333 178 61c72 35.333 108 112.666 108 231.999c0 8 -0.333008 16.333 -1 25v143h-317z
M613.999 1312c-34 -9.33301 -68.333 -15.999 -103 -19.999c-27.333 -3.33301 -52.666 -5 -75.999 -5h-22c-24.667 0 -44.334 -6.33301 -59.001 -19s-22 -32 -22 -58v-17c0 -6.66699 0.666992 -13.334 2 -20.001h280v-182h-466v287c14.667 80.667 44 135 88 163
c46 28 108.667 42 188 42h12c72.667 0 132 16.667 178 50v-221z" />
    <glyph glyph-name="uniFE86" unicode="&#x624;" horiz-adv-x="804" arabic-form="final" 
d="M462 428c0 57.333 -30 86 -90 86s-90 -28.667 -90 -86c0 -59.333 34 -89 102 -89c52 0 78 29.667 78 89zM128 9l0.000976562 483c0 42.667 19.333 93.667 58 153c38 58.667 106 93 204 103c96.667 9.33301 174.667 51 234 125v-531h198v-333h-198v-130
c0 -80 -9.5 -146.833 -28.5 -200.5s-46.833 -96.167 -83.5 -127.5c-25.333 -19.333 -54.5 -35 -87.5 -47s-65.833 -18 -98.5 -18c-24.667 0 -50.334 3.33301 -77.001 10c-61.333 12.667 -92 22.667 -92 30c0 4 12 8 36 12c65.333 6.66699 125 30 179 70c50 38 75 113 75 225
v33l-2 143h-317zM603.001 1312c-34 -9.33301 -68.333 -15.999 -103 -19.999c-27.333 -3.33301 -52.666 -5 -75.999 -5h-22c-24.667 0 -44.334 -6.33301 -59.001 -19s-22 -32 -22 -58v-17c0 -6.66699 0.666992 -13.334 2 -20.001h280v-182h-466v287
c14.667 80.667 44 135 88 163c46 28 108.667 42 188 42h12c72.667 0 132 16.667 178 50v-221z" />
    <glyph glyph-name="uniFE87" unicode="&#x625;" horiz-adv-x="438" arabic-form="isolated" 
d="M181 13v1170c0.666992 5.33301 1 10.333 1 15c0 51.333 -22.667 77 -68 77c-12.667 0 -30.667 -2.66699 -54 -8l286 243v-1497h-165zM342 -199c-16.667 -4.66699 -33.667 -8.00098 -51 -10.001c-12.667 -1.33301 -25 -2 -37 -2h-11c-12 0 -21.5 -3.16699 -28.5 -9.5
s-10.5 -15.833 -10.5 -28.5v-8c0 -3.33301 0.333008 -6.66602 1 -9.99902h137v-89h-228v140c6.66699 40 21 66.667 43 80c22 14 52.667 21 92 21h8c34.667 0 63 8 85 24v-108z" />
    <glyph glyph-name="uniFE88" unicode="&#x625;" horiz-adv-x="551" arabic-form="final" 
d="M165 1179c-6 60.667 -31 91 -75 91c-14 0 -29.333 -3 -46 -9l286 246v-1165h238v-333h-403v1170zM342 -196c-16.667 -4.66699 -33.667 -8 -51 -10c-12.667 -1.33301 -25 -2 -37 -2h-11c-12 0 -21.5 -3 -28.5 -9s-10.5 -15.667 -10.5 -29v-8
c0 -3.33301 0.333008 -6.66602 1 -9.99902h137v-89h-228v141c6.66699 39.333 21 65.666 43 78.999c22 14 52.667 21 92 21h4c36 0 65.667 8 89 24v-108z" />
    <glyph glyph-name="uniFE89" unicode="&#x626;" horiz-adv-x="1215" arabic-form="isolated" 
d="M1116 9l-6.00293 -77c-20 -117.333 -68 -204 -144 -260c-76.667 -54.667 -171.334 -87.334 -284.001 -98.001c-11.333 -0.666992 -23.5 -1.66699 -36.5 -3s-24.833 -2 -35.5 -2c-89.333 0 -180.666 16.333 -273.999 49c-117.333 42.667 -185.666 137.667 -204.999 285
v362c0 36.667 -12 55 -36 55c-8 0 -19.667 -2.33301 -35 -7l240 173v-515c10.667 -66 41 -116.333 91 -151s121 -52 213 -52h19c6 0 12.667 0.666992 20 2c195.333 8 293 76.333 293 205c0 5.33301 -0.333008 11.166 -1 17.499s-2 11.833 -4 16.5h-321v448
c0.666992 29.333 3.5 56.833 8.5 82.5s12.167 48.5 21.5 68.5c18 42.667 51 84.334 99 125.001c48 44 121.333 66.333 220 67h9c91.333 0 146 -19.667 164 -59c-82.667 -4 -150.167 -16.167 -202.5 -36.5s-90.166 -49.166 -113.499 -86.499
c-13.333 -22.667 -24.333 -49.167 -33 -79.5s-13 -61.833 -13 -94.5c0 -15.333 1.33301 -32.5 4 -51.5s5.33398 -35.833 8.00098 -50.5h334v-333zM575.997 1052c-52.667 -14.667 -102.667 -22 -150 -22h-27c-36.667 0 -55 -21.333 -55 -64c0 -9.33301 0.666992 -19 2 -29
h230v-148h-382v234c11.333 66.667 36 111.667 74 135c36.667 22.667 87.667 34 153 34c64 0 115.667 14 155 42v-182z" />
    <glyph glyph-name="uniFE8A" unicode="&#x626;" horiz-adv-x="1234" arabic-form="final" 
d="M1254 9l-330.001 -0.000976562v489c-4.66699 38.667 -15 68.334 -31 89.001c-14 18 -32.667 27 -56 27h-9c-52 -4 -78 -40 -78 -108v-644c-10 -57.333 -31.5 -105.333 -64.5 -144s-73.833 -66.667 -122.5 -84c-25.333 -8.66699 -51.5 -15.167 -78.5 -19.5
s-52.5 -6.5 -76.5 -6.5c-22.667 0 -47.334 2.16699 -74.001 6.5s-51 10.833 -73 19.5c-48 17.333 -85.667 44.333 -113 81s-43.666 81.667 -48.999 135v412c0 38 -12 57 -36 57c-8 0 -19.667 -3 -35 -9l240 176v-578c4.66699 -74 53 -111 145 -111h12
c98 0.666992 149 37.667 153 111v572c0 114 33.333 200.333 100 259c45.333 38 95 57 149 57c28.667 0 60.667 -5.33301 96 -16c92.667 -34 146.334 -105.333 161.001 -214v-224h170v-333zM574.999 1052c-52.667 -14.667 -102.666 -22 -149.999 -22h-27
c-38 0 -57 -21.333 -57 -64c0 -9.33301 1.33301 -19 4 -29h230v-148h-384v234c12.667 66.667 37 111.667 73 135c37.333 22.667 88.666 34 153.999 34c64.667 0 117 14 157 42v-182z" />
    <glyph glyph-name="uniFE8B" unicode="&#x626;" horiz-adv-x="664" arabic-form="initial" 
d="M577 1333c-34 -10 -68.334 -17 -103.001 -21c-24 -3.33301 -47 -5 -69 -5c-10.667 0 -21 0.333008 -31 1c-22.667 0 -41.5 -6.5 -56.5 -19.5s-22.5 -32.167 -22.5 -57.5c0 -6 0.5 -12.167 1.5 -18.5s1.5 -12.5 1.5 -18.5h279v-183h-467v287
c14.667 80.667 44.334 135 89.001 163c46.667 28 108.667 42 186 42h9c75.333 0 136.333 17 183 51v-221zM-12.001 9v333h444v271c0 26 -13.667 39 -41 39c-10 0 -20.333 -0.333008 -31 -1l254 196v-838h-626z" />
    <glyph glyph-name="uniFE8C" unicode="&#x626;" horiz-adv-x="780" arabic-form="medial" 
d="M616 1333c-63.333 -16.667 -123.667 -25 -181 -25h-33c-46.667 0 -70 -26.667 -70 -80c0 -10.667 1 -22 3 -34h281v-183h-464v287c13.333 80.667 42 135 86 163c45.333 28 107.333 42 186 42h9c75.333 0 136.333 17 183 51v-221zM-8.00098 9l0.000976562 333h358v243
c0 24.667 -10 37 -30 37c-14.667 0 -30.334 -4 -47.001 -12l249 200v-468h274v-333h-804z" />
    <glyph glyph-name="uniFE8D" unicode="&#x627;" horiz-adv-x="438" arabic-form="isolated" 
d="M181 13v1170c0.666992 5.33301 1 10.333 1 15c0 51.333 -22.667 77 -68 77c-12.667 0 -30.667 -2.66699 -54 -8l286 243v-1497h-165z" />
    <glyph glyph-name="uniFE8E" unicode="&#x627;" horiz-adv-x="551" arabic-form="final" 
d="M165 1179c-6 60.667 -31 91 -75 91c-14 0 -29.333 -3 -46 -9l286 246v-1165h238v-333h-403v1170z" />
    <glyph glyph-name="uniFE8F" unicode="&#x628;" horiz-adv-x="1455" arabic-form="isolated" 
d="M722 -241c15.333 8.66699 33.001 12.998 53.001 12.998c16.667 0 29 -2 37 -6c26.667 -8.66699 48 -28.334 64 -59.001c9.33301 -20.667 14 -38.667 14 -54c0 -21.333 -4.66699 -39.666 -14 -54.999c-3.33301 -5.33301 -7.16602 -10.666 -11.499 -15.999
s-8.5 -9.66602 -12.5 -12.999l-15 -13.5l-15 -13.5c-14.667 -6.66699 -30.334 -10 -47.001 -10c-7.33301 0 -16.333 1.66699 -27 5s-19.334 7 -26.001 11c-20.667 10.667 -36.834 26.5 -48.501 47.5s-17.5 42.5 -17.5 64.5c0 25.333 4.83301 45 14.5 59
s26.834 27.333 51.501 40zM173.001 8.99805l-0.000976562 576c0 23.333 -9.66699 35 -29 35c-12.667 0 -28.667 -4.33301 -48 -13l250 203v-468h823v309c0 22.667 -12 34 -36 34c-6.66699 0 -14.167 -0.666992 -22.5 -2s-18.166 -4.33301 -29.499 -9l257 211v-876h-1165z
" />
    <glyph glyph-name="uniFE90" unicode="&#x628;" horiz-adv-x="1496" arabic-form="final" 
d="M706 -241c15.333 8.66699 33.001 12.998 53.001 12.998c16.667 0 29 -2 37 -6c26.667 -8.66699 48 -28.334 64 -59.001c9.33301 -20.667 14 -38.667 14 -54c0 -21.333 -4.66699 -39.666 -14 -54.999c-3.33301 -5.33301 -7.16602 -10.666 -11.499 -15.999
s-8.5 -9.66602 -12.5 -12.999l-15 -13.5l-15 -13.5c-14.667 -6.66699 -30.334 -10 -47.001 -10c-7.33301 0 -16.333 1.66699 -27 5s-19.334 7 -26.001 11c-20.667 10.667 -36.834 26.5 -48.501 47.5s-17.5 42.5 -17.5 64.5c0 25.333 4.83301 45 14.5 59
s26.834 27.333 51.501 40zM157.001 8.99805l-0.000976562 576c0 23.333 -9.66699 35 -29 35c-12.667 0 -28.667 -4.33301 -48 -13l250 203v-468h823v309c0 22.667 -12 34 -36 34c-6.66699 0 -14.167 -0.666992 -22.5 -2s-18.166 -4.33301 -29.499 -9l270 211v-543h173v-333
h-1351z" />
    <glyph glyph-name="uniFE91" unicode="&#x628;" horiz-adv-x="584" arabic-form="initial" 
d="M180 -241c16 8.66699 34 12.998 54 12.998c14.667 0 26 -2 34 -6c27.333 -8.66699 49 -28.334 65 -59.001c10 -20.667 15 -38.667 15 -54c0 -21.333 -5 -39.666 -15 -54.999c-2 -5.33301 -4.83301 -10.666 -8.5 -15.999s-8.5 -9.66602 -14.5 -12.999l-16 -13.5l-16 -13.5
c-14.667 -6.66699 -29.334 -10 -44.001 -10c-9.33301 0 -19.166 1.66699 -29.499 5s-18.5 7 -24.5 11c-22 10.667 -38.333 26.5 -49 47.5s-16 42.5 -16 64.5c0 25.333 4.83301 45 14.5 59s26.5 27.333 50.5 40zM-10 8.99805v333h346v309c0 26.667 -13.667 40 -41 40
c-10 0 -20 -1.33301 -30 -4l240 198v-876h-515z" />
    <glyph glyph-name="uniFE92" unicode="&#x628;" horiz-adv-x="551" arabic-form="medial" 
d="M236 -241c16.667 8.66699 35.0029 12.998 55.0029 12.998c16 0 27.667 -2 35 -6c27.333 -8.66699 48.666 -28.334 63.999 -59.001c10 -20.667 15 -38.667 15 -54c0 -21.333 -5 -39.666 -15 -54.999c-2.66699 -5.33301 -6 -10.666 -10 -15.999
s-8.33301 -9.66602 -13 -12.999c-6 -4 -11.333 -8.5 -16 -13.5s-9.66699 -9.5 -15 -13.5c-14 -6.66699 -29 -10 -45 -10c-8.66699 0 -18.334 1.66699 -29.001 5s-19.334 7 -26.001 11c-20.667 10.667 -36.667 26.5 -48 47.5s-17 42.5 -17 64.5c0 25.333 4.83301 45 14.5 59
s26.5 27.333 50.5 40zM-3.99707 8.99805v333h223v243c0 24.667 -10.333 37 -31 37c-12.667 0 -28 -4 -46 -12l250 200v-468h170v-333h-566z" />
    <glyph glyph-name="uniFE93" unicode="&#x629;" horiz-adv-x="735" arabic-form="isolated" 
d="M452 428c0 57.333 -30 86 -90 86s-90 -28.667 -90 -86c0 -59.333 34 -89 102 -89c52 0 78 29.667 78 89zM118 492c0 42.667 19.333 93.667 58 153c38 58.667 106 93 204 103c96.667 9.33301 174.667 51 234 125v-864h-496v483zM140 1279
c17.333 8.66699 35.667 12.998 55 12.998c16 0 27.667 -2 35 -6c27.333 -8.66699 48.333 -28.334 63 -59.001c10.667 -22 16 -40 16 -54c0 -21.333 -5.33301 -40 -16 -56c-1.33301 -4.66699 -4.16602 -9.66699 -8.49902 -15s-8.5 -10 -12.5 -14
c-6.66699 -3.33301 -12.167 -7.5 -16.5 -12.5s-8.83301 -9.5 -13.5 -13.5c-14.667 -6.66699 -30.334 -10 -47.001 -10c-8.66699 0 -18.5 1.66699 -29.5 5s-19.5 6 -25.5 8c-20.667 12.667 -36.667 29.334 -48 50.001s-17 42 -17 64c0 26.667 5 46.334 15 59.001
s26.667 26.334 50 41.001zM488.001 1279c16 8.66699 33.667 12.9961 53 12.9961c16 0 27.333 -2 34 -6c30 -8.66699 52.667 -28.334 68 -59.001c8 -23.333 12 -41.333 12 -54c0 -10 -1.66699 -19.833 -5 -29.5s-7 -18.5 -11 -26.5
c-1.33301 -3.33301 -3.83301 -8.16602 -7.5 -14.499s-8.5 -11.166 -14.5 -14.499c-4.66699 -3.33301 -9.5 -7.5 -14.5 -12.5s-10.167 -9.5 -15.5 -13.5c-12.667 -6.66699 -28 -10 -46 -10c-9.33301 0 -18.666 1.16699 -27.999 3.5s-17.666 5.5 -24.999 9.5
c-20.667 12.667 -36.834 29.334 -48.501 50.001s-17.5 42 -17.5 64c0 26.667 5.16699 46.834 15.5 60.501s27.166 26.834 50.499 39.501z" />
    <glyph glyph-name="uniFE94" unicode="&#x629;" horiz-adv-x="773" arabic-form="final" 
d="M444 428c0 57.333 -30 86 -90 86s-90 -28.667 -90 -86c0 -59.333 34 -89 102 -89c52 0 78 29.667 78 89zM110 492c0 42.667 19.333 93.667 58 153c38 58.667 106 93 204 103c96.667 9.33301 174.667 51 234 125v-531h183v-333h-679v483zM165 1279
c17.333 8.66699 35.667 12.998 55 12.998c16 0 27.667 -2 35 -6c27.333 -8.66699 48.333 -28.334 63 -59.001c10.667 -22 16 -40 16 -54c0 -21.333 -5.33301 -40 -16 -56c-1.33301 -4.66699 -4.16602 -9.66699 -8.49902 -15s-8.5 -10 -12.5 -14
c-6.66699 -3.33301 -12.167 -7.5 -16.5 -12.5s-8.83301 -9.5 -13.5 -13.5c-14.667 -6.66699 -30.334 -10 -47.001 -10c-8.66699 0 -18.5 1.66699 -29.5 5s-19.5 6 -25.5 8c-20.667 12.667 -36.667 29.334 -48 50.001s-17 42 -17 64c0 26.667 5 46.334 15 59.001
s26.667 26.334 50 41.001zM513.001 1279c16 8.66699 33.667 12.9961 53 12.9961c16 0 27.333 -2 34 -6c30 -8.66699 52.667 -28.334 68 -59.001c8 -23.333 12 -41.333 12 -54c0 -10 -1.66699 -19.833 -5 -29.5s-7 -18.5 -11 -26.5
c-1.33301 -3.33301 -3.83301 -8.16602 -7.5 -14.499s-8.5 -11.166 -14.5 -14.499c-4.66699 -3.33301 -9.5 -7.5 -14.5 -12.5s-10.167 -9.5 -15.5 -13.5c-12.667 -6.66699 -28 -10 -46 -10c-9.33301 0 -18.666 1.16699 -27.999 3.5s-17.666 5.5 -24.999 9.5
c-20.667 12.667 -36.834 29.334 -48.501 50.001s-17.5 42 -17.5 64c0 26.667 5.16699 46.834 15.5 60.501s27.166 26.834 50.499 39.501z" />
    <glyph glyph-name="uniFE95" unicode="&#x62a;" horiz-adv-x="1485" arabic-form="isolated" 
d="M517 1279c17.333 8.66699 35.667 12.998 55 12.998c16 0 27.667 -2 35 -6c27.333 -8.66699 48.333 -28.334 63 -59.001c10.667 -22 16 -40 16 -54c0 -21.333 -5.33301 -40 -16 -56c-1.33301 -4.66699 -4.16602 -9.66699 -8.49902 -15s-8.5 -10 -12.5 -14
c-6.66699 -3.33301 -12.167 -7.5 -16.5 -12.5s-8.83301 -9.5 -13.5 -13.5c-14.667 -6.66699 -30.334 -10 -47.001 -10c-8.66699 0 -18.5 1.66699 -29.5 5s-19.5 6 -25.5 8c-20.667 12.667 -36.667 29.334 -48 50.001s-17 42 -17 64c0 26.667 5 46.334 15 59.001
s26.667 26.334 50 41.001zM865.001 1279c16 8.66699 33.667 12.9961 53 12.9961c16 0 27.333 -2 34 -6c30 -8.66699 52.667 -28.334 68 -59.001c8 -23.333 12 -41.333 12 -54c0 -10 -1.66699 -19.833 -5 -29.5s-7 -18.5 -11 -26.5
c-1.33301 -3.33301 -3.83301 -8.16602 -7.5 -14.499s-8.5 -11.166 -14.5 -14.499c-4.66699 -3.33301 -9.5 -7.5 -14.5 -12.5s-10.167 -9.5 -15.5 -13.5c-12.667 -6.66699 -28 -10 -46 -10c-9.33301 0 -18.666 1.16699 -27.999 3.5s-17.666 5.5 -24.999 9.5
c-20.667 12.667 -36.834 29.334 -48.501 50.001s-17.5 42 -17.5 64c0 26.667 5.16699 46.834 15.5 60.501s27.166 26.834 50.499 39.501zM181.001 8.99414v576c0 23.333 -9.66699 35 -29 35c-12.667 0 -28.667 -4.33301 -48 -13l250 203v-468h823v309
c0 22.667 -11.333 34 -34 34c-16 0 -34 -3.66699 -54 -11l270 211v-876h-1178z" />
    <glyph glyph-name="uniFE96" unicode="&#x62a;" horiz-adv-x="1530" arabic-form="final" 
d="M529 1279c16.667 8.66699 34.667 12.998 54 12.998c16.667 0 29 -2 37 -6c26.667 -8.66699 47.667 -28.334 63 -59.001c9.33301 -22 14 -40 14 -54c0 -21.333 -4.66699 -40 -14 -56c-2.66699 -4.66699 -6.16699 -9.66699 -10.5 -15s-8.5 -10 -12.5 -14
c-4.66699 -3.33301 -9.66699 -7.5 -15 -12.5s-11 -9.5 -17 -13.5c-13.333 -6.66699 -28.333 -10 -45 -10c-8.66699 0 -18.167 1.66699 -28.5 5l-25.5 8c-20 12.667 -35.833 29.334 -47.5 50.001s-17.5 42 -17.5 64c0 26.667 4.83301 46.334 14.5 59.001
s26.5 26.334 50.5 41.001zM875 1279c18 8.66699 36.6689 13.001 56.002 13.001c15.333 0 27 -2 35 -6c28 -8.66699 49.667 -28.334 65 -59.001c8 -23.333 12 -41.333 12 -54c0 -10 -1.5 -19.833 -4.5 -29.5s-6.5 -18.5 -10.5 -26.5l-8.5 -14.5
c-3.66699 -6.33301 -7.5 -11.166 -11.5 -14.499c-6.66699 -3.33301 -12.5 -7.5 -17.5 -12.5s-9.83301 -9.5 -14.5 -13.5c-13.333 -6.66699 -28.333 -10 -45 -10c-10 0 -19.833 1.16699 -29.5 3.5s-18.5 5.5 -26.5 9.5c-20 12.667 -35.5 29.334 -46.5 50.001
s-16.5 42 -16.5 64c0 14 0.833008 25.667 2.5 35s5.16699 17.666 10.5 24.999s12.166 14.166 20.499 20.499s18.166 12.833 29.499 19.5zM167.002 8.99902v576c0 23.333 -9.66699 35 -29 35c-12.667 0 -28.667 -4.33301 -48 -13l250 203v-468h823v309
c0 22.667 -11.333 34 -34 34c-8 0 -16.167 -0.666992 -24.5 -2s-17.833 -4.33301 -28.5 -9l269 211v-543h198v-333h-1376z" />
    <glyph glyph-name="uniFE97" unicode="&#x62a;" horiz-adv-x="688" arabic-form="initial" 
d="M466 1324c16 8 35 12.001 57 12.001c14 0 25 -2 33 -6c28 -8 49.333 -28 64 -60c9.33301 -21.333 14 -38.666 14 -51.999c0 -10.667 -1.66699 -21.167 -5 -31.5s-6.66602 -18.833 -9.99902 -25.5c-3.33301 -4.66699 -6.66602 -10 -9.99902 -16s-7 -10.333 -11 -13
c-5.33301 -4 -10.5 -8.33301 -15.5 -13s-10.833 -9 -17.5 -13c-12.667 -6.66699 -26.667 -10 -42 -10c-10 0 -20.333 1.66699 -31 5s-19.334 7 -26.001 11c-21.333 11.333 -37.333 27.166 -48 47.499s-16 41.166 -16 62.499c0 14.667 1.16699 26.834 3.5 36.501
s6.16602 17.667 11.499 24s11.833 13.166 19.5 20.499s17.5 14.333 29.5 21zM120 1324c15.333 8 33 12.002 53 12.002c16.667 0 29 -2 37 -6c26.667 -8 48.334 -28 65.001 -60c8 -20 12 -37.333 12 -52c0 -22.667 -4 -41.667 -12 -57
c-6.66699 -11.333 -14.334 -21 -23.001 -29c-4.66699 -4 -10 -8.33301 -16 -13s-11.333 -9 -16 -13c-13.333 -6.66699 -29 -10 -47 -10c-20 0 -37.667 5.33301 -53 16c-20.667 11.333 -36.5 27.166 -47.5 47.499s-16.5 41.166 -16.5 62.499c0 14.667 1 26.834 3 36.501
s5.5 17.667 10.5 24s11.667 13.166 20 20.499s18.5 14.333 30.5 21zM-12 12.0029v330h336v309c0 28 -13.667 42 -41 42c-11.333 0 -22 -1 -32 -3l253 196v-874h-516z" />
    <glyph glyph-name="uniFE98" unicode="&#x62a;" horiz-adv-x="717" arabic-form="medial" 
d="M546 1282c16.667 9.33301 34.667 14.001 54 14.001c15.333 0 27 -2 35 -6c28 -7.33301 50.333 -27 67 -59c8 -20.667 12 -38.667 12 -54c0 -20.667 -5.33301 -39 -16 -55c-1.33301 -4 -4.16602 -9.33301 -8.49902 -16s-8.5 -11 -12.5 -13
c-4.66699 -6 -9.66699 -11.167 -15 -15.5l-15 -12.5c-12.667 -7.33301 -28.334 -11 -47.001 -11c-7.33301 0 -16.5 1.83301 -27.5 5.5s-19.833 7.5 -26.5 11.5c-20 11.333 -35.833 27.333 -47.5 48s-17.5 42 -17.5 64c0 25.333 5.16699 44.666 15.5 57.999
s26.833 27 49.5 41zM199 1282c18 9.33301 36.335 14.001 55.002 14.001c15.333 0 27 -2 35 -6c27.333 -7.33301 48.666 -27 63.999 -59c10 -23.333 15 -41.333 15 -54c0 -20.667 -5 -39 -15 -55c-6 -13.333 -13.667 -23 -23 -29c-5.33301 -6 -10.333 -11.167 -15 -15.5
s-10 -8.5 -16 -12.5c-12.667 -7.33301 -27.667 -11 -45 -11c-10 0 -19.833 1.66699 -29.5 5s-18.167 7.33301 -25.5 12c-20.667 11.333 -36.334 27.333 -47.001 48s-16 42 -16 64c0 13.333 1.33301 24.666 4 33.999s6.16699 17.333 10.5 24s10.5 13.667 18.5 21s18 14 30 20
zM-17.998 9.00195v333h348v243c0 24.667 -10.333 37 -31 37c-12.667 0 -27.667 -4 -45 -12l250 200v-468h221v-333h-743z" />
    <glyph glyph-name="uniFE99" unicode="&#x62b;" horiz-adv-x="1485" arabic-form="isolated" 
d="M517 1279c17.333 8.66699 35.667 12.998 55 12.998c16 0 27.667 -2 35 -6c27.333 -8.66699 48.333 -28.334 63 -59.001c10.667 -22 16 -40 16 -54c0 -21.333 -5.33301 -40 -16 -56c-1.33301 -4.66699 -4.16602 -9.66699 -8.49902 -15s-8.5 -10 -12.5 -14
c-6.66699 -3.33301 -12.167 -7.5 -16.5 -12.5s-8.83301 -9.5 -13.5 -13.5c-14.667 -6.66699 -30.334 -10 -47.001 -10c-8.66699 0 -18.5 1.66699 -29.5 5s-19.5 6 -25.5 8c-20.667 12.667 -36.667 29.334 -48 50.001s-17 42 -17 64c0 26.667 5 46.334 15 59.001
s26.667 26.334 50 41.001zM865.001 1279c16 8.66699 33.667 12.9961 53 12.9961c16 0 27.333 -2 34 -6c30 -8.66699 52.667 -28.334 68 -59.001c8 -23.333 12 -41.333 12 -54c0 -10 -1.66699 -19.833 -5 -29.5s-7 -18.5 -11 -26.5
c-1.33301 -3.33301 -3.83301 -8.16602 -7.5 -14.499s-8.5 -11.166 -14.5 -14.499c-4.66699 -3.33301 -9.5 -7.5 -14.5 -12.5s-10.167 -9.5 -15.5 -13.5c-12.667 -6.66699 -28 -10 -46 -10c-9.33301 0 -18.666 1.16699 -27.999 3.5s-17.666 5.5 -24.999 9.5
c-20.667 12.667 -36.834 29.334 -48.501 50.001s-17.5 42 -17.5 64c0 26.667 5.16699 46.834 15.5 60.501s27.166 26.834 50.499 39.501zM181.001 8.99414v576c0 23.333 -9.66699 35 -29 35c-12.667 0 -28.667 -4.33301 -48 -13l250 203v-468h823v309
c0 22.667 -11.333 34 -34 34c-16 0 -34 -3.66699 -54 -11l270 211v-876h-1178zM686.001 1591.99c17.333 8.66699 35.667 12.998 55 12.998c16 0 27.667 -2 35 -6c27.333 -8.66699 48.333 -28.334 63 -59.001c10.667 -22 16 -40 16 -54c0 -21.333 -5.33301 -40 -16 -56
c-1.33301 -4.66699 -4.16602 -9.66699 -8.49902 -15s-8.5 -10 -12.5 -14c-6.66699 -3.33301 -12.167 -7.5 -16.5 -12.5s-8.83301 -9.5 -13.5 -13.5c-14.667 -6.66699 -30.334 -10 -47.001 -10c-8.66699 0 -18.5 1.66699 -29.5 5s-19.5 6 -25.5 8
c-20.667 12.667 -36.667 29.334 -48 50.001s-17 42 -17 64c0 26.667 5 46.334 15 59.001s26.667 26.334 50 41.001z" />
    <glyph glyph-name="uniFE9A" unicode="&#x62b;" horiz-adv-x="1530" arabic-form="final" 
d="M529 1279c16.667 8.66699 34.667 12.998 54 12.998c16.667 0 29 -2 37 -6c26.667 -8.66699 47.667 -28.334 63 -59.001c9.33301 -22 14 -40 14 -54c0 -21.333 -4.66699 -40 -14 -56c-2.66699 -4.66699 -6.16699 -9.66699 -10.5 -15s-8.5 -10 -12.5 -14
c-4.66699 -3.33301 -9.66699 -7.5 -15 -12.5s-11 -9.5 -17 -13.5c-13.333 -6.66699 -28.333 -10 -45 -10c-8.66699 0 -18.167 1.66699 -28.5 5l-25.5 8c-20 12.667 -35.833 29.334 -47.5 50.001s-17.5 42 -17.5 64c0 26.667 4.83301 46.334 14.5 59.001
s26.5 26.334 50.5 41.001zM875 1279c18 8.66699 36.6689 13.001 56.002 13.001c15.333 0 27 -2 35 -6c28 -8.66699 49.667 -28.334 65 -59.001c8 -23.333 12 -41.333 12 -54c0 -10 -1.5 -19.833 -4.5 -29.5s-6.5 -18.5 -10.5 -26.5l-8.5 -14.5
c-3.66699 -6.33301 -7.5 -11.166 -11.5 -14.499c-6.66699 -3.33301 -12.5 -7.5 -17.5 -12.5s-9.83301 -9.5 -14.5 -13.5c-13.333 -6.66699 -28.333 -10 -45 -10c-10 0 -19.833 1.16699 -29.5 3.5s-18.5 5.5 -26.5 9.5c-20 12.667 -35.5 29.334 -46.5 50.001
s-16.5 42 -16.5 64c0 14 0.833008 25.667 2.5 35s5.16699 17.666 10.5 24.999s12.166 14.166 20.499 20.499s18.166 12.833 29.499 19.5zM167.002 8.99902v576c0 23.333 -9.66699 35 -29 35c-12.667 0 -28.667 -4.33301 -48 -13l250 203v-468h823v309
c0 22.667 -11.333 34 -34 34c-8 0 -16.167 -0.666992 -24.5 -2s-17.833 -4.33301 -28.5 -9l269 211v-543h198v-333h-1376zM686.002 1592c17.333 8.66699 35.667 12.998 55 12.998c16 0 27.667 -2 35 -6c27.333 -8.66699 48.333 -28.334 63 -59.001c10.667 -22 16 -40 16 -54
c0 -21.333 -5.33301 -40 -16 -56c-1.33301 -4.66699 -4.16602 -9.66699 -8.49902 -15s-8.5 -10 -12.5 -14c-6.66699 -3.33301 -12.167 -7.5 -16.5 -12.5s-8.83301 -9.5 -13.5 -13.5c-14.667 -6.66699 -30.334 -10 -47.001 -10c-8.66699 0 -18.5 1.66699 -29.5 5
s-19.5 6 -25.5 8c-20.667 12.667 -36.667 29.334 -48 50.001s-17 42 -17 64c0 26.667 5 46.334 15 59.001s26.667 26.334 50 41.001z" />
    <glyph glyph-name="uniFE9B" unicode="&#x62b;" horiz-adv-x="688" arabic-form="initial" 
d="M466 1324c16 8 35 12.001 57 12.001c14 0 25 -2 33 -6c28 -8 49.333 -28 64 -60c9.33301 -21.333 14 -38.666 14 -51.999c0 -10.667 -1.66699 -21.167 -5 -31.5s-6.66602 -18.833 -9.99902 -25.5c-3.33301 -4.66699 -6.66602 -10 -9.99902 -16s-7 -10.333 -11 -13
c-5.33301 -4 -10.5 -8.33301 -15.5 -13s-10.833 -9 -17.5 -13c-12.667 -6.66699 -26.667 -10 -42 -10c-10 0 -20.333 1.66699 -31 5s-19.334 7 -26.001 11c-21.333 11.333 -37.333 27.166 -48 47.499s-16 41.166 -16 62.499c0 14.667 1.16699 26.834 3.5 36.501
s6.16602 17.667 11.499 24s11.833 13.166 19.5 20.499s17.5 14.333 29.5 21zM120 1324c15.333 8 33 12.002 53 12.002c16.667 0 29 -2 37 -6c26.667 -8 48.334 -28 65.001 -60c8 -20 12 -37.333 12 -52c0 -22.667 -4 -41.667 -12 -57
c-6.66699 -11.333 -14.334 -21 -23.001 -29c-4.66699 -4 -10 -8.33301 -16 -13s-11.333 -9 -16 -13c-13.333 -6.66699 -29 -10 -47 -10c-20 0 -37.667 5.33301 -53 16c-20.667 11.333 -36.5 27.166 -47.5 47.499s-16.5 41.166 -16.5 62.499c0 14.667 1 26.834 3 36.501
s5.5 17.667 10.5 24s11.667 13.166 20 20.499s18.5 14.333 30.5 21zM-12 12.0029v330h336v309c0 28 -13.667 42 -41 42c-11.333 0 -22 -1 -32 -3l253 196v-874h-516zM291 1592c17.333 8.66699 35.667 12.998 55 12.998c16 0 27.667 -2 35 -6
c27.333 -8.66699 48.333 -28.334 63 -59.001c10.667 -22 16 -40 16 -54c0 -21.333 -5.33301 -40 -16 -56c-1.33301 -4.66699 -4.16602 -9.66699 -8.49902 -15s-8.5 -10 -12.5 -14c-6.66699 -3.33301 -12.167 -7.5 -16.5 -12.5s-8.83301 -9.5 -13.5 -13.5
c-14.667 -6.66699 -30.334 -10 -47.001 -10c-8.66699 0 -18.5 1.66699 -29.5 5s-19.5 6 -25.5 8c-20.667 12.667 -36.667 29.334 -48 50.001s-17 42 -17 64c0 26.667 5 46.334 15 59.001s26.667 26.334 50 41.001z" />
    <glyph glyph-name="uniFE9C" unicode="&#x62b;" horiz-adv-x="717" arabic-form="medial" 
d="M546 1282c16.667 9.33301 34.667 14.001 54 14.001c15.333 0 27 -2 35 -6c28 -7.33301 50.333 -27 67 -59c8 -20.667 12 -38.667 12 -54c0 -20.667 -5.33301 -39 -16 -55c-1.33301 -4 -4.16602 -9.33301 -8.49902 -16s-8.5 -11 -12.5 -13
c-4.66699 -6 -9.66699 -11.167 -15 -15.5l-15 -12.5c-12.667 -7.33301 -28.334 -11 -47.001 -11c-7.33301 0 -16.5 1.83301 -27.5 5.5s-19.833 7.5 -26.5 11.5c-20 11.333 -35.833 27.333 -47.5 48s-17.5 42 -17.5 64c0 25.333 5.16699 44.666 15.5 57.999
s26.833 27 49.5 41zM199 1282c18 9.33301 36.335 14.001 55.002 14.001c15.333 0 27 -2 35 -6c27.333 -7.33301 48.666 -27 63.999 -59c10 -23.333 15 -41.333 15 -54c0 -20.667 -5 -39 -15 -55c-6 -13.333 -13.667 -23 -23 -29c-5.33301 -6 -10.333 -11.167 -15 -15.5
s-10 -8.5 -16 -12.5c-12.667 -7.33301 -27.667 -11 -45 -11c-10 0 -19.833 1.66699 -29.5 5s-18.167 7.33301 -25.5 12c-20.667 11.333 -36.334 27.333 -47.001 48s-16 42 -16 64c0 13.333 1.33301 24.666 4 33.999s6.16699 17.333 10.5 24s10.5 13.667 18.5 21s18 14 30 20
zM-17.998 9.00195v333h348v243c0 24.667 -10.333 37 -31 37c-12.667 0 -27.667 -4 -45 -12l250 200v-468h221v-333h-743zM370.002 1592c17.333 8.66699 35.667 12.998 55 12.998c16 0 27.667 -2 35 -6c27.333 -8.66699 48.333 -28.334 63 -59.001c10.667 -22 16 -40 16 -54
c0 -21.333 -5.33301 -40 -16 -56c-1.33301 -4.66699 -4.16602 -9.66699 -8.49902 -15s-8.5 -10 -12.5 -14c-6.66699 -3.33301 -12.167 -7.5 -16.5 -12.5s-8.83301 -9.5 -13.5 -13.5c-14.667 -6.66699 -30.334 -10 -47.001 -10c-8.66699 0 -18.5 1.66699 -29.5 5
s-19.5 6 -25.5 8c-20.667 12.667 -36.667 29.334 -48 50.001s-17 42 -17 64c0 26.667 5 46.334 15 59.001s26.667 26.334 50 41.001z" />
    <glyph glyph-name="uniFE9D" unicode="&#x62c;" horiz-adv-x="1173" arabic-form="isolated" 
d="M883 -440c-23.333 13.333 -39.999 27.333 -49.999 42s-15 35 -15 61c0 24 5.33301 46.5 16 67.5s27 37.167 49 48.5c15.333 12 33.666 18 54.999 18c6.66699 0 14.167 -1 22.5 -3s15.5 -4 21.5 -6l32 -29c10 -8 16.667 -18.333 20 -31c12 -15.333 18 -34 18 -56
c0 -14.667 -4.33301 -33.667 -13 -57c-16.667 -34 -39 -55.333 -67 -64c-6.66699 -4 -18 -6 -34 -6c-20 0 -38.333 5 -55 15zM134.001 8l-0.000976562 334h751v291c-35.333 -30 -72.333 -55.333 -111 -76s-79.334 -36 -122.001 -46c-42 -10.667 -82.167 -18 -120.5 -22
s-75.5 -6 -111.5 -6c-71.333 4 -132.666 21.667 -183.999 53c-51.333 32.667 -83 76 -95 130c-0.666992 9.33301 -1.66699 17.833 -3 25.5s-2 15.834 -2 24.501c0 38.667 9 81.334 27 128.001c27.333 64 77.333 98 150 102h11c66.667 0 101.334 -37 104.001 -111v-4
c0 -38.667 -11 -66.334 -33 -83.001c-18 -13.333 -43.333 -20 -76 -20c-8.66699 0 -18 0.333008 -28 1c-8.66699 -2 -15.667 -5.66699 -21 -11s-8 -11.666 -8 -18.999c0 -12.667 6.66699 -29.334 20 -50.001c24.667 -40.667 83 -61 175 -61h32
c112.667 6 222.667 70.333 330 193c108.667 123.333 186.667 195.666 234 216.999v-989h-740v-153c0 -103.333 25.667 -175 77 -215c54.667 -41.333 150.667 -69.333 288 -84c-78.667 -44.667 -155.667 -67 -231 -67c-47.333 0 -95 8.66699 -143 26
c-54 22.667 -95.5 57.167 -124.5 103.5s-43.5 105.833 -43.5 178.5v32z" />
    <glyph glyph-name="uniFE9E" unicode="&#x62c;" horiz-adv-x="1221" arabic-form="final" 
d="M867 -440c-23.333 13.333 -39.999 27.333 -49.999 42s-15 35 -15 61c0 24 5.33301 46.5 16 67.5s27 37.167 49 48.5c15.333 12 33.666 18 54.999 18c6.66699 0 14.167 -1 22.5 -3s15.5 -4 21.5 -6l32 -29c10 -8 16.667 -18.333 20 -31c12 -15.333 18 -34 18 -56
c0 -14.667 -4.33301 -33.667 -13 -57c-16.667 -34 -39 -55.333 -67 -64c-6.66699 -4 -18 -6 -34 -6c-20 0 -38.333 5 -55 15zM118.001 8l-0.000976562 334h751v291c-35.333 -30 -72.333 -55.333 -111 -76s-79.334 -36 -122.001 -46c-42 -10.667 -82.167 -18 -120.5 -22
s-75.5 -6 -111.5 -6c-71.333 4 -132.666 21.667 -183.999 53c-51.333 32.667 -83 76 -95 130c-0.666992 9.33301 -1.66699 17.833 -3 25.5s-2 15.834 -2 24.501c0 38.667 9 81.334 27 128.001c27.333 64 77.333 98 150 102h11c66.667 0 101.334 -37 104.001 -111v-4
c0 -38.667 -11 -66.334 -33 -83.001c-18 -13.333 -43.333 -20 -76 -20c-8.66699 0 -18 0.333008 -28 1c-8.66699 -2 -15.667 -5.66699 -21 -11s-8 -11.666 -8 -18.999c0 -12.667 6.66699 -29.334 20 -50.001c24.667 -40.667 83 -61 175 -61h32
c112.667 6 222.667 70.333 330 193c108.667 123.333 186.667 195.666 234 216.999v-656h204v-333h-944v-153c0 -103.333 25.667 -175 77 -215c54.667 -41.333 150.667 -69.333 288 -84c-78.667 -44.667 -155.667 -67 -231 -67c-47.333 0 -95 8.66699 -143 26
c-54 22.667 -95.5 57.167 -124.5 103.5s-43.5 105.833 -43.5 178.5v32z" />
    <glyph glyph-name="uniFE9F" unicode="&#x62c;" horiz-adv-x="1171" arabic-form="initial" 
d="M460 -493c-22.667 14 -39 28.499 -49 43.499s-15 35.167 -15 60.5c0 26 5.33301 49.167 16 69.5s26.667 36.166 48 47.499c15.333 10.667 34 16 56 16c6 0 13.167 -0.666992 21.5 -2s15.833 -3.66602 22.5 -6.99902l31 -28c11.333 -8 19 -17.667 23 -29
c10.667 -16.667 16 -35.667 16 -57c0 -15.333 -4.66699 -34.666 -14 -57.999c-16 -33.333 -38 -54.333 -66 -63c-6.66699 -4 -18 -6 -34 -6c-20 0 -38.667 4.33301 -56 13zM-10 8.99902l0.000976562 332.999h902v291c-36 -30 -73.333 -55.333 -112 -76s-78.667 -36 -120 -46
c-42 -10.667 -82.167 -18 -120.5 -22s-75.5 -6 -111.5 -6c-72.667 4 -134.334 21.667 -185.001 53c-52 32.667 -83 76 -93 130c-2 9.33301 -3.5 17.833 -4.5 25.5s-1.5 15.834 -1.5 24.501c0 38.667 8.66699 81.334 26 128.001c27.333 64 77.333 98 150 102h11
c67.333 0 102 -37 104 -111v-12c0 -34.667 -10 -59.667 -30 -75c-18.667 -13.333 -45 -20 -79 -20c-9.33301 0 -19 0.333008 -29 1c-8 -2 -14.333 -5.66699 -19 -11s-7 -11.666 -7 -18.999c0 -12.667 6.33301 -29.334 19 -50.001c24 -40.667 81.667 -61 173 -61h33
c112 6 222.667 70.333 332 193c108.667 123.333 186.667 195.666 234 216.999v-989h-1072z" />
    <glyph glyph-name="uniFEA0" unicode="&#x62c;" horiz-adv-x="1227" arabic-form="medial" 
d="M618 -497c-22 14.667 -38.1709 28.998 -48.5039 42.998s-15.5 34.667 -15.5 62c0 24 5.16699 46.5 15.5 67.5s26.5 37.167 48.5 48.5c14.667 10.667 33.334 16 56.001 16c6.66699 0 14.334 -1 23.001 -3s15.334 -4.33301 20.001 -7l34 -29
c8.66699 -8 15.334 -17.667 20.001 -29c10.667 -14.667 16 -33.667 16 -57c0 -15.333 -4.33301 -34.666 -13 -57.999c-15.333 -33.333 -37.333 -53.666 -66 -60.999c-6.66699 -5.33301 -18 -8 -34 -8c-19.333 0 -38 5 -56 15zM-10.0039 341.998l902.001 -0.000976562v291
c-36 -30 -73.333 -55.333 -112 -76s-78.667 -36 -120 -46c-42 -10.667 -82.167 -18 -120.5 -22s-75.5 -6 -111.5 -6c-72.667 4 -134.334 21.667 -185.001 53c-52 32.667 -83 76 -93 130c-2 9.33301 -3.5 17.833 -4.5 25.5s-1.5 15.834 -1.5 24.501
c0 38.667 8.66699 81.334 26 128.001c27.333 64 77.333 98 150 102h11c67.333 0 102 -37 104 -111v-12c0 -34.667 -10 -59.667 -30 -75c-18.667 -13.333 -45 -20 -79 -20c-9.33301 0 -19 0.333008 -29 1c-8 -2 -14.333 -5.66699 -19 -11s-7 -11.666 -7 -18.999
c0 -12.667 6.33301 -29.334 19 -50.001c24 -40.667 81.667 -61 173 -61h33c112 6 222.667 70.333 332 193c108.667 123.333 186.667 195.666 234 216.999v-656h178v-333h-1250v333z" />
    <glyph glyph-name="uniFEA1" unicode="&#x62d;" horiz-adv-x="1165" arabic-form="isolated" 
d="M120 8l-0.000976562 334h751v291c-35.333 -30 -72.333 -55.333 -111 -76s-79.334 -36 -122.001 -46c-42 -10.667 -82.167 -18 -120.5 -22s-75.5 -6 -111.5 -6c-71.333 4 -132.666 21.667 -183.999 53c-51.333 32.667 -83 76 -95 130
c-0.666992 9.33301 -1.66699 17.833 -3 25.5s-2 15.834 -2 24.501c0 38.667 9 81.334 27 128.001c27.333 64 77.333 98 150 102h11c66.667 0 101.334 -37 104.001 -111v-4c0 -38.667 -11 -66.334 -33 -83.001c-18 -13.333 -43.333 -20 -76 -20
c-8.66699 0 -18 0.333008 -28 1c-8.66699 -2 -15.667 -5.66699 -21 -11s-8 -11.666 -8 -18.999c0 -12.667 6.66699 -29.334 20 -50.001c24.667 -40.667 83 -61 175 -61h32c112.667 6 222.667 70.333 330 193c108.667 123.333 186.667 195.666 234 216.999v-989h-740v-153
c0 -103.333 25.667 -175 77 -215c54.667 -41.333 150.667 -69.333 288 -84c-78.667 -44.667 -155.667 -67 -231 -67c-47.333 0 -95 8.66699 -143 26c-54 22.667 -95.5 57.167 -124.5 103.5s-43.5 105.833 -43.5 178.5v32z" />
    <glyph glyph-name="uniFEA2" unicode="&#x62d;" horiz-adv-x="1199" arabic-form="final" 
d="M130 8l-0.00195312 331.002h751v294c-35.333 -30 -72.333 -55.667 -111 -77s-79.334 -37.333 -122.001 -48c-42 -8.66699 -82 -15 -120 -19c-33.333 -4 -66 -6 -98 -6h-14c-71.333 4 -132.666 21.667 -183.999 53c-51.333 32 -83 74.667 -95 128
c-0.666992 9.33301 -1.66699 18.166 -3 26.499s-2 16.833 -2 25.5c0 38.667 9 81 27 127c27.333 64.667 77.333 98.334 150 101.001h10c67.333 0 102.333 -37.667 105 -113v-3c0 -36.667 -11 -63.334 -33 -80.001c-18.667 -14 -45 -21 -79 -21c-8 0 -16.333 0.333008 -25 1
c-8.66699 -3.33301 -15.667 -7.33301 -21 -12s-8 -11 -8 -19c0 -6.66699 2 -14.334 6 -23.001s8.66699 -18 14 -28c12.667 -18.667 33.834 -33 63.501 -43s66.834 -15 111.501 -15h32c112.667 4.66699 222.667 68.667 330 192c108.667 124 186.667 196.333 234 217v-658h178
v-330h-918v-154c0 -104 25.667 -175.333 77 -214c53.333 -41.333 149.333 -70 288 -86c-78.667 -44.667 -155.667 -67 -231 -67c-47.333 0 -95 9.33301 -143 28c-54 22.667 -95.5 57.167 -124.5 103.5s-43.5 105.5 -43.5 177.5v30z" />
    <glyph glyph-name="uniFEA3" unicode="&#x62d;" horiz-adv-x="1179" arabic-form="initial" 
d="M-14 9l0.000976562 332.999h902v291c-36 -30 -73.333 -55.333 -112 -76s-78.667 -36 -120 -46c-42 -10.667 -82.167 -18 -120.5 -22s-75.5 -6 -111.5 -6c-72.667 4 -134.334 21.667 -185.001 53c-52 32.667 -83 76 -93 130c-2 9.33301 -3.5 17.833 -4.5 25.5
s-1.5 15.834 -1.5 24.501c0 38.667 8.66699 81.334 26 128.001c27.333 64 77.333 98 150 102h11c67.333 0 102 -37 104 -111v-12c0 -34.667 -10 -59.667 -30 -75c-18.667 -13.333 -45 -20 -79 -20c-9.33301 0 -19 0.333008 -29 1c-8 -2 -14.333 -5.66699 -19 -11
s-7 -11.666 -7 -18.999c0 -12.667 6.33301 -29.334 19 -50.001c24 -40.667 81.667 -61 173 -61h33c112 6 222.667 70.333 332 193c108.667 123.333 186.667 195.666 234 216.999v-989h-1072z" />
    <glyph glyph-name="uniFEA4" unicode="&#x62d;" horiz-adv-x="1200" arabic-form="medial" 
d="M-24 342l902.001 -0.000976562v291c-36 -30 -73.333 -55.333 -112 -76s-78.667 -36 -120 -46c-42 -10.667 -82.167 -18 -120.5 -22s-75.5 -6 -111.5 -6c-72.667 4 -134.334 21.667 -185.001 53c-52 32.667 -83 76 -93 130c-2 9.33301 -3.5 17.833 -4.5 25.5
s-1.5 15.834 -1.5 24.501c0 38.667 8.66699 81.334 26 128.001c27.333 64 77.333 98 150 102h11c67.333 0 102 -37 104 -111v-12c0 -34.667 -10 -59.667 -30 -75c-18.667 -13.333 -45 -20 -79 -20c-9.33301 0 -19 0.333008 -29 1c-8 -2 -14.333 -5.66699 -19 -11
s-7 -11.666 -7 -18.999c0 -12.667 6.33301 -29.334 19 -50.001c24 -40.667 81.667 -61 173 -61h33c112 6 222.667 70.333 332 193c108.667 123.333 186.667 195.666 234 216.999v-656h178v-333h-1250v333z" />
    <glyph glyph-name="uniFEA5" unicode="&#x62e;" horiz-adv-x="1165" arabic-form="isolated" 
d="M571 1347c15.333 10 33.6699 15 55.0029 15c16 0 27.667 -2 35 -6c27.333 -9.33301 49.333 -30 66 -62c7.33301 -20.667 11 -38.667 11 -54c0 -20.667 -3.66699 -38.667 -11 -54c-4 -4.66699 -8 -10 -12 -16s-8 -10 -12 -12
c-4.66699 -5.33301 -9.83398 -10.333 -15.501 -15l-16.5 -14c-14 -6.66699 -29 -10 -45 -10c-8.66699 0 -18 1.66699 -28 5s-19 7 -27 11c-20.667 11.333 -36.334 27.5 -47.001 48.5s-16 42.5 -16 64.5c0 25.333 4.66699 44.833 14 58.5s25.666 27.167 48.999 40.5z
M120.004 8l-0.000976562 334h751v291c-35.333 -30 -72.333 -55.333 -111 -76s-79.334 -36 -122.001 -46c-42 -10.667 -82.167 -18 -120.5 -22s-75.5 -6 -111.5 -6c-71.333 4 -132.666 21.667 -183.999 53c-51.333 32.667 -83 76 -95 130
c-0.666992 9.33301 -1.66699 17.833 -3 25.5s-2 15.834 -2 24.501c0 38.667 9 81.334 27 128.001c27.333 64 77.333 98 150 102h11c66.667 0 101.334 -37 104.001 -111v-4c0 -38.667 -11 -66.334 -33 -83.001c-18 -13.333 -43.333 -20 -76 -20
c-8.66699 0 -18 0.333008 -28 1c-8.66699 -2 -15.667 -5.66699 -21 -11s-8 -11.666 -8 -18.999c0 -12.667 6.66699 -29.334 20 -50.001c24.667 -40.667 83 -61 175 -61h32c112.667 6 222.667 70.333 330 193c108.667 123.333 186.667 195.666 234 216.999v-989h-740v-153
c0 -103.333 25.667 -175 77 -215c54.667 -41.333 150.667 -69.333 288 -84c-78.667 -44.667 -155.667 -67 -231 -67c-47.333 0 -95 8.66699 -143 26c-54 22.667 -95.5 57.167 -124.5 103.5s-43.5 105.833 -43.5 178.5v32z" />
    <glyph glyph-name="uniFEA6" unicode="&#x62e;" horiz-adv-x="1199" arabic-form="final" 
d="M581 1296c15.333 8.66699 33.6699 13.002 55.0029 13.002c16 0 27.667 -1.66699 35 -5c27.333 -9.33301 49.333 -30 66 -62c7.33301 -20 11 -37.667 11 -53c0 -20.667 -3.66699 -38.667 -11 -54c-4 -6 -8 -11.667 -12 -17s-8 -9.33301 -12 -12
c-4.66699 -5.33301 -9.83398 -10.333 -15.501 -15l-16.5 -14c-14 -6 -29 -9 -45 -9c-8.66699 0 -18 1.5 -28 4.5s-19 6.5 -27 10.5c-20.667 11.333 -36.334 27.666 -47.001 48.999s-16 42.666 -16 63.999c0 25.333 4.66699 44.833 14 58.5s25.666 27.5 48.999 41.5z
M130.004 8.00195l-0.00195312 331.002h751v294c-35.333 -30 -72.333 -55.667 -111 -77s-79.334 -37.333 -122.001 -48c-42 -8.66699 -82 -15 -120 -19c-33.333 -4 -66 -6 -98 -6h-14c-71.333 4 -132.666 21.667 -183.999 53c-51.333 32 -83 74.667 -95 128
c-0.666992 9.33301 -1.66699 18.166 -3 26.499s-2 16.833 -2 25.5c0 38.667 9 81 27 127c27.333 64.667 77.333 98.334 150 101.001h10c67.333 0 102.333 -37.667 105 -113v-3c0 -36.667 -11 -63.334 -33 -80.001c-18.667 -14 -45 -21 -79 -21c-8 0 -16.333 0.333008 -25 1
c-8.66699 -3.33301 -15.667 -7.33301 -21 -12s-8 -11 -8 -19c0 -6.66699 2 -14.334 6 -23.001s8.66699 -18 14 -28c12.667 -18.667 33.834 -33 63.501 -43s66.834 -15 111.501 -15h32c112.667 4.66699 222.667 68.667 330 192c108.667 124 186.667 196.333 234 217v-658h178
v-330h-918v-154c0 -104 25.667 -175.333 77 -214c53.333 -41.333 149.333 -70 288 -86c-78.667 -44.667 -155.667 -67 -231 -67c-47.333 0 -95 9.33301 -143 28c-54 22.667 -95.5 57.167 -124.5 103.5s-43.5 105.5 -43.5 177.5v30z" />
    <glyph glyph-name="uniFEA7" unicode="&#x62e;" horiz-adv-x="1179" arabic-form="initial" 
d="M568 1296c17.333 10 36.333 14.999 57 14.999c15.333 0 27 -2.33301 35 -7c26 -9.33301 46.667 -29.333 62 -60c10.667 -21.333 16 -39.333 16 -54c0 -21.333 -5.33301 -39.666 -16 -54.999c-2.66699 -6 -5.66699 -11.333 -9 -16s-8 -9 -14 -13
c-4.66699 -4 -9.66699 -8.66699 -15 -14s-10.333 -10 -15 -14c-14 -6 -28.667 -9 -44 -9c-8.66699 0 -18.667 1.5 -30 4.5s-20.333 6.5 -27 10.5c-17.333 12 -32.333 28.5 -45 49.5s-19 42.5 -19 64.5c0 26 4.66699 45.333 14 58s26 26 50 40zM-34 8.99902
l0.000976562 332.999h902v291c-36 -30 -73.333 -55.333 -112 -76s-78.667 -36 -120 -46c-42 -10.667 -82.167 -18 -120.5 -22s-75.5 -6 -111.5 -6c-72.667 4 -134.334 21.667 -185.001 53c-52 32.667 -83 76 -93 130c-2 9.33301 -3.5 17.833 -4.5 25.5
s-1.5 15.834 -1.5 24.501c0 38.667 8.66699 81.334 26 128.001c27.333 64 77.333 98 150 102h11c67.333 0 102 -37 104 -111v-12c0 -34.667 -10 -59.667 -30 -75c-18.667 -13.333 -45 -20 -79 -20c-9.33301 0 -19 0.333008 -29 1c-8 -2 -14.333 -5.66699 -19 -11
s-7 -11.666 -7 -18.999c0 -12.667 6.33301 -29.334 19 -50.001c24 -40.667 81.667 -61 173 -61h33c112 6 222.667 70.333 332 193c108.667 123.333 186.667 195.666 234 216.999v-989h-1072z" />
    <glyph glyph-name="uniFEA8" unicode="&#x62e;" horiz-adv-x="1200" arabic-form="medial" 
d="M578 1347c17.333 10 36.333 15.001 57 15.001c15.333 0 27 -2 35 -6c26 -9.33301 46.667 -30 62 -62c10.667 -20.667 16 -38.667 16 -54c0 -20.667 -5.33301 -38.667 -16 -54l-9 -16c-3.33301 -6 -8 -10 -14 -12c-4.66699 -5.33301 -9.66699 -10.333 -15 -15
s-10.333 -9.33398 -15 -14.001c-14 -6.66699 -28.667 -10 -44 -10c-8.66699 0 -18.667 1.66699 -30 5s-20.333 7 -27 11c-20 11.333 -35.667 27.5 -47 48.5s-17 42.5 -17 64.5c0 25.333 4.66699 44.833 14 58.5s26 27.167 50 40.5zM-24 342.001l902.001 -0.000976562v291
c-36 -30 -73.333 -55.333 -112 -76s-78.667 -36 -120 -46c-42 -10.667 -82.167 -18 -120.5 -22s-75.5 -6 -111.5 -6c-72.667 4 -134.334 21.667 -185.001 53c-52 32.667 -83 76 -93 130c-2 9.33301 -3.5 17.833 -4.5 25.5s-1.5 15.834 -1.5 24.501
c0 38.667 8.66699 81.334 26 128.001c27.333 64 77.333 98 150 102h11c67.333 0 102 -37 104 -111v-12c0 -34.667 -10 -59.667 -30 -75c-18.667 -13.333 -45 -20 -79 -20c-9.33301 0 -19 0.333008 -29 1c-8 -2 -14.333 -5.66699 -19 -11s-7 -11.666 -7 -18.999
c0 -12.667 6.33301 -29.334 19 -50.001c24 -40.667 81.667 -61 173 -61h33c112 6 222.667 70.333 332 193c108.667 123.333 186.667 195.666 234 216.999v-656h178v-333h-1250v333z" />
    <glyph glyph-name="uniFEA9" unicode="&#x62f;" horiz-adv-x="1072" arabic-form="isolated" 
d="M142 9v400c0 30 -21.667 45 -65 45c-6 0 -11.667 -0.166992 -17 -0.5s-11.333 -0.5 -18 -0.5l272 180v-291h444v326c0 24 -12.333 36 -37 36c-12.667 0 -29.667 -3.66699 -51 -11l271 209v-893h-799z" />
    <glyph glyph-name="uniFEAA" unicode="&#x62f;" horiz-adv-x="1155" arabic-form="final" 
d="M158 9l-0.000976562 400c0 30 -21.667 45 -65 45c-6.66699 0 -12.5 -0.166992 -17.5 -0.5s-10.833 -0.5 -17.5 -0.5l275 180v-291h441v326c0 24 -12.333 36 -37 36c-11.333 0 -27.666 -3.66699 -48.999 -11l269 209v-560h224v-333h-1023z" />
    <glyph glyph-name="uniFEAB" unicode="&#x630;" horiz-adv-x="1072" arabic-form="isolated" 
d="M142 9v400c0 30 -21.667 45 -65 45c-6 0 -11.667 -0.166992 -17 -0.5s-11.333 -0.5 -18 -0.5l272 180v-291h444v326c0 24 -12.333 36 -37 36c-12.667 0 -29.667 -3.66699 -51 -11l271 209v-893h-799zM729 1311c15.333 10.667 34.0029 16 56.0029 16c14.667 0 26 -2 34 -6
c27.333 -8.66699 49 -29 65 -61c8 -23.333 12 -41.333 12 -54c0 -10.667 -1.16699 -20.834 -3.5 -30.501s-5.5 -18.167 -9.5 -25.5c-2.66699 -4 -6.33398 -9.16699 -11.001 -15.5s-8.66699 -10.5 -12 -12.5c-5.33301 -6 -10.666 -10.833 -15.999 -14.5
s-10.333 -8.16699 -15 -13.5c-12.667 -6.66699 -27.334 -10 -44.001 -10c-10.667 0 -20.834 1.5 -30.501 4.5s-18.167 6.83301 -25.5 11.5c-20.667 11.333 -36.334 27.333 -47.001 48s-16 42 -16 64c0 12.667 1 23.834 3 33.501s5.5 18.167 10.5 25.5s11.5 13.833 19.5 19.5
z" />
    <glyph glyph-name="uniFEAC" unicode="&#x630;" horiz-adv-x="1155" arabic-form="final" 
d="M158 9l-0.000976562 400c0 30 -21.667 45 -65 45c-6.66699 0 -12.5 -0.166992 -17.5 -0.5s-10.833 -0.5 -17.5 -0.5l275 180v-291h441v326c0 24 -12.333 36 -37 36c-11.333 0 -27.666 -3.66699 -48.999 -11l269 209v-560h224v-333h-1023zM728.999 1311
c15.333 10.667 34.0029 16 56.0029 16c14.667 0 26 -2 34 -6c27.333 -8.66699 49 -29 65 -61c8 -23.333 12 -41.333 12 -54c0 -10.667 -1.16699 -20.834 -3.5 -30.501s-5.5 -18.167 -9.5 -25.5c-2.66699 -4 -6.33398 -9.16699 -11.001 -15.5s-8.66699 -10.5 -12 -12.5
c-5.33301 -6 -10.666 -10.833 -15.999 -14.5s-10.333 -8.16699 -15 -13.5c-12.667 -6.66699 -27.334 -10 -44.001 -10c-10.667 0 -20.834 1.5 -30.501 4.5s-18.167 6.83301 -25.5 11.5c-20.667 11.333 -36.334 27.333 -47.001 48s-16 42 -16 64c0 12.667 1 23.834 3 33.501
s5.5 18.167 10.5 25.5s11.5 13.833 19.5 19.5z" />
    <glyph glyph-name="uniFEAD" unicode="&#x631;" horiz-adv-x="571" arabic-form="isolated" 
d="M287 728l189 134v-520l3 -333l-3 -224c-4.66699 -105.333 -47 -182 -127 -230c-64 -38.667 -134.667 -58 -212 -58c-19.333 0 -38.666 1.66699 -57.999 5c-46 4.66699 -75.667 10 -89 16c-5.33301 2 -8 4.33301 -8 7c0 3.33301 8 6.33301 24 9
c55.333 11.333 113.666 36.333 174.999 75c28 19.333 51.167 44 69.5 74s30.5 63 36.5 99v946z" />
    <glyph glyph-name="uniFEAE" unicode="&#x631;" horiz-adv-x="711" arabic-form="final" 
d="M290 728l189.996 134.002v-520h247v-333h-257v-237c-4.66699 -49.333 -17.667 -93 -39 -131s-50 -69 -86 -93c-29.333 -21.333 -61.666 -37 -96.999 -47s-72.666 -15 -111.999 -15h-26c-9.33301 0 -18.666 0.666992 -27.999 2c-61.333 6 -92 12.333 -92 19
c0 1.33301 4.33301 3.16602 13 5.49902s18.334 5.16602 29.001 8.49902c33.333 4.66699 66 13.5 98 26.5s60 29.833 84 50.5c49.333 36.667 74 89 74 157v15z" />
    <glyph glyph-name="uniFEAF" unicode="&#x632;" horiz-adv-x="559" arabic-form="isolated" 
d="M338 1407c15.333 10.667 34.0029 16 56.0029 16c14.667 0 26 -2 34 -6c27.333 -8.66699 49 -29 65 -61c8 -23.333 12 -41.333 12 -54c0 -10.667 -1.16699 -20.834 -3.5 -30.501s-5.5 -18.167 -9.5 -25.5c-2.66699 -4 -6.33398 -9.16699 -11.001 -15.5
s-8.66699 -10.5 -12 -12.5c-5.33301 -6 -10.666 -10.833 -15.999 -14.5s-10.333 -8.16699 -15 -13.5c-12.667 -6.66699 -27.334 -10 -44.001 -10c-10.667 0 -20.834 1.5 -30.501 4.5s-18.167 6.83301 -25.5 11.5c-20.667 11.333 -36.334 27.333 -47.001 48s-16 42 -16 64
c0 12.667 1 23.834 3 33.501s5.5 18.167 10.5 25.5s11.5 13.833 19.5 19.5zM287.003 728l189 134v-520l3 -333l-3 -224c-4.66699 -105.333 -47 -182 -127 -230c-64 -38.667 -134.667 -58 -212 -58c-19.333 0 -38.666 1.66699 -57.999 5c-46 4.66699 -75.667 10 -89 16
c-5.33301 2 -8 4.33301 -8 7c0 3.33301 8 6.33301 24 9c55.333 11.333 113.666 36.333 174.999 75c28 19.333 51.167 44 69.5 74s30.5 63 36.5 99v946z" />
    <glyph glyph-name="uniFEB0" unicode="&#x632;" horiz-adv-x="713" arabic-form="final" 
d="M324 1484c16.667 8.66699 35.0029 13 55.0029 13c16 0 27.667 -2 35 -6c27.333 -7.33301 49.333 -27.666 66 -60.999c7.33301 -23.333 11 -41.333 11 -54c0 -20 -4.33301 -37.667 -13 -53c-4 -12.667 -11.667 -23 -23 -31c-6 -4 -11.333 -8.16699 -16 -12.5
s-9.66699 -8.5 -15 -12.5c-13.333 -7.33301 -28.333 -11 -45 -11c-9.33301 0 -18.833 1.66699 -28.5 5s-18.5 7.33301 -26.5 12c-20.667 11.333 -36.667 27 -48 47s-17 41.333 -17 64c0 13.333 1.16699 24.666 3.5 33.999s6.16602 17.833 11.499 25.5
s12.166 14.667 20.499 21s18.166 12.833 29.499 19.5zM288.003 728l189.996 134.002v-520h247v-333h-257v-237c-4.66699 -49.333 -17.667 -93 -39 -131s-50 -69 -86 -93c-29.333 -21.333 -61.666 -37 -96.999 -47s-72.666 -15 -111.999 -15h-26
c-9.33301 0 -18.666 0.666992 -27.999 2c-61.333 6 -92 12.333 -92 19c0 1.33301 4.33301 3.16602 13 5.49902s18.334 5.16602 29.001 8.49902c33.333 4.66699 66 13.5 98 26.5s60 29.833 84 50.5c49.333 36.667 74 89 74 157v15z" />
    <glyph glyph-name="uniFEB1" unicode="&#x633;" horiz-adv-x="1615" arabic-form="isolated" 
d="M1510 9h-676.001v-147c-9.33301 -57.333 -30.166 -105.333 -62.499 -144s-73.833 -66.667 -124.5 -84c-25.333 -8.66699 -51 -15.167 -77 -19.5s-51.333 -6.5 -76 -6.5c-24 0 -49.333 2.16699 -76 6.5s-51 10.833 -73 19.5c-48 17.333 -85.5 44.333 -112.5 81
s-42.833 81.667 -47.5 135v415c0 36.667 -12.667 55 -38 55c-8 0 -19.667 -2.33301 -35 -7l242 173v-578c5.33301 -74 53 -111 143 -111h12c98.667 0.666992 149.667 37.667 153 111v687c0 30.667 -14.333 46 -43 46c-6.66699 0 -13.667 -0.666992 -21 -2l236 185v-482h164
v258c0 30.667 -16 46 -48 46c-4 0 -8 -0.333008 -12 -1l232 174v-477h168v325c0 20 -9.33301 30 -28 30c-10 0 -23.333 -4 -40 -12l240 201v-877z" />
    <glyph glyph-name="uniFEB2" unicode="&#x633;" horiz-adv-x="1736" arabic-form="final" 
d="M1751 9l-939.001 0.000976562v-145c-10 -56.667 -31.5 -104.334 -64.5 -143.001s-73.833 -67 -122.5 -85c-52 -18 -103.667 -27 -155 -27c-24.667 0 -49.834 2.16699 -75.501 6.5s-49.5 11.166 -71.5 20.499c-48 16 -85.667 42.333 -113 79
s-43.666 82.334 -48.999 137.001v413c0 36.667 -12 55 -36 55c-8 0 -19.667 -2.33301 -35 -7l240 173v-578c4.66699 -73.333 54.334 -110 149.001 -110h8c98 0 149 36.667 153 110v687c0 30.667 -14.333 46 -43 46c-6.66699 0 -13.667 -0.666992 -21 -2l236 185v-482h161
v261c0 28.667 -15 43 -45 43c-4 0 -8 -0.333008 -12 -1l230 174v-477h170v319c0 24 -9.33301 36 -28 36c-10 0 -23.333 -4 -40 -12l238 201v-544h265v-333z" />
    <glyph glyph-name="uniFEB3" unicode="&#x633;" horiz-adv-x="1175" arabic-form="initial" 
d="M-24 9v333h223v243c0 24.667 -10.333 37 -31 37c-12.667 0 -28 -4 -46 -12l250 200v-468h164v243c0 32 -16.333 48 -49 48c-6 0 -12.333 -0.333008 -19 -1l240 178v-468h170v309c0 26.667 -13.333 40 -40 40c-10 0 -20 -1.33301 -30 -4l240 198v-876h-1072z" />
    <glyph glyph-name="uniFEB4" unicode="&#x633;" horiz-adv-x="1264" arabic-form="medial" 
d="M-12 9v333h223v243c0 23.333 -10.333 35 -31 35c-12.667 0 -28 -4.33301 -46 -13l250 203v-468h164v243c0 27.333 -13 41 -39 41c-12 0 -25 -2.66699 -39 -8l250 192v-468h170v309c0 22.667 -12 34 -36 34c-6 0 -13.167 -0.666992 -21.5 -2s-18.5 -4.33301 -30.5 -9
l259 211v-543h223v-333h-1296z" />
    <glyph glyph-name="uniFEB5" unicode="&#x634;" horiz-adv-x="1617" arabic-form="isolated" 
d="M855 1177c16.667 8.66699 34.6689 12.999 54.002 12.999c15.333 0 27 -2 35 -6c26 -8.66699 47.333 -29 64 -61c9.33301 -20 14 -37.333 14 -52c0 -21.333 -4.66699 -40.333 -14 -57c-2 -4 -5.16699 -8.83301 -9.5 -14.5s-8.5 -10.5 -12.5 -14.5l-17 -12.5
c-6 -4.33301 -11.333 -8.5 -16 -12.5c-12.667 -6.66699 -27.334 -10 -44.001 -10c-8.66699 0 -18.334 1.33301 -29.001 4s-19 5.66699 -25 9c-22 12 -38.333 28.667 -49 50s-16 42.666 -16 63.999c0 26.667 4.83301 46.334 14.5 59.001s26.5 26.334 50.5 41.001zM1200 1177
c18.667 8.66699 37.666 12.998 56.999 12.998c15.333 0 26 -2 32 -6c28 -8.66699 50.333 -29 67 -61c7.33301 -22 11 -39.333 11 -52c0 -10 -1.16699 -20 -3.5 -30s-5.83301 -19 -10.5 -27c-2 -4 -5 -8.83301 -9 -14.5s-8.33301 -10.5 -13 -14.5l-15 -12.5l-16 -12.5
c-13.333 -6.66699 -27.666 -10 -42.999 -10c-10.667 0 -20.834 1.33301 -30.501 4s-18.5 5.66699 -26.5 9c-21.333 12 -37.333 28.667 -48 50s-16 42.666 -16 63.999c0 12.667 1.16699 23.834 3.5 33.501s6 18.334 11 26.001s11.833 14.334 20.5 20.001
s18.334 12.5 29.001 20.5zM1028 1443c16.667 10.667 34.6689 16 54.002 16c14.667 0 26 -2.33301 34 -7c28 -8 50.667 -28 68 -60c8.66699 -23.333 13 -42 13 -56c0 -10 -1.16699 -19.833 -3.5 -29.5s-6.5 -17.834 -12.5 -24.501c-4 -4.66699 -7.5 -10 -10.5 -16
s-6.16699 -11 -9.5 -15l-34 -24c-12.667 -6 -27.667 -9 -45 -9c-10.667 0 -20.334 1.16699 -29.001 3.5s-17 5.5 -25 9.5c-22 12.667 -38.833 29.667 -50.5 51s-17.5 41.333 -17.5 60c0 15.333 1.5 27.5 4.5 36.5s6.83301 17 11.5 24s11.667 13.333 21 19
s19.666 12.834 30.999 21.501zM1508 8.99707l-674.001 0.000976562v-145c-10 -56.667 -31.5 -104.334 -64.5 -143.001s-73.833 -67 -122.5 -85c-52 -18 -103.667 -27 -155 -27c-24.667 0 -49.834 2.16699 -75.501 6.5s-49.5 11.166 -71.5 20.499
c-48 16 -85.667 42.333 -113 79s-43.666 82.334 -48.999 137.001v413c0 36.667 -12 55 -36 55c-8 0 -19.667 -2.33301 -35 -7l240 173v-578c4.66699 -73.333 54.334 -110 149.001 -110h8c98 0 149 36.667 153 110v687c0 30.667 -14.333 46 -43 46
c-6.66699 0 -13.667 -0.666992 -21 -2l236 185v-482h161v261c0 28.667 -15 43 -45 43c-4 0 -8 -0.333008 -12 -1l230 174v-477h170v319c0 24 -9.33301 36 -28 36c-10 0 -23.333 -4 -40 -12l238 201v-877z" />
    <glyph glyph-name="uniFEB6" unicode="&#x634;" horiz-adv-x="1727" arabic-form="final" 
d="M823 1202c16.667 8.66699 34.6689 13.001 54.002 13.001c15.333 0 27 -2 35 -6c26 -7.33301 47.333 -27.666 64 -60.999c9.33301 -20.667 14 -38 14 -52c0 -21.333 -4.66699 -40 -14 -56c-6 -12.667 -13.333 -22.334 -22 -29.001
c-5.33301 -4.66699 -11 -9.16699 -17 -13.5s-11.333 -8.5 -16 -12.5c-12.667 -8 -27.334 -12 -44.001 -12c-8.66699 0 -18.334 1.5 -29.001 4.5s-19 7.5 -25 13.5c-22 11.333 -38.333 27.166 -49 47.499s-16 41.5 -16 63.5c0 14 1.16699 25.5 3.5 34.5s6.16602 17 11.499 24
s11.833 13.667 19.5 20s17.834 13.5 30.501 21.5zM1168 1202c17.333 8.66699 36.333 13.002 57 13.002c15.333 0 26 -2 32 -6c28 -7.33301 50.333 -27.666 67 -60.999c7.33301 -20.667 11 -38 11 -52c0 -20.667 -4.66699 -39.334 -14 -56.001
c-4 -12.667 -11.333 -22.334 -22 -29.001c-4.66699 -4.66699 -9.66699 -9.16699 -15 -13.5l-16 -12.5c-13.333 -8 -27.666 -12 -42.999 -12c-10.667 0 -20.834 1.5 -30.501 4.5s-18.5 7.5 -26.5 13.5c-21.333 11.333 -37.333 27.166 -48 47.499s-16 41.5 -16 63.5
c0 14 1.16699 25.5 3.5 34.5s6 17 11 24s11.833 13.667 20.5 20zM996.002 1468c16.667 10.667 34.667 16 54 16c14.667 0 26 -2 34 -6c30 -10.667 52.667 -31 68 -61c8.66699 -23.333 13 -41.333 13 -54c0 -20 -5.33301 -38.333 -16 -55c-4 -6 -7.5 -11.833 -10.5 -17.5
s-6.16699 -9.5 -9.5 -11.5l-34 -28c-12.667 -6 -27.667 -9 -45 -9c-21.333 0 -39.333 4.66699 -54 14c-22 12.667 -38.833 29.167 -50.5 49.5s-17.5 40.5 -17.5 60.5c0 16 1.5 28.5 4.5 37.5s6.83301 17.333 11.5 25s11.667 14.5 21 20.5zM1743 9.00293
l-941.001 0.000976562v-145c-10 -56.667 -31.5 -104.334 -64.5 -143.001s-73.833 -67 -122.5 -85c-52 -18 -103.667 -27 -155 -27c-24.667 0 -49.834 2.16699 -75.501 6.5s-49.5 11.166 -71.5 20.499c-48 16 -85.667 42.333 -113 79s-43.666 82.334 -48.999 137.001v413
c0 36.667 -12 55 -36 55c-8 0 -19.667 -2.33301 -35 -7l240 173v-578c4.66699 -73.333 54.334 -110 149.001 -110h8c98 0 149 36.667 153 110v687c0 30.667 -14.333 46 -43 46c-6.66699 0 -13.667 -0.666992 -21 -2l236 185v-482h161v261c0 28.667 -15 43 -45 43
c-4 0 -8 -0.333008 -12 -1l230 174v-477h170v319c0 24 -9.33301 36 -28 36c-10 0 -23.333 -4 -40 -12l238 201v-544h267v-333z" />
    <glyph glyph-name="uniFEB7" unicode="&#x634;" horiz-adv-x="1157" arabic-form="initial" 
d="M731 1202c16.667 8.66699 35.3359 13.002 56.0029 13.002c15.333 0 26.666 -2 33.999 -6c28.667 -7.33301 50.667 -27.666 66 -60.999c8.66699 -20.667 13 -38 13 -52c0 -20.667 -5.33301 -39.334 -16 -56.001c-2 -4.66699 -5 -9.83398 -9 -15.501
s-7.66699 -10.167 -11 -13.5c-6.66699 -4.66699 -12.334 -9.16699 -17.001 -13.5s-10.334 -8.5 -17.001 -12.5c-12.667 -8 -27 -12 -43 -12c-9.33301 0 -19.5 2 -30.5 6s-19.5 8 -25.5 12c-20 11.333 -35.667 27.166 -47 47.499s-17 41.5 -17 63.5
c0 26 5.16699 45.5 15.5 58.5s26.5 26.833 48.5 41.5zM385.002 1202c16.667 8.66699 34.668 13 54.001 13c15.333 0 27 -2 35 -6c26.667 -7.33301 48.334 -27.666 65.001 -60.999c10 -21.333 15 -38.666 15 -51.999c0 -20.667 -5 -39.334 -15 -56.001
c-4.66699 -12.667 -12.334 -22.334 -23.001 -29.001c-4.66699 -4.66699 -9.66699 -9.16699 -15 -13.5l-16 -12.5c-12.667 -8 -28 -12 -46 -12c-8.66699 0 -17.834 1.33301 -27.501 4s-18.5 7.33398 -26.5 14.001c-20 11.333 -35.833 27.166 -47.5 47.499
s-17.5 41.5 -17.5 63.5c0 14 1.33301 25.5 4 34.5s6.5 17 11.5 24s11.667 13.667 20 20zM558.003 1468c16.667 10.667 34.668 16 54.001 16c15.333 0 27 -2 35 -6c29.333 -10.667 51.666 -31 66.999 -61c8.66699 -23.333 13 -41.333 13 -54c0 -20 -5 -38.333 -15 -55
c-2.66699 -4 -6 -9.33301 -10 -16s-7.66699 -11 -11 -13l-33 -28c-13.333 -6 -28.666 -9 -45.999 -9c-20.667 0 -38 4.66699 -52 14c-22.667 12.667 -39.834 29.167 -51.501 49.5s-17.5 40.5 -17.5 60.5c0 16 1.5 28.5 4.5 37.5s6.83301 17.333 11.5 25s11.5 14.5 20.5 20.5
s19.167 12.333 30.5 19zM-11.9961 9.00195v333h223v243c0 24.667 -10.333 37 -31 37c-12.667 0 -28 -4 -46 -12l250 200v-468h164v243c0 32 -16.333 48 -49 48c-6 0 -12.333 -0.333008 -19 -1l240 178v-468h170v309c0 26.667 -13.333 40 -40 40c-10 0 -20 -1.33301 -30 -4
l240 198v-876h-1072z" />
    <glyph glyph-name="uniFEB8" unicode="&#x634;" horiz-adv-x="1270" arabic-form="medial" 
d="M729 1202c16.667 8.66699 35.3359 13.002 56.0029 13.002c15.333 0 26.666 -2 33.999 -6c28.667 -7.33301 50.667 -27.666 66 -60.999c8.66699 -20.667 13 -38 13 -52c0 -20.667 -5.33301 -39.334 -16 -56.001c-2 -4.66699 -5 -9.83398 -9 -15.501
s-7.66699 -10.167 -11 -13.5c-6.66699 -4.66699 -12.334 -9.16699 -17.001 -13.5s-10.334 -8.5 -17.001 -12.5c-12.667 -8 -27 -12 -43 -12c-10 0 -19.833 1.5 -29.5 4.5s-18.5 7.5 -26.5 13.5c-20 11.333 -35.667 27.166 -47 47.499s-17 41.5 -17 63.5
c0 14 1.5 25.5 4.5 34.5s7 17 12 24s11.5 13.667 19.5 20zM383.002 1202c15.333 8.66699 33.333 13.001 54 13.001c15.333 0 27 -2 35 -6c26.667 -7.33301 48.334 -27.666 65.001 -60.999c10 -21.333 15 -38.666 15 -51.999c0 -20.667 -5 -39.334 -15 -56.001
c-4.66699 -12.667 -12.334 -22.334 -23.001 -29.001c-4.66699 -4.66699 -9.66699 -9.16699 -15 -13.5l-16 -12.5c-12.667 -8 -28 -12 -46 -12c-20.667 0 -38.667 6 -54 18c-20 11.333 -35.833 27.166 -47.5 47.499s-17.5 41.5 -17.5 63.5c0 14 1.33301 25.5 4 34.5
s6.5 17 11.5 24s11.667 13.667 20 20zM556.002 1468c18.667 10.667 36.6719 16 54.0049 16c15.333 0 27 -2 35 -6c29.333 -10.667 51.666 -31 66.999 -61c8.66699 -20.667 13 -38.667 13 -54c0 -20 -5 -38.333 -15 -55c-2.66699 -4 -6 -9.33301 -10 -16
s-7.66699 -11 -11 -13l-33 -28c-13.333 -6 -28.666 -9 -45.999 -9c-20.667 0 -38 4.66699 -52 14c-22.667 12.667 -39.834 29.167 -51.501 49.5s-17.5 40.5 -17.5 60.5c1.33301 16 3.16602 28.5 5.49902 37.5s6.16602 17.333 11.499 25s12.166 14.5 20.499 20.5
s18.166 12.333 29.499 19zM-13.9932 9.00293v333h223v243c0 23.333 -10.333 35 -31 35c-12.667 0 -28 -4.33301 -46 -13l250 203v-468h164v243c0 27.333 -13 41 -39 41c-12 0 -25 -2.66699 -39 -8l250 192v-468h170v309c0 22.667 -12 34 -36 34
c-6 0 -13.167 -0.666992 -21.5 -2s-18.5 -4.33301 -30.5 -9l259 211v-543h223v-333h-1296z" />
    <glyph glyph-name="uniFEB9" unicode="&#x635;" horiz-adv-x="1541" arabic-form="isolated" 
d="M1317 611h-143v-279h143v279zM923 341l62.999 0.000976562c-2 21.333 -3 49.333 -3 84v40c0 51.333 8.66699 94.333 26 129c25.333 50.667 73 100.667 143 150h322v-735h-672v-145c-10 -56.667 -31.5 -104.334 -64.5 -143.001s-73.833 -67 -122.5 -85
c-52 -18 -103.667 -27 -155 -27c-24.667 0 -49.834 2.16699 -75.501 6.5s-49.5 11.166 -71.5 20.499c-48 16 -85.667 42.333 -113 79s-43.666 82.334 -48.999 137.001v413c0 36.667 -12 55 -36 55c-8 0 -19.667 -2.33301 -35 -7l240 173v-578
c4.66699 -73.333 54.334 -110 149.001 -110h8c98 0 149 36.667 153 110v687c0 30.667 -14.333 46 -43 46c-6.66699 0 -13.667 -0.666992 -21 -2l236 185v-482h121v-1z" />
    <glyph glyph-name="uniFEBA" unicode="&#x635;" horiz-adv-x="1600" arabic-form="final" 
d="M1317 611h-143l3 -270h143zM802 9l-0.000976562 -144.999c-10 -56.667 -31.5 -104.334 -64.5 -143.001s-73.833 -67 -122.5 -85c-52 -18 -103.667 -27 -155 -27c-24.667 0 -49.834 2.16699 -75.501 6.5s-49.5 11.166 -71.5 20.499c-48 16 -85.667 42.333 -113 79
s-43.666 82.334 -48.999 137.001v413c0 36.667 -12 55 -36 55c-8 0 -19.667 -2.33301 -35 -7l240 173v-578c4.66699 -73.333 54.334 -110 149.001 -110h8c98 0 149 36.667 153 110v687c0 30.667 -14.333 46 -43 46c-6.66699 0 -13.667 -0.666992 -21 -2l236 185v-482h121v-1
h63c-2 21.333 -3 49.333 -3 84v40c0 51.333 8.66699 94.333 26 129c25.333 50.667 73 100.667 143 150h322v-402l143 -2l1 -331h-816z" />
    <glyph glyph-name="uniFEBB" unicode="&#x635;" horiz-adv-x="1104" arabic-form="initial" 
d="M869 611h-143l3 -270h143zM-24 9v333h223v243c0 24.667 -10.333 37 -31 37c-12.667 0 -28 -4 -46 -12l250 200v-468h103v-1h63c-2 21.333 -3 49.333 -3 84v40c0 51.333 8.66699 94.333 26 129c25.333 50.667 73 100.667 143 150h322v-735h-1050z" />
    <glyph glyph-name="uniFEBC" unicode="&#x635;" horiz-adv-x="1149" arabic-form="medial" 
d="M869 611h-143l3 -270h143zM-24 9v333h223v243c0 24.667 -10.333 37 -31 37c-12.667 0 -28 -4 -46 -12l250 200v-468h103v-1h63c-2 21.333 -3 49.333 -3 84v40c0 51.333 8.66699 94.333 26 129c25.333 50.667 73 100.667 143 150h322v-402l143 -2l1 -331h-1194z" />
    <glyph glyph-name="uniFEBD" unicode="&#x636;" horiz-adv-x="1541" arabic-form="isolated" 
d="M1317 611h-143v-279h143v279zM923 341l62.999 0.000976562c-2 21.333 -3 49.333 -3 84v40c0 51.333 8.66699 94.333 26 129c25.333 50.667 73 100.667 143 150h322v-735h-672v-145c-10 -56.667 -31.5 -104.334 -64.5 -143.001s-73.833 -67 -122.5 -85
c-52 -18 -103.667 -27 -155 -27c-24.667 0 -49.834 2.16699 -75.501 6.5s-49.5 11.166 -71.5 20.499c-48 16 -85.667 42.333 -113 79s-43.666 82.334 -48.999 137.001v413c0 36.667 -12 55 -36 55c-8 0 -19.667 -2.33301 -35 -7l240 173v-578
c4.66699 -73.333 54.334 -110 149.001 -110h8c98 0 149 36.667 153 110v687c0 30.667 -14.333 46 -43 46c-6.66699 0 -13.667 -0.666992 -21 -2l236 185v-482h121v-1zM1189 1202c15.333 8.66699 33.333 13.001 54 13.001c15.333 0 27 -2 35 -6
c26.667 -7.33301 48.334 -27.666 65.001 -60.999c10 -21.333 15 -38.666 15 -51.999c0 -20.667 -5 -39.334 -15 -56.001c-4.66699 -12.667 -12.334 -22.334 -23.001 -29.001c-4.66699 -4.66699 -9.66699 -9.16699 -15 -13.5l-16 -12.5c-12.667 -8 -28 -12 -46 -12
c-20.667 0 -38.667 6 -54 18c-20 11.333 -35.833 27.166 -47.5 47.499s-17.5 41.5 -17.5 63.5c0 14 1.33301 25.5 4 34.5s6.5 17 11.5 24s11.667 13.667 20 20z" />
    <glyph glyph-name="uniFEBE" unicode="&#x636;" horiz-adv-x="1600" arabic-form="final" 
d="M1317 611h-143l3 -270h143zM802 9l-0.000976562 -144.999c-10 -56.667 -31.5 -104.334 -64.5 -143.001s-73.833 -67 -122.5 -85c-52 -18 -103.667 -27 -155 -27c-24.667 0 -49.834 2.16699 -75.501 6.5s-49.5 11.166 -71.5 20.499c-48 16 -85.667 42.333 -113 79
s-43.666 82.334 -48.999 137.001v413c0 36.667 -12 55 -36 55c-8 0 -19.667 -2.33301 -35 -7l240 173v-578c4.66699 -73.333 54.334 -110 149.001 -110h8c98 0 149 36.667 153 110v687c0 30.667 -14.333 46 -43 46c-6.66699 0 -13.667 -0.666992 -21 -2l236 185v-482h121v-1
h63c-2 21.333 -3 49.333 -3 84v40c0 51.333 8.66699 94.333 26 129c25.333 50.667 73 100.667 143 150h322v-402l143 -2l1 -331h-816zM1184 1202c15.333 8.66699 33.333 13.001 54 13.001c15.333 0 27 -2 35 -6c26.667 -7.33301 48.334 -27.666 65.001 -60.999
c10 -21.333 15 -38.666 15 -51.999c0 -20.667 -5 -39.334 -15 -56.001c-4.66699 -12.667 -12.334 -22.334 -23.001 -29.001c-4.66699 -4.66699 -9.66699 -9.16699 -15 -13.5l-16 -12.5c-12.667 -8 -28 -12 -46 -12c-20.667 0 -38.667 6 -54 18
c-20 11.333 -35.833 27.166 -47.5 47.499s-17.5 41.5 -17.5 63.5c0 14 1.33301 25.5 4 34.5s6.5 17 11.5 24s11.667 13.667 20 20z" />
    <glyph glyph-name="uniFEBF" unicode="&#x636;" horiz-adv-x="1104" arabic-form="initial" 
d="M869 611h-143l3 -270h143zM-24 9v333h223v243c0 24.667 -10.333 37 -31 37c-12.667 0 -28 -4 -46 -12l250 200v-468h103v-1h63c-2 21.333 -3 49.333 -3 84v40c0 51.333 8.66699 94.333 26 129c25.333 50.667 73 100.667 143 150h322v-735h-1050zM732 1202
c15.333 8.66699 33.333 13.001 54 13.001c15.333 0 27 -2 35 -6c26.667 -7.33301 48.334 -27.666 65.001 -60.999c10 -21.333 15 -38.666 15 -51.999c0 -20.667 -5 -39.334 -15 -56.001c-4.66699 -12.667 -12.334 -22.334 -23.001 -29.001
c-4.66699 -4.66699 -9.66699 -9.16699 -15 -13.5l-16 -12.5c-12.667 -8 -28 -12 -46 -12c-20.667 0 -38.667 6 -54 18c-20 11.333 -35.833 27.166 -47.5 47.499s-17.5 41.5 -17.5 63.5c0 14 1.33301 25.5 4 34.5s6.5 17 11.5 24s11.667 13.667 20 20z" />
    <glyph glyph-name="uniFEC0" unicode="&#x636;" horiz-adv-x="1149" arabic-form="medial" 
d="M869 611h-143l3 -270h143zM-24 9v333h223v243c0 24.667 -10.333 37 -31 37c-12.667 0 -28 -4 -46 -12l250 200v-468h103v-1h63c-2 21.333 -3 49.333 -3 84v40c0 51.333 8.66699 94.333 26 129c25.333 50.667 73 100.667 143 150h322v-402l143 -2l1 -331h-1194zM732 1202
c15.333 8.66699 33.333 13.001 54 13.001c15.333 0 27 -2 35 -6c26.667 -7.33301 48.334 -27.666 65.001 -60.999c10 -21.333 15 -38.666 15 -51.999c0 -20.667 -5 -39.334 -15 -56.001c-4.66699 -12.667 -12.334 -22.334 -23.001 -29.001
c-4.66699 -4.66699 -9.66699 -9.16699 -15 -13.5l-16 -12.5c-12.667 -8 -28 -12 -46 -12c-20.667 0 -38.667 6 -54 18c-20 11.333 -35.833 27.166 -47.5 47.499s-17.5 41.5 -17.5 63.5c0 14 1.33301 25.5 4 34.5s6.5 17 11.5 24s11.667 13.667 20 20z" />
    <glyph glyph-name="uniFEC1" unicode="&#x637;" horiz-adv-x="1231" arabic-form="isolated" 
d="M991 611h-143l3 -270h143zM572 341h88c-2 21.333 -3 49.333 -3 84v40c0 51.333 8.66699 94.333 26 129c25.333 50.667 73 100.667 143 150h322l1 -734l-963 -1l-141 333h362v841c0.666992 5.33301 1 10.333 1 15c0 51.333 -22.667 77 -68 77
c-12.667 0 -30.667 -2.66699 -54 -8l286 243v-1169z" />
    <glyph glyph-name="uniFEC2" unicode="&#x637;" horiz-adv-x="1301" arabic-form="final" 
d="M1018 611h-143l3 -270h143zM599 341h88c-2 21.333 -3 49.333 -3 84v40c0 51.333 8.66699 94.333 26 129c25.333 50.667 73 100.667 143 150h322v-402l143 -2l1 -331h-1140l-175 333h430v841c0.666992 5.33301 1 10.333 1 15c0 51.333 -22.667 77 -68 77
c-12.667 0 -30.667 -2.66699 -54 -8l286 243v-1169z" />
    <glyph glyph-name="uniFEC3" unicode="&#x637;" horiz-adv-x="1115" arabic-form="initial" 
d="M869 611h-143l3 -270h143zM450 341h88c-2 21.333 -3 49.333 -3 84v40c0 51.333 8.66699 94.333 26 129c25.333 50.667 73 100.667 143 150h322l1 -735h-1051v333l309 -1v842c0.666992 5.33301 1 10.333 1 15c0 51.333 -22.667 77 -68 77
c-12.667 0 -30.667 -2.66699 -54 -8l286 243v-1169z" />
    <glyph glyph-name="uniFEC4" unicode="&#x637;" horiz-adv-x="1149" arabic-form="medial" 
d="M869 611h-143l3 -270h143zM450 341h88c-2 21.333 -3 49.333 -3 84v40c0 51.333 8.66699 94.333 26 129c25.333 50.667 73 100.667 143 150h322v-402l143 -2l1 -331h-1194v333l309 -1v842c0.666992 5.33301 1 10.333 1 15c0 51.333 -22.667 77 -68 77
c-12.667 0 -30.667 -2.66699 -54 -8l286 243v-1169z" />
    <glyph glyph-name="uniFEC5" unicode="&#x638;" horiz-adv-x="1231" arabic-form="isolated" 
d="M991 611h-143l3 -270h143zM572 341h88c-2 21.333 -3 49.333 -3 84v40c0 51.333 8.66699 94.333 26 129c25.333 50.667 73 100.667 143 150h322l1 -734l-963 -1l-141 333h362v841c0.666992 5.33301 1 10.333 1 15c0 51.333 -22.667 77 -68 77
c-12.667 0 -30.667 -2.66699 -54 -8l286 243v-1169zM871 1202c15.333 8.66699 33.333 13.001 54 13.001c15.333 0 27 -2 35 -6c26.667 -7.33301 48.334 -27.666 65.001 -60.999c10 -21.333 15 -38.666 15 -51.999c0 -20.667 -5 -39.334 -15 -56.001
c-4.66699 -12.667 -12.334 -22.334 -23.001 -29.001c-4.66699 -4.66699 -9.66699 -9.16699 -15 -13.5l-16 -12.5c-12.667 -8 -28 -12 -46 -12c-20.667 0 -38.667 6 -54 18c-20 11.333 -35.833 27.166 -47.5 47.499s-17.5 41.5 -17.5 63.5c0 14 1.33301 25.5 4 34.5
s6.5 17 11.5 24s11.667 13.667 20 20z" />
    <glyph glyph-name="uniFEC6" unicode="&#x638;" horiz-adv-x="1301" arabic-form="final" 
d="M1018 611h-143l3 -270h143zM599 341h88c-2 21.333 -3 49.333 -3 84v40c0 51.333 8.66699 94.333 26 129c25.333 50.667 73 100.667 143 150h322v-402l143 -2l1 -331h-1140l-175 333h430v841c0.666992 5.33301 1 10.333 1 15c0 51.333 -22.667 77 -68 77
c-12.667 0 -30.667 -2.66699 -54 -8l286 243v-1169zM870 1202c15.333 8.66699 33.333 13.001 54 13.001c15.333 0 27 -2 35 -6c26.667 -7.33301 48.334 -27.666 65.001 -60.999c10 -21.333 15 -38.666 15 -51.999c0 -20.667 -5 -39.334 -15 -56.001
c-4.66699 -12.667 -12.334 -22.334 -23.001 -29.001c-4.66699 -4.66699 -9.66699 -9.16699 -15 -13.5l-16 -12.5c-12.667 -8 -28 -12 -46 -12c-20.667 0 -38.667 6 -54 18c-20 11.333 -35.833 27.166 -47.5 47.499s-17.5 41.5 -17.5 63.5c0 14 1.33301 25.5 4 34.5
s6.5 17 11.5 24s11.667 13.667 20 20z" />
    <glyph glyph-name="uniFEC7" unicode="&#x638;" horiz-adv-x="1115" arabic-form="initial" 
d="M869 611h-143l3 -270h143zM450 341h88c-2 21.333 -3 49.333 -3 84v40c0 51.333 8.66699 94.333 26 129c25.333 50.667 73 100.667 143 150h322l1 -735h-1051v333l309 -1v842c0.666992 5.33301 1 10.333 1 15c0 51.333 -22.667 77 -68 77
c-12.667 0 -30.667 -2.66699 -54 -8l286 243v-1169zM746 1202c15.333 8.66699 33.333 13.001 54 13.001c15.333 0 27 -2 35 -6c26.667 -7.33301 48.334 -27.666 65.001 -60.999c10 -21.333 15 -38.666 15 -51.999c0 -20.667 -5 -39.334 -15 -56.001
c-4.66699 -12.667 -12.334 -22.334 -23.001 -29.001c-4.66699 -4.66699 -9.66699 -9.16699 -15 -13.5l-16 -12.5c-12.667 -8 -28 -12 -46 -12c-20.667 0 -38.667 6 -54 18c-20 11.333 -35.833 27.166 -47.5 47.499s-17.5 41.5 -17.5 63.5c0 14 1.33301 25.5 4 34.5
s6.5 17 11.5 24s11.667 13.667 20 20z" />
    <glyph glyph-name="uniFEC8" unicode="&#x638;" horiz-adv-x="1149" arabic-form="medial" 
d="M869 611h-143l3 -270h143zM450 341h88c-2 21.333 -3 49.333 -3 84v40c0 51.333 8.66699 94.333 26 129c25.333 50.667 73 100.667 143 150h322v-402l143 -2l1 -331h-1194v333l309 -1v842c0.666992 5.33301 1 10.333 1 15c0 51.333 -22.667 77 -68 77
c-12.667 0 -30.667 -2.66699 -54 -8l286 243v-1169zM746 1202c15.333 8.66699 33.333 13.001 54 13.001c15.333 0 27 -2 35 -6c26.667 -7.33301 48.334 -27.666 65.001 -60.999c10 -21.333 15 -38.666 15 -51.999c0 -20.667 -5 -39.334 -15 -56.001
c-4.66699 -12.667 -12.334 -22.334 -23.001 -29.001c-4.66699 -4.66699 -9.66699 -9.16699 -15 -13.5l-16 -12.5c-12.667 -8 -28 -12 -46 -12c-20.667 0 -38.667 6 -54 18c-20 11.333 -35.833 27.166 -47.5 47.499s-17.5 41.5 -17.5 63.5c0 14 1.33301 25.5 4 34.5
s6.5 17 11.5 24s11.667 13.667 20 20z" />
    <glyph glyph-name="uniFEC9" unicode="&#x639;" horiz-adv-x="1059" arabic-form="isolated" 
d="M379 483c3.33301 48 14.666 91.165 33.999 129.498s44.333 71.5 75 99.5c33.333 26 70 46.5 110 61.5s82.667 23.5 128 25.5c44.667 0.666992 83.5 11.667 116.5 33s59.5 51 79.5 89v-276c-47.333 -38 -114.666 -58.333 -201.999 -61
c-85.333 -3.33301 -135 -47.666 -149 -132.999l1 -109h371v-333h-633v-234c0 -67.333 33 -120.333 99 -159c68 -40.667 168.333 -66 301 -76c-49.333 -25.333 -98.333 -45.333 -147 -60c-42.667 -12.667 -81 -19 -115 -19h-17c-80.667 4.66699 -153 30.334 -217 77.001
c-32 20.667 -56.667 53 -74 97s-28 96 -32 156v551h271v141z" />
    <glyph glyph-name="uniFECA" unicode="&#x639;" horiz-adv-x="1019" arabic-form="final" 
d="M662 668c-6 59.333 -39 89 -99 89s-90 -29.667 -90 -89s34 -89 102 -89c52 0 81 29.667 87 89zM460 339c0.666992 3.33301 0.999023 6.33301 0.999023 9c0 20 -18.333 40.333 -55 61c-42.667 24 -110 48.667 -202 74l96 66c-1.33301 6.66699 -2 14.334 -2 23.001v19
c0 170.667 49.333 278.667 148 324c48.667 22.667 95 34 139 34c26 0 52.333 -4.66699 79 -14s52 -21.666 76 -36.999c32 -22.667 56.333 -52.334 73 -89.001s25 -81.334 25 -134.001c0 -20 -1.33301 -41.167 -4 -63.5s-6.66699 -45.833 -12 -70.5
c15.333 -11.333 32.5 -23 51.5 -35s35.833 -23.333 50.5 -34c-168 -40.667 -254 -84 -258 -130h374v-333h-740v-199c6.66699 -81.333 41.334 -149 104.001 -203s154 -91 274 -111c-78.667 -28 -153 -42 -223 -42c-21.333 0 -43.5 1.83301 -66.5 5.5s-43.833 8.5 -62.5 14.5
c-100 32 -161.667 92.667 -185 182c-19.333 76 -29 196.667 -29 362v324z" />
    <glyph glyph-name="uniFECB" unicode="&#x639;" horiz-adv-x="710" arabic-form="initial" 
d="M80 486c5.33301 46.667 17.333 89.667 36 129s44 72.333 76 99c64.667 54.667 147 82 247 82c50 0 90.333 11 121 33s52 52.667 64 92v-288c-23.333 -21.333 -51.5 -37.5 -84.5 -48.5s-71.5 -16.5 -115.5 -16.5c-87.333 0 -137.333 -38.333 -150 -115l2 -111h371v-330
h-659v330h92v144z" />
    <glyph glyph-name="uniFECC" unicode="&#x639;" horiz-adv-x="905" arabic-form="medial" 
d="M538 668c-6 59.333 -39 89 -99 89s-90 -29.667 -90 -89s34 -89 102 -89c52 0 81 29.667 87 89zM-12 9v333h348c0.666992 2.66699 1 5.66699 1 9c0 18.667 -18.333 38.334 -55 59.001c-42.667 23.333 -110 47.666 -202 72.999l96 66c-1.33301 6.66699 -2 14.334 -2 23.001
v19c0 170.667 49.333 278.667 148 324c48.667 22.667 95 34 139 34c26 0 52.333 -4.66699 79 -14s52 -21.666 76 -36.999c32 -22.667 56.333 -52.334 73 -89.001s25 -81.334 25 -134.001c0 -20 -1.33301 -41.167 -4 -63.5s-6.66699 -45.833 -12 -70.5
c15.333 -11.333 32.5 -23 51.5 -35s35.833 -23.333 50.5 -34c-168 -40.667 -254 -84 -258 -130h374v-333h-928z" />
    <glyph glyph-name="uniFECD" unicode="&#x63a;" horiz-adv-x="1039" arabic-form="isolated" 
d="M611 1347c16.667 10 35.333 15.001 56 15.001c15.333 0 26.666 -2 33.999 -6c27.333 -9.33301 49.333 -30 66 -62c7.33301 -22 11 -40 11 -54c0 -8.66699 -1.33301 -17.834 -4 -27.501s-6 -18.5 -10 -26.5c-2 -4.66699 -5.16699 -10.167 -9.5 -16.5
s-8.5 -10.166 -12.5 -11.499l-15.5 -15c-5 -4.66699 -10.5 -9.33398 -16.5 -14.001c-13.333 -6.66699 -27.666 -10 -42.999 -10c-10 0 -19.833 1.66699 -29.5 5s-18.5 7 -26.5 11c-20 11.333 -35.833 27.5 -47.5 48.5s-17.5 42.5 -17.5 64.5c0 25.333 5 44.833 15 58.5
s26.667 27.167 50 40.5zM378.999 483.001c3.33301 48 14.665 91.165 33.998 129.498s44.333 71.5 75 99.5c33.333 26 70 46.5 110 61.5s82.667 23.5 128 25.5c44.667 0.666992 83.5 11.667 116.5 33s59.5 51 79.5 89v-276c-47.333 -38 -114.666 -58.333 -201.999 -61
c-85.333 -3.33301 -135 -47.666 -149 -132.999l1 -109h371v-333h-633v-234c0 -67.333 33 -120.333 99 -159c68 -40.667 168.333 -66 301 -76c-49.333 -25.333 -98.666 -45.333 -147.999 -60c-43.333 -12.667 -82.333 -19 -117 -19h-14
c-80.667 4.66699 -153 30.334 -217 77.001c-32 20.667 -56.667 53 -74 97s-28 96 -32 156v551h271v141z" />
    <glyph glyph-name="uniFECE" unicode="&#x63a;" horiz-adv-x="1019" arabic-form="final" 
d="M662 668c-6 59.333 -39 89 -99 89s-90 -29.667 -90 -89s34 -89 102 -89c52 0 81 29.667 87 89zM515 1347c16.667 10.667 35.001 15.9971 55.001 15.9971c16 0 27.667 -2.33301 35 -7c28 -9.33301 50 -29.333 66 -60c7.33301 -23.333 11 -41.333 11 -54
c0 -9.33301 -1.66699 -19 -5 -29s-7 -19 -11 -27c-0.666992 -4.66699 -3 -9.5 -7 -14.5s-8 -9.5 -12 -13.5c-6 -4 -11.5 -8.66699 -16.5 -14s-10.167 -9.66602 -15.5 -12.999c-12.667 -6 -27.667 -9 -45 -9c-9.33301 0 -18.833 1.16699 -28.5 3.5s-18.5 5.83301 -26.5 10.5
c-19.333 12 -35 28.667 -47 50s-18 42.666 -18 63.999c0 12.667 1.33301 23.834 4 33.501s6.5 17.834 11.5 24.501s11.667 13.334 20 20.001s18.166 13 29.499 19zM460.001 338.997c0.666992 3.33301 0.999023 6.33301 0.999023 9c0 20 -18.333 40.333 -55 61
c-42.667 24 -110 48.667 -202 74l96 66c-1.33301 6.66699 -2 14.334 -2 23.001v19c0 170.667 49.333 278.667 148 324c48.667 22.667 95 34 139 34c26 0 52.333 -4.66699 79 -14s52 -21.666 76 -36.999c32 -22.667 56.333 -52.334 73 -89.001s25 -81.334 25 -134.001
c0 -20 -1.33301 -41.167 -4 -63.5s-6.66699 -45.833 -12 -70.5c15.333 -11.333 32.5 -23 51.5 -35s35.833 -23.333 50.5 -34c-168 -40.667 -254 -84 -258 -130h374v-333h-740v-199c6.66699 -81.333 41.334 -149 104.001 -203s154 -91 274 -111
c-78.667 -28 -153 -42 -223 -42c-21.333 0 -43.5 1.83301 -66.5 5.5s-43.833 8.5 -62.5 14.5c-100 32 -161.667 92.667 -185 182c-19.333 76 -29 196.667 -29 362v324z" />
    <glyph glyph-name="uniFECF" unicode="&#x63a;" horiz-adv-x="710" arabic-form="initial" 
d="M312 1347c18.667 10.667 37.335 15.9971 56.002 15.9971c15.333 0 27 -2.33301 35 -7c28 -9.33301 49.667 -29.333 65 -60c8.66699 -23.333 13 -41.333 13 -54c0 -9.33301 -1.5 -19 -4.5 -29s-6.5 -19 -10.5 -27c-2.66699 -4 -5.83398 -9.16699 -9.50098 -15.5
s-7.5 -10.5 -11.5 -12.5c-5.33301 -4 -10.833 -8.66699 -16.5 -14s-10.834 -9.66602 -15.501 -12.999c-12.667 -6 -27.667 -9 -45 -9c-8.66699 0 -18.167 1.16699 -28.5 3.5s-19.5 5.83301 -27.5 10.5c-19.333 12 -34.5 28.667 -45.5 50s-16.5 42.666 -16.5 63.999
c0 12.667 0.666992 23.834 2 33.501s5 17.834 11 24.501s12.833 13.334 20.5 20.001s17.167 13 28.5 19zM80.001 485.997c5.33301 46.667 17.333 89.667 36 129s44 72.333 76 99c64.667 54.667 147 82 247 82c50 0 90.333 11 121 33s52 52.667 64 92v-288
c-23.333 -21.333 -51.5 -37.5 -84.5 -48.5s-71.5 -16.5 -115.5 -16.5c-87.333 0 -137.333 -38.333 -150 -115l2 -111h371v-330h-659v330h92v144z" />
    <glyph glyph-name="uniFED0" unicode="&#x63a;" horiz-adv-x="905" arabic-form="medial" 
d="M538 668c-6 59.333 -39 89 -99 89s-90 -29.667 -90 -89s34 -89 102 -89c52 0 81 29.667 87 89zM391 1347c16.667 10.667 35.001 15.9971 55.001 15.9971c16 0 27.667 -2.33301 35 -7c28 -9.33301 50 -29.333 66 -60c7.33301 -23.333 11 -41.333 11 -54
c0 -9.33301 -1.66699 -19 -5 -29s-7 -19 -11 -27c-0.666992 -4.66699 -3 -9.5 -7 -14.5s-8 -9.5 -12 -13.5c-6 -4 -11.5 -8.66699 -16.5 -14s-10.167 -9.66602 -15.5 -12.999c-12.667 -6 -27.667 -9 -45 -9c-9.33301 0 -18.833 1.16699 -28.5 3.5s-18.5 5.83301 -26.5 10.5
c-19.333 12 -35 28.667 -47 50s-18 42.666 -18 63.999c0 12.667 1.33301 23.834 4 33.501s6.5 17.834 11.5 24.501s11.667 13.334 20 20.001s18.166 13 29.499 19zM-11.999 8.99707v333h348c0.666992 2.66699 1 5.66699 1 9c0 18.667 -18.333 38.334 -55 59.001
c-42.667 23.333 -110 47.666 -202 72.999l96 66c-1.33301 6.66699 -2 14.334 -2 23.001v19c0 170.667 49.333 278.667 148 324c48.667 22.667 95 34 139 34c26 0 52.333 -4.66699 79 -14s52 -21.666 76 -36.999c32 -22.667 56.333 -52.334 73 -89.001
s25 -81.334 25 -134.001c0 -20 -1.33301 -41.167 -4 -63.5s-6.66699 -45.833 -12 -70.5c15.333 -11.333 32.5 -23 51.5 -35s35.833 -23.333 50.5 -34c-168 -40.667 -254 -84 -258 -130h374v-333h-928z" />
    <glyph glyph-name="uniFED1" unicode="&#x641;" horiz-adv-x="1288" arabic-form="isolated" 
d="M1015 450c0 66.667 -32.667 100 -98 100c-14 0 -27.167 -2.33301 -39.5 -7s-23.333 -11.834 -33 -21.501s-17.167 -20.667 -22.5 -33s-8 -25.166 -8 -38.499c0 -67.333 34.333 -101 103 -101c65.333 0 98 33.667 98 101zM872 1285
c16 8.66699 35.001 13.001 57.001 13.001c15.333 0 27 -2 35 -6c26 -8.66699 47.333 -29 64 -61c9.33301 -22 14 -39.333 14 -52c0 -10 -1.66699 -19.833 -5 -29.5s-7 -18.5 -11 -26.5c-2.66699 -4 -5.66699 -9.5 -9 -16.5s-8 -11.167 -14 -12.5
c-4.66699 -4.66699 -9.66699 -9.16699 -15 -13.5s-10.333 -9.5 -15 -15.5c-14 -6 -28.667 -9 -44 -9c-8.66699 0 -18.334 1.5 -29.001 4.5s-20 6.5 -28 10.5c-20 11.333 -35.667 27.666 -47 48.999s-17 42.666 -17 63.999c0 25.333 5.16699 44.833 15.5 58.5
s26.5 27.834 48.5 42.501zM176.001 161.001c0 51.333 -22.999 77.001 -68.999 77.001c-20.667 0 -46.334 -5 -77.001 -15l313 276v-525c8.66699 -47.333 29 -88 61 -122s76 -58.333 132 -73c27.333 -6 54.166 -10.833 80.499 -14.5s52.5 -5.5 78.5 -5.5
c60 0 116.667 8.66699 170 26c104 34 156 96.333 156 187v37h-380v463c0 45.333 7.33301 86.166 22 122.499s35.5 67.333 62.5 93s59.667 46 98 61s81.166 24.5 128.499 28.5c50.667 6 96.834 16 138.501 30s76.5 34 104.5 60v-931
c-15.333 -148 -83.666 -249.333 -204.999 -304c-93.333 -42 -192.666 -63 -297.999 -63c-14.667 0 -29.834 0.666992 -45.501 2s-31.5 2.33301 -47.5 3c-140 16 -242.333 53.333 -307 112c-66 58 -104.667 138 -116 240v235z" />
    <glyph glyph-name="uniFED2" unicode="&#x641;" horiz-adv-x="1311" arabic-form="final" 
d="M985 451c0 68 -32.667 102 -98 102c-14 0 -27.167 -2.83301 -39.5 -8.5s-23.333 -13.167 -33 -22.5s-17.167 -20 -22.5 -32s-8 -25 -8 -39c0 -68 34.333 -102 103 -102c65.333 0 98 34 98 102zM842 1285c18.667 9.33301 37.6689 14 57.002 14c15.333 0 27 -2.33301 35 -7
c26 -8.66699 47.333 -28.667 64 -60c9.33301 -21.333 14 -39 14 -53c0 -9.33301 -1.66699 -19 -5 -29s-7 -19 -11 -27c-2.66699 -4 -5.66699 -9.16699 -9 -15.5s-8 -10.833 -14 -13.5l-15 -12.5c-5.33301 -4.33301 -10.333 -8.83301 -15 -13.5
c-12.667 -6.66699 -27.334 -10 -44.001 -10c-8.66699 0 -18.334 1.66699 -29.001 5s-20 7 -28 11c-18.667 10.667 -34 26.667 -46 48s-18 42.666 -18 63.999c0 26 5.16699 45.333 15.5 58s26.5 26.334 48.5 41.001zM146.002 163c0 50 -22.999 75 -68.999 75
c-20.667 0 -46.334 -4.66699 -77.001 -14l313 277v-524c8.66699 -48.667 29 -90 61 -124s76 -57.667 132 -71c26 -8 52.167 -13.667 78.5 -17s53.166 -5 80.499 -5c28.667 0 57.167 2.16699 85.5 6.5s56.5 11.5 84.5 21.5c104 32.667 156 94 156 184v37h-380v463
c0 46 7.33301 87.333 22 124s35.5 67.834 62.5 93.501s59.667 46.167 98 61.5s81.166 25 128.499 29c50.667 4 96.834 13.167 138.501 27.5s76.5 34.166 104.5 59.499v-525h160v-333h-160v-73c-15.333 -146.667 -83.666 -248 -204.999 -304
c-93.333 -42 -192.666 -63 -297.999 -63c-14.667 0 -29.834 0.666992 -45.501 2s-31.5 2.33301 -47.5 3c-140 16 -242.333 54 -307 114c-66 56.667 -104.667 136 -116 238v237z" />
    <glyph glyph-name="uniFED3" unicode="&#x641;" horiz-adv-x="708" arabic-form="initial" 
d="M416 786c0 58 -28.667 87 -86 87c-61.333 0 -92 -29 -92 -87c0 -59.333 34 -89 102 -89c50.667 0 76 29.667 76 89zM284 1522c18 10.667 37.335 15.999 58.002 15.999c13.333 0 24 -2 32 -6c28 -8.66699 49.667 -30 65 -64c8.66699 -21.333 13 -38.333 13 -51
c0 -10.667 -1.16699 -20.834 -3.5 -30.501s-5.83301 -17.834 -10.5 -24.501c-3.33301 -6 -6.83301 -11.833 -10.5 -17.5s-7.5 -9.5 -11.5 -11.5c-4.66699 -6 -9.5 -10.667 -14.5 -14s-10.833 -8 -17.5 -14c-12.667 -6 -26.667 -9 -42 -9c-10.667 0 -21.167 1.33301 -31.5 4
s-19.166 6.33398 -26.499 11.001c-20.667 11.333 -36.334 27.333 -47.001 48s-16 42 -16 64c0 12.667 1.16699 23.834 3.5 33.501s6.16602 18.334 11.499 26.001s11.666 14.167 18.999 19.5s17 12 29 20zM84.002 497.999v336c0 60 22.333 112.667 67 158
c44.667 48 112 76.333 202 85c92 8.66699 168.333 42 229 100v-1168h-588v333h409v156h-319z" />
    <glyph glyph-name="uniFED4" unicode="&#x641;" horiz-adv-x="754" arabic-form="medial" 
d="M468 668c-4.66699 59.333 -36.668 89 -96.001 89c-60 0 -90 -29.667 -90 -89s33.333 -89 100 -89c52.667 0 81.334 29.667 86.001 89zM322.999 1347c17.333 10.667 36.334 15.9971 57.001 15.9971c15.333 0 26.666 -2.33301 33.999 -7c28.667 -9.33301 50 -29.333 64 -60
c8.66699 -23.333 13 -41.333 13 -54c0 -9.33301 -1.66699 -19 -5 -29s-6.66602 -19 -9.99902 -27c-2.66699 -4.66699 -5.83398 -9.5 -9.50098 -14.5s-7.5 -9.5 -11.5 -13.5c-6.66699 -4 -12.167 -8.66699 -16.5 -14s-9.83301 -9.66602 -16.5 -12.999
c-12.667 -6 -26.667 -9 -42 -9c-10 0 -20.167 1.16699 -30.5 3.5s-19.166 5.83301 -26.499 10.5c-18.667 12 -34 28.667 -46 50s-18 42.666 -18 63.999c0 12.667 1.16699 23.834 3.5 33.501s6.16602 17.834 11.499 24.501s11.833 13.334 19.5 20.001s17.5 13 29.5 19z
M-6 8.99707v332.999h300v64c-60.667 21.333 -106.667 52.333 -138 93c-28.667 37.333 -43 83.666 -43 138.999v14c5.33301 127.333 51 214 137 260c48.667 25.333 96.667 38 144 38c20 0 41 -2.66699 63 -8s43.667 -12.666 65 -21.999
c46.667 -20.667 81.667 -52.334 105 -95.001c22 -41.333 33 -91.666 33 -150.999v-10c-0.666992 -64 -16.5 -116.667 -47.5 -158s-75.833 -73 -134.5 -95c0 -9.33301 -0.333008 -20.666 -1 -33.999s-1 -25 -1 -35h293v-333h-775z" />
    <glyph glyph-name="uniFED5" unicode="&#x642;" horiz-adv-x="1304" arabic-form="isolated" 
d="M1015 450c0 66.667 -32.667 100 -98 100c-14 0 -27.167 -2.33301 -39.5 -7s-23.333 -11.834 -33 -21.501s-17.167 -20.667 -22.5 -33s-8 -25.166 -8 -38.499c0 -67.333 34.333 -101 103 -101c65.333 0 98 33.667 98 101zM692 1302
c18 8.66699 36.001 13.002 54.001 13.002s30 -2 36 -6c27.333 -8.66699 48.666 -28.334 63.999 -59.001c8.66699 -21.333 13 -39.333 13 -54c0 -21.333 -4.33301 -39.666 -13 -54.999c-2.66699 -6 -6 -11.5 -10 -16.5s-8 -9.16699 -12 -12.5
c-6 -4 -11.167 -8.66699 -15.5 -14s-9.83301 -10 -16.5 -14c-12.667 -6 -28 -9 -46 -9c-8.66699 0 -18.167 1.5 -28.5 4.5s-18.833 5.83301 -25.5 8.5c-20.667 12 -36.5 28.667 -47.5 50s-16.5 42.666 -16.5 63.999c0 25.333 5 44.666 15 57.999s26.333 27.333 49 42z
M1038 1302c17.333 8.66699 35.666 13.001 54.999 13.001c16.667 0 28.334 -2 35.001 -6c28 -8.66699 50 -28.334 66 -59.001c8.66699 -23.333 13 -41.333 13 -54c0 -10.667 -1.5 -20.667 -4.5 -30s-6.5 -17.666 -10.5 -24.999l-10 -15.5c-4 -6.33301 -8 -10.833 -12 -13.5
c-6.66699 -4 -12.167 -8.66699 -16.5 -14s-9.5 -10 -15.5 -14c-13.333 -6 -28.333 -9 -45 -9c-8.66699 0 -18 1.33301 -28 4s-19 5.66699 -27 9c-19.333 12 -34.833 28.667 -46.5 50s-17.5 42.666 -17.5 63.999c0 25.333 5.33301 45 16 59s26.667 27.667 48 41z
M176.001 161.003c0 51.333 -22.999 77.001 -68.999 77.001c-20.667 0 -46.334 -5 -77.001 -15l313 276v-525c8.66699 -47.333 29 -88 61 -122s76 -58.333 132 -73c27.333 -6 54.166 -10.833 80.499 -14.5s52.5 -5.5 78.5 -5.5c60 0 116.667 8.66699 170 26
c104 34 156 96.333 156 187v37h-380v463c0 45.333 7.33301 86.166 22 122.499s35.5 67.333 62.5 93s59.667 46 98 61s81.166 24.5 128.499 28.5c50.667 6 96.834 16 138.501 30s76.5 34 104.5 60v-931c-15.333 -148 -83.666 -249.333 -204.999 -304
c-93.333 -42 -192.666 -63 -297.999 -63c-14.667 0 -29.834 0.666992 -45.501 2s-31.5 2.33301 -47.5 3c-140 16 -242.333 53.333 -307 112c-66 58 -104.667 138 -116 240v235z" />
    <glyph glyph-name="uniFED6" unicode="&#x642;" horiz-adv-x="1329" arabic-form="final" 
d="M985 451c0 68 -32.667 102 -98 102c-14 0 -27.167 -2.83301 -39.5 -8.5s-23.333 -13.167 -33 -22.5s-17.167 -20 -22.5 -32s-8 -25 -8 -39c0 -68 34.333 -102 103 -102c65.333 0 98 34 98 102zM662 1302c18 8.66699 36.001 13.002 54.001 13.002s30 -2 36 -6
c27.333 -8.66699 48.666 -28.334 63.999 -59.001c8.66699 -21.333 13 -39.333 13 -54c0 -21.333 -4.33301 -39.666 -13 -54.999c-2.66699 -6 -6 -11.5 -10 -16.5s-8 -9.16699 -12 -12.5c-6 -4 -11.167 -8.66699 -15.5 -14s-9.83301 -10 -16.5 -14c-12.667 -6 -28 -9 -46 -9
c-8.66699 0 -18.167 1.5 -28.5 4.5s-18.833 5.83301 -25.5 8.5c-20.667 12 -36.5 28.667 -47.5 50s-16.5 42.666 -16.5 63.999c0 25.333 5 44.666 15 57.999s26.333 27.333 49 42zM1008 1302c17.333 8.66699 35.666 13.001 54.999 13.001c16.667 0 28.334 -2 35.001 -6
c28 -8.66699 50 -28.334 66 -59.001c8.66699 -23.333 13 -41.333 13 -54c0 -10.667 -1.5 -20.667 -4.5 -30s-6.5 -17.666 -10.5 -24.999l-10 -15.5c-4 -6.33301 -8 -10.833 -12 -13.5c-6.66699 -4 -12.167 -8.66699 -16.5 -14s-9.5 -10 -15.5 -14
c-13.333 -6 -28.333 -9 -45 -9c-8.66699 0 -18 1.33301 -28 4s-19 5.66699 -27 9c-19.333 12 -34.833 28.667 -46.5 50s-17.5 42.666 -17.5 63.999c0 25.333 5.33301 45 16 59s26.667 27.667 48 41zM146.001 163.003c0 50 -22.999 75 -68.999 75
c-20.667 0 -46.334 -4.66699 -77.001 -14l313 277v-524c8.66699 -48.667 29 -90 61 -124s76 -57.667 132 -71c26 -8 52.167 -13.667 78.5 -17s53.166 -5 80.499 -5c28.667 0 57.167 2.16699 85.5 6.5s56.5 11.5 84.5 21.5c104 32.667 156 94 156 184v37h-380v463
c0 46 7.33301 87.333 22 124s35.5 67.834 62.5 93.501s59.667 46.167 98 61.5s81.166 25 128.499 29c50.667 4 96.834 13.167 138.501 27.5s76.5 34.166 104.5 59.499v-525h172v-333h-172v-73c-15.333 -146.667 -83.666 -248 -204.999 -304
c-93.333 -42 -192.666 -63 -297.999 -63c-14.667 0 -29.834 0.666992 -45.501 2s-31.5 2.33301 -47.5 3c-140 16 -242.333 54 -307 114c-66 56.667 -104.667 136 -116 238v237z" />
    <glyph glyph-name="uniFED7" unicode="&#x642;" horiz-adv-x="698" arabic-form="initial" 
d="M420 786c0 60 -28.667 90 -86 90c-61.333 0 -92 -30 -92 -90c0 -58 34 -87 102 -87c50.667 0 76 29 76 87zM96 1551c16 8.66699 33.666 12.9971 52.999 12.9971c16 0 27.667 -2 35 -6c27.333 -9.33301 49.333 -29.666 66 -60.999c8.66699 -23.333 13 -40.333 13 -51
s-1.33301 -21 -4 -31s-5.66699 -19 -9 -27l-11.5 -14.5c-4.33301 -5.66699 -8.5 -10.5 -12.5 -14.5l-15 -12.5l-15 -12.5c-12.667 -6.66699 -28.334 -10 -47.001 -10c-7.33301 0 -16.166 1.5 -26.499 4.5s-19.166 6.16699 -26.499 9.5c-18.667 12 -34 28.5 -46 49.5
s-18 42.5 -18 64.5c0 12.667 1.16699 23.834 3.5 33.501s5.83301 17.834 10.5 24.501s11.167 13.167 19.5 19.5s18.5 13.5 30.5 21.5zM441.999 1551c17.333 8.66699 35.666 13 54.999 13c15.333 0 27 -2 35 -6c28 -9.33301 49.667 -29.666 65 -60.999
c8.66699 -21.333 13 -38.333 13 -51c0 -10.667 -1.66699 -21 -5 -31l-9 -27c-3.33301 -4 -6.83301 -8.83301 -10.5 -14.5s-7.5 -10.5 -11.5 -14.5c-6.66699 -4 -12.167 -8.16699 -16.5 -12.5s-9.5 -8.5 -15.5 -12.5c-13.333 -6.66699 -28.333 -10 -45 -10
c-8.66699 0 -18.167 1.5 -28.5 4.5s-19.166 6.16699 -26.499 9.5c-19.333 12 -34.833 28.5 -46.5 49.5s-17.5 42.5 -17.5 64.5c0 25.333 5 44.666 15 57.999s26.333 27 49 41zM87.999 497.997l0.000976562 337.001c0 59.333 22.333 111.666 67 156.999
c44.667 48.667 112 77 202 85c91.333 8.66699 167.666 42.667 228.999 102v-1170h-588v333h409v156h-319z" />
    <glyph glyph-name="uniFED8" unicode="&#x642;" horiz-adv-x="749" arabic-form="medial" 
d="M466 668c-4.66699 59.333 -36.668 89 -96.001 89c-60 0 -90 -29.667 -90 -89s33.333 -89 100 -89c52.667 0 81.334 29.667 86.001 89zM152.999 1324c16.667 9.33301 34.666 14 53.999 14c18 0 30.667 -1.66699 38 -5c27.333 -10 48.666 -30 63.999 -60
c8.66699 -22 13 -40 13 -54c0 -22 -4.33301 -40.333 -13 -55c-2.66699 -6 -6.16699 -11.833 -10.5 -17.5s-8.5 -9.5 -12.5 -11.5c-5.33301 -6 -10.5 -11.167 -15.5 -15.5s-10.5 -8.83301 -16.5 -13.5c-13.333 -6.66699 -29 -10 -47 -10
c-7.33301 0 -16.166 1.66699 -26.499 5s-19.5 7 -27.5 11c-20 11.333 -35.5 27.5 -46.5 48.5s-16.5 42.5 -16.5 64.5c0 25.333 4.83301 44.833 14.5 58.5s25.834 27.167 48.501 40.5zM500.998 1324c15.333 9.33301 33.6709 14 55.0039 14c16 0 27.667 -1.66699 35 -5
c27.333 -10 49.333 -30 66 -60c7.33301 -23.333 11 -41.333 11 -54c0 -10.667 -1.33301 -20.834 -4 -30.501s-6 -17.834 -10 -24.501c-2 -6 -5 -11.833 -9 -17.5s-8.33301 -9.5 -13 -11.5l-16 -15.5c-4.66699 -4.33301 -10.334 -8.83301 -17.001 -13.5
c-12.667 -6.66699 -27 -10 -43 -10c-9.33301 0 -18.833 1.66699 -28.5 5s-18.5 7 -26.5 11c-20.667 11.333 -36.667 27.5 -48 48.5s-17 42.5 -17 64.5c0 12.667 1.16699 23.834 3.5 33.501s6.16602 18.334 11.499 26.001s12.166 14.5 20.499 20.5s18.166 12.333 29.499 19z
M-7.99707 9v332.999h300v64c-60.667 21.333 -106.667 52.333 -138 93c-28.667 37.333 -43 83.666 -43 138.999v14c5.33301 127.333 51 214 137 260c48.667 25.333 96.667 38 144 38c20 0 41 -2.66699 63 -8s43.667 -12.666 65 -21.999
c46.667 -20.667 81.667 -52.334 105 -95.001c22 -41.333 33 -91.666 33 -150.999v-10c-0.666992 -64 -16.5 -116.667 -47.5 -158s-75.833 -73 -134.5 -95c0 -9.33301 -0.333008 -20.666 -1 -33.999s-1 -25 -1 -35h293v-333h-775z" />
    <glyph glyph-name="uniFED9" unicode="&#x643;" horiz-adv-x="1468" arabic-form="isolated" 
d="M970 819c-34 -8.66699 -68.498 -14.832 -103.498 -18.499s-67.833 -5.5 -98.5 -5.5c-23.333 0 -42.5 -6.33301 -57.5 -19s-22.5 -31.334 -22.5 -56.001c0 -6.66699 0.166992 -13.167 0.5 -19.5s1.16602 -12.833 2.49902 -19.5h279v-182h-465v287c14 80 43 134.333 87 163
c45.333 28 107.666 42 186.999 42h13c74 0 133.333 16.333 178 49v-221zM151.002 9.00195l0.000976562 399.999c0 28 -20.333 42 -61 42c-8 0 -15.833 -0.166992 -23.5 -0.5s-15.834 -2.16602 -24.501 -5.49902l282 188v-291h824v914c0 24 -12.333 36 -37 36
c-12.667 0 -29 -3.33301 -49 -10l293 209v-1482h-1204z" />
    <glyph glyph-name="uniFEDA" unicode="&#x643;" horiz-adv-x="1541" arabic-form="final" 
d="M970 819c-34.667 -8.66699 -69.3359 -14.8311 -104.003 -18.498s-68 -5.5 -100 -5.5c-23.333 0 -42.166 -6.33301 -56.499 -19s-21.5 -31.334 -21.5 -56.001v-19c0 -6.66699 1.33301 -13.334 4 -20.001h278v-182h-467v287c14.667 80 44.334 134.333 89.001 163
c44.667 28 106.667 42 186 42h13c74.667 0 134.334 16.333 179.001 49v-221zM151.998 9.00293l-0.000976562 400c0 30 -22.667 45 -68 45c-4.66699 0 -10 -0.166992 -16 -0.5s-11.333 -0.5 -16 -0.5l272 180v-291h822v914c0 24 -11.333 36 -34 36
c-13.333 0 -30.666 -3.33301 -51.999 -10l271 209v-1149h221v-333h-1400z" />
    <glyph glyph-name="uniFEDB" unicode="&#x643;" horiz-adv-x="1463" arabic-form="initial" 
d="M1330 9l-1354 0.00195312v333h1169v262h-960c3.33301 201.333 60.333 351.333 171 450c55.333 48 115.666 85.333 180.999 112s133 42 203 46c7.33301 0.666992 16 1 26 1h24c61.333 0 118 -5 170 -15s99.333 -26.667 142 -50
c110.667 -62.667 188.667 -139.334 234 -230.001h-210c-16 21.333 -39.5 40.666 -70.5 57.999s-64.5 32 -100.5 44c-60 12.667 -116.333 19 -169 19c-36 0 -71.667 -3.16699 -107 -9.5s-68 -15.5 -98 -27.5c-54 -22 -97 -50.167 -129 -84.5s-52.333 -74.833 -61 -121.5h939
v-787z" />
    <glyph glyph-name="uniFEDC" unicode="&#x643;" horiz-adv-x="1517" arabic-form="medial" 
d="M1330 342l224.001 0.00195312v-333h-1578v333h1169v262h-960c3.33301 201.333 60.333 351.333 171 450c55.333 48 115.666 85.333 180.999 112s133 42 203 46c7.33301 0.666992 16 1 26 1h24c61.333 0 118 -5 170 -15s99.333 -26.667 142 -50
c110.667 -62.667 188.667 -139.334 234 -230.001h-210c-16 21.333 -39.5 40.666 -70.5 57.999s-64.5 32 -100.5 44c-60 12.667 -116.333 19 -169 19c-36 0 -71.667 -3.16699 -107 -9.5s-68 -15.5 -98 -27.5c-54 -22 -97 -50.167 -129 -84.5s-52.333 -74.833 -61 -121.5h939
v-454z" />
    <glyph glyph-name="uniFEDD" unicode="&#x644;" horiz-adv-x="1280" arabic-form="isolated" 
d="M1174 6c-21.333 -200.667 -113.333 -326 -276 -376c-80.667 -25.333 -161.334 -38 -242.001 -38s-158.667 12.667 -234 38c-155.333 50 -243.666 154 -264.999 312v336c0 37.333 -12 56 -36 56c-8 0 -19.667 -2.66699 -35 -8l240 175v-502
c6.66699 -44.667 24.334 -83 53.001 -115s67.667 -56.667 117 -74c50.667 -16.667 102.667 -25 156 -25c56 0 115 9 177 27c106.667 34 160 103 160 207c0 9.33301 -0.333008 19 -1 29v1219c0 30 -13.333 45 -40 45c-6.66699 0 -14.334 -1 -23.001 -3l249 185v-1488z" />
    <glyph glyph-name="uniFEDE" unicode="&#x644;" horiz-adv-x="1411" arabic-form="final" 
d="M1450 9l-272.001 -0.00195312v-19c-21.333 -197.333 -113.333 -321.666 -276 -372.999c-80.667 -25.333 -162.667 -38 -246 -38c-76.667 0 -153.334 12 -230.001 36c-155.333 49.333 -243.666 153.333 -264.999 312v338c0 36.667 -12 55 -36 55
c-8 0 -19.667 -2.33301 -35 -7l240 173v-502c6.66699 -45.333 24.334 -83.833 53.001 -115.5s67.667 -56.167 117 -73.5c50.667 -16.667 102.667 -25 156 -25c56 0 115 9.33301 177 28c106.667 32.667 160 101.334 160 206.001c0 10 -0.333008 20 -1 30v1232
c0 29.333 -13.667 44 -41 44c-6.66699 0 -14 -0.666992 -22 -2l249 183v-1149h269z" />
    <glyph glyph-name="uniFEDF" unicode="&#x644;" horiz-adv-x="622" arabic-form="initial" 
d="M-8 9v333h352v813c-4 30 -12.5 52.667 -25.5 68s-29.833 23 -50.5 23c-7.33301 0 -14.5 -0.333008 -21.5 -1s-15.167 -3 -24.5 -7l285 244v-1473h-515z" />
    <glyph glyph-name="uniFEE0" unicode="&#x644;" horiz-adv-x="671" arabic-form="medial" 
d="M-14 9v333h263v828c-4.66699 58 -30.667 87 -78 87c-14.667 0 -29.667 -2 -45 -6l286 245v-1154h277v-333h-703z" />
    <glyph glyph-name="uniFEE1" unicode="&#x645;" horiz-adv-x="1157" arabic-form="isolated" 
d="M878 440c0 58.667 -29.667 88 -89 88c-60 0 -90 -29.333 -90 -88c0 -57.333 34 -86 102 -86c51.333 0 77 28.667 77 86zM271 -353c-0.666992 -6 -1 -11.667 -1 -17c0 -42 26 -63 78 -63c6 0 11.667 0.333008 17 1s10.333 1 15 1l-276 -162v935h430v124
c4 87.333 31.333 156 82 206s118.667 77.333 204 82c43.333 4 84 15.667 122 35s71.333 47.333 100 84v-864h-771v-362z" />
    <glyph glyph-name="uniFEE2" unicode="&#x645;" horiz-adv-x="1186" arabic-form="final" 
d="M872 440c0 58.667 -29.667 88 -89 88c-60 0 -90 -29.333 -90 -88c0 -57.333 34 -86 102 -86c51.333 0 77 28.667 77 86zM265 -353c-0.666992 -6 -1 -11.667 -1 -17c0 -42 26 -63 78 -63c6 0 11.667 0.333008 17 1s10.333 1 15 1l-276 -162v935h430v124
c4 87.333 31.333 156 82 206s118.667 77.333 204 82c43.333 4 84 15.667 122 35s71.333 47.333 100 84v-531h170v-333h-941v-362z" />
    <glyph glyph-name="uniFEE3" unicode="&#x645;" horiz-adv-x="771" arabic-form="initial" 
d="M521 440c0 58.667 -30 88 -90 88s-90 -29.333 -90 -88c0 -57.333 33.333 -86 100 -86c53.333 0 80 28.667 80 86zM-11 9l-2.99902 333h190v124c4 87.333 31 156 81 206s117.667 77.333 203 82c44.667 4 85.667 15.667 123 35s70.666 47.333 99.999 84v-864h-694z" />
    <glyph glyph-name="uniFEE4" unicode="&#x645;" horiz-adv-x="1080" arabic-form="medial" 
d="M644 440c0 57.333 -29.333 86 -88 86c-60 0 -90 -28.667 -90 -86c0 -59.333 33.333 -89 100 -89c52 0 78 29.667 78 89zM-16 342l304.001 0.000976562v122c4 87.333 31.167 156 81.5 206s118.166 78 203.499 84c44 2.66699 84.5 13.667 121.5 33
s70.833 47.666 101.5 84.999v-530h296v-333h-1108v333z" />
    <glyph glyph-name="uniFEE5" unicode="&#x646;" horiz-adv-x="1278" arabic-form="isolated" 
d="M630 1267c16.667 10 34.667 15.001 54 15.001c14.667 0 25.667 -2.33301 33 -7c28.667 -9.33301 50.667 -29.333 66 -60c8.66699 -21.333 13 -39.333 13 -54c0 -8.66699 -1.5 -18.167 -4.5 -28.5s-6.5 -19.166 -10.5 -26.499l-10 -15.5
c-4 -6.33301 -7.66699 -10.833 -11 -13.5c-6 -4 -11.5 -8.5 -16.5 -13.5s-10.5 -9.5 -16.5 -13.5c-12.667 -6.66699 -27 -10 -43 -10c-10 0 -20 1.66699 -30 5s-18 6.33301 -24 9c-21.333 13.333 -37.666 30.166 -48.999 50.499s-17 42.166 -17 65.499
c0 25.333 5.16699 44.333 15.5 57s27.166 26 50.499 40zM1161 6.00098c-12.667 -200.667 -100.334 -326 -263.001 -376c-80.667 -25.333 -161.334 -38 -242.001 -38s-158.667 12.667 -234 38c-155.333 50 -243.666 154 -264.999 312v336c0 37.333 -12 56 -36 56
c-8 0 -19.667 -2.66699 -35 -8l240 175v-502c6.66699 -44.667 24.334 -83 53.001 -115s67.667 -56.667 117 -74c50.667 -16.667 102.667 -25 156 -25c56 0 115 9 177 27c106.667 34 160 103 160 207c0 9.33301 -0.333008 19 -1 29v560c0 31.333 -13.667 47 -41 47
c-6.66699 0 -14 -1 -22 -3l236 185v-831z" />
    <glyph glyph-name="uniFEE6" unicode="&#x646;" horiz-adv-x="1423" arabic-form="final" 
d="M630 1256c14.667 8.66699 32.667 13.0029 54 13.0029c14.667 0 25.667 -2.66699 33 -8c28.667 -7.33301 50.667 -27 66 -59c8.66699 -20.667 13 -38.667 13 -54c0 -8.66699 -1.5 -17.834 -4.5 -27.501s-6.5 -18.5 -10.5 -26.5c-2.66699 -4.66699 -6 -10.167 -10 -16.5
s-7.66699 -10.5 -11 -12.5c-6 -4.66699 -11.5 -9.16699 -16.5 -13.5s-10.5 -9.5 -16.5 -15.5c-12.667 -6 -27 -9 -43 -9c-10 0 -20 1.5 -30 4.5s-18 6.5 -24 10.5c-21.333 11.333 -37.666 27.666 -48.999 48.999s-17 42.666 -17 63.999c0 26 5.16699 45.667 15.5 59
s27.166 27.333 50.499 42zM1432 9.00293l-271 -0.000976562v-19c-12.667 -197.333 -100.334 -321.333 -263.001 -372c-80.667 -26 -162.667 -39 -246 -39c-76.667 0 -153.334 12.667 -230.001 38c-153.333 50 -241.666 154 -264.999 312v338c0 36.667 -12 55 -36 55
c-8 0 -19.667 -3 -35 -9l240 175v-504c6.66699 -44.667 24.334 -83 53.001 -115s67.667 -56 117 -72c50.667 -16.667 102.667 -25 156 -25c56 0 115 9.66699 177 29c106.667 32.667 160 101.334 160 206.001c0 10 -0.333008 20 -1 30v560c0 29.333 -13.667 44 -41 44
c-6.66699 0 -14 -0.666992 -22 -2l236 185v-482h271v-333z" />
    <glyph glyph-name="uniFEE7" unicode="&#x646;" horiz-adv-x="592" arabic-form="initial" 
d="M362 1288c17.333 9.33301 36.667 13.999 58 13.999c14.667 0 25.334 -2 32.001 -6c28 -9.33301 50 -30 66 -62c9.33301 -21.333 14 -39.333 14 -54c0 -8.66699 -1.66699 -18.167 -5 -28.5s-7 -18.833 -11 -25.5c-2.66699 -4.66699 -6 -9.83398 -10 -15.501
s-8 -10.5 -12 -14.5c-6 -4 -11.167 -8.16699 -15.5 -12.5s-9.83301 -8.5 -16.5 -12.5c-12.667 -8 -26.667 -12 -42 -12c-10.667 0 -21 1.66699 -31 5s-19 7 -27 11c-20.667 12.667 -36.334 29.167 -47.001 49.5s-16 41.833 -16 64.5c0 12.667 1 23.834 3 33.501
s5.83301 17.834 11.5 24.501s12.5 13.167 20.5 19.5zM-11.999 8.99902l-0.000976562 333h348v271c0 26 -13.667 39 -41 39c-11.333 0 -21.666 -0.333008 -30.999 -1l254 196v-838h-530z" />
    <glyph glyph-name="uniFEE8" unicode="&#x646;" horiz-adv-x="576" arabic-form="medial" 
d="M230 1321c17.333 8.66699 35.667 12.998 55 12.998c15.333 0 27 -2 35 -6c28 -8.66699 49.667 -29 65 -61c9.33301 -22 14 -39.333 14 -52c0 -10 -1.5 -20 -4.5 -30s-6.5 -19 -10.5 -27c-2 -4 -5.16699 -8.83301 -9.5 -14.5s-8.5 -10.5 -12.5 -14.5
c-6.66699 -4 -12.167 -8.16699 -16.5 -12.5s-8.83301 -8.5 -13.5 -12.5c-12.667 -6.66699 -28.334 -10 -47.001 -10c-8.66699 0 -18.167 1.33301 -28.5 4s-19.166 5.66699 -26.499 9c-20.667 12.667 -36.5 29.5 -47.5 50.5s-16.5 42.167 -16.5 63.5
c0 26.667 5.33301 46.834 16 60.501s26.667 26.834 48 39.501zM-15.999 8.99805v333h223v243c0 24.667 -10.333 37 -31 37c-12.667 0 -28 -4 -46 -12l250 200v-468h209v-333h-605z" />
    <glyph glyph-name="uniFEE9" unicode="&#x647;" horiz-adv-x="735" arabic-form="isolated" 
d="M452 428c0 57.333 -30 86 -90 86s-90 -28.667 -90 -86c0 -59.333 34 -89 102 -89c52 0 78 29.667 78 89zM118 492c0 42.667 19.333 93.667 58 153c38 58.667 106 93 204 103c96.667 9.33301 174.667 51 234 125v-864h-496v483z" />
    <glyph glyph-name="uniFEEA" unicode="&#x647;" horiz-adv-x="773" arabic-form="final" 
d="M444 428c0 57.333 -30 86 -90 86s-90 -28.667 -90 -86c0 -59.333 34 -89 102 -89c52 0 78 29.667 78 89zM110 492c0 42.667 19.333 93.667 58 153c38 58.667 106 93 204 103c96.667 9.33301 174.667 51 234 125v-531h183v-333h-679v483z" />
    <glyph glyph-name="uniFEEB" unicode="&#x647;" horiz-adv-x="1263" arabic-form="initial" 
d="M512 693c-7.33301 28 -15.165 51.999 -23.498 71.999s-15.833 35 -22.5 45c-8 10 -16.333 19.833 -25 29.5s-17.667 17.834 -27 24.501c-18.667 5.33301 -33.334 8 -44.001 8c-12.667 0 -24.667 -2 -36 -6c-12 -10.667 -21.833 -23 -29.5 -37s-11.5 -28 -11.5 -42
c0 -11.333 1.66699 -21.833 5 -31.5s10.666 -20.5 21.999 -32.5c9.33301 -7.33301 24.333 -14.5 45 -21.5s50 -10.5 88 -10.5c17.333 0 37 0.666992 59 2zM441.001 327.999c15.333 0 26.999 2.66699 34.999 8c28 8.66699 49.333 29.667 64 63
c6.66699 20.667 10 37.667 10 51c0 16 -6.33301 34.333 -19 55c-12.667 17.333 -33.667 26 -63 26c-29.333 2 -56.166 5.5 -80.499 10.5s-42.166 9.5 -53.499 13.5c-14.667 -33.333 -22 -65.333 -22 -96c0 -18 2.66699 -35.333 8 -52s11.666 -29.667 18.999 -39
c16 -15.333 32 -25.833 48 -31.5s34 -8.5 54 -8.5zM904 410.999c8.66699 26 12.999 45.667 12.999 59c0 24.667 -2.33301 46.667 -7 66c-16 40.667 -47.667 61 -95 61h-9c-24 0 -66 -7.66699 -126 -23c2 -24.667 3.16699 -46.5 3.5 -65.5s0.5 -34.167 0.5 -45.5
c0 -19.333 -0.333008 -60.666 -1 -123.999c15.333 -2 29 -3 41 -3s22 0.666992 30 2c4 0 7.66699 0.166992 11 0.5s7 0.5 11 0.5h12c4.66699 0 9.33398 1 14.001 3c17.333 1.33301 36 7.66602 56 18.999s35.333 28 46 50zM-14.001 8.99902l0.000976562 333h182
c-1.33301 10 -2.66602 20.833 -3.99902 32.5s-2 22.167 -2 31.5c0 36 5.33301 70.667 16 104s26 64.666 46 93.999c-15.333 17.333 -29 38.166 -41 62.499s-21.333 48.5 -28 72.5c-2 12 -3 25.667 -3 41c0 44.667 14.333 93.667 43 147c33.333 58 90.333 87 171 87h22
c7.33301 0 14 -1 20 -3c50 -7.33301 95.5 -36.5 136.5 -87.5s74.833 -122.167 101.5 -213.5c51.333 6.66699 126.666 52.334 225.999 137.001c98.667 84 188.667 135 270 153v-658l2 -333h-517c-6.66699 -12.667 -11.834 -25 -15.501 -37s-5.5 -23 -5.5 -33
c0 -10.667 2.66699 -21.667 8 -33c12 4 23 6.66699 33 8s20 2 30 2c38.667 0 66.667 -14 84 -42c16.667 -24.667 25 -48.667 25 -72c0 -19.333 -5 -37.666 -15 -54.999c-22.667 -43.333 -65.667 -65 -129 -65c-50.667 0 -89 18.167 -115 54.5s-39 87.833 -39 154.5
c0 36 4.33301 75.333 13 118h-515z" />
    </font>
</defs>
</svg>
